<svg xmlns="http://www.w3.org/2000/svg" version="1.1" xmlns:xlink="http://www.w3.org/1999/xlink" xmlns:svgjs="http://svgjs.com/svgjs" width="500" height="500"><svg xmlns="http://www.w3.org/2000/svg" xmlns:xlink="http://www.w3.org/1999/xlink" width="500" zoomAndPan="magnify" viewBox="0 0 375 374.999991" height="500" preserveAspectRatio="xMidYMid meet" version="1.0"><defs><g></g><clipPath id="SvgjsClipPath1001"><path d="M 59.480469 59.480469 L 315.230469 59.480469 L 315.230469 315.230469 L 59.480469 315.230469 Z M 59.480469 59.480469 " clip-rule="nonzero"></path></clipPath><clipPath id="SvgjsClipPath1000"><path d="M 131.152344 91.355469 L 243.652344 91.355469 L 243.652344 203.855469 L 131.152344 203.855469 Z M 131.152344 91.355469 " clip-rule="nonzero"></path></clipPath></defs><g clip-path="url(#449151dfed)"><path fill="#000000" d="M 315.511719 187.496094 C 315.511719 189.589844 315.457031 191.683594 315.355469 193.777344 C 315.253906 195.867188 315.097656 197.957031 314.894531 200.042969 C 314.6875 202.128906 314.433594 204.207031 314.125 206.277344 C 313.816406 208.351562 313.457031 210.414062 313.050781 212.46875 C 312.640625 214.523438 312.183594 216.566406 311.671875 218.597656 C 311.164062 220.632812 310.605469 222.648438 309.996094 224.65625 C 309.390625 226.660156 308.730469 228.648438 308.027344 230.621094 C 307.320312 232.59375 306.566406 234.546875 305.765625 236.484375 C 304.964844 238.417969 304.113281 240.335938 303.21875 242.226562 C 302.324219 244.121094 301.382812 245.992188 300.394531 247.839844 C 299.40625 249.6875 298.375 251.511719 297.296875 253.308594 C 296.21875 255.105469 295.097656 256.875 293.933594 258.617188 C 292.769531 260.359375 291.566406 262.070312 290.316406 263.753906 C 289.070312 265.4375 287.78125 267.085938 286.453125 268.707031 C 285.121094 270.324219 283.753906 271.910156 282.347656 273.464844 C 280.941406 275.015625 279.496094 276.535156 278.015625 278.015625 C 276.535156 279.496094 275.015625 280.941406 273.464844 282.347656 C 271.910156 283.753906 270.324219 285.121094 268.707031 286.453125 C 267.085938 287.78125 265.4375 289.070312 263.753906 290.316406 C 262.070312 291.566406 260.359375 292.769531 258.617188 293.933594 C 256.875 295.097656 255.105469 296.21875 253.308594 297.296875 C 251.511719 298.375 249.6875 299.40625 247.839844 300.394531 C 245.992188 301.382812 244.121094 302.324219 242.226562 303.21875 C 240.335938 304.113281 238.417969 304.964844 236.484375 305.765625 C 234.546875 306.566406 232.59375 307.320312 230.621094 308.027344 C 228.648438 308.730469 226.660156 309.390625 224.65625 309.996094 C 222.652344 310.605469 220.632812 311.164062 218.597656 311.671875 C 216.566406 312.183594 214.523438 312.640625 212.46875 313.050781 C 210.414062 313.457031 208.351562 313.816406 206.277344 314.125 C 204.207031 314.433594 202.128906 314.6875 200.042969 314.894531 C 197.957031 315.097656 195.867188 315.253906 193.777344 315.355469 C 191.683594 315.457031 189.589844 315.511719 187.496094 315.511719 C 185.398438 315.511719 183.304688 315.457031 181.210938 315.355469 C 179.121094 315.253906 177.03125 315.097656 174.945312 314.894531 C 172.863281 314.6875 170.78125 314.433594 168.710938 314.125 C 166.636719 313.816406 164.574219 313.457031 162.519531 313.050781 C 160.464844 312.640625 158.421875 312.183594 156.390625 311.671875 C 154.355469 311.164062 152.339844 310.605469 150.332031 309.996094 C 148.328125 309.390625 146.339844 308.730469 144.367188 308.027344 C 142.394531 307.320312 140.441406 306.566406 138.503906 305.765625 C 136.570312 304.964844 134.65625 304.113281 132.761719 303.21875 C 130.867188 302.324219 128.996094 301.382812 127.148438 300.394531 C 125.300781 299.40625 123.476562 298.375 121.679688 297.296875 C 119.882812 296.21875 118.113281 295.097656 116.371094 293.933594 C 114.628906 292.769531 112.917969 291.566406 111.234375 290.316406 C 109.550781 289.070312 107.902344 287.78125 106.28125 286.453125 C 104.664062 285.121094 103.078125 283.753906 101.523438 282.347656 C 99.972656 280.941406 98.453125 279.496094 96.972656 278.015625 C 95.492188 276.535156 94.046875 275.015625 92.640625 273.464844 C 91.234375 271.910156 89.867188 270.324219 88.535156 268.707031 C 87.207031 267.085938 85.917969 265.4375 84.671875 263.753906 C 83.421875 262.070312 82.21875 260.359375 81.054688 258.617188 C 79.890625 256.875 78.769531 255.105469 77.691406 253.308594 C 76.613281 251.511719 75.582031 249.6875 74.59375 247.839844 C 73.605469 245.992188 72.664062 244.121094 71.769531 242.226562 C 70.875 240.335938 70.023438 238.417969 69.222656 236.484375 C 68.421875 234.546875 67.667969 232.59375 66.960938 230.621094 C 66.257812 228.648438 65.597656 226.660156 64.992188 224.65625 C 64.382812 222.648438 63.824219 220.632812 63.316406 218.597656 C 62.804688 216.566406 62.347656 214.523438 61.9375 212.46875 C 61.53125 210.414062 61.171875 208.351562 60.863281 206.277344 C 60.558594 204.207031 60.300781 202.128906 60.09375 200.042969 C 59.890625 197.957031 59.734375 195.867188 59.632812 193.777344 C 59.53125 191.683594 59.480469 189.589844 59.480469 187.496094 C 59.480469 185.398438 59.53125 183.304688 59.632812 181.210938 C 59.734375 179.121094 59.890625 177.03125 60.09375 174.945312 C 60.300781 172.863281 60.558594 170.78125 60.863281 168.710938 C 61.171875 166.636719 61.53125 164.574219 61.9375 162.519531 C 62.347656 160.464844 62.804688 158.421875 63.316406 156.390625 C 63.824219 154.355469 64.382812 152.339844 64.992188 150.332031 C 65.597656 148.328125 66.257812 146.339844 66.960938 144.367188 C 67.667969 142.394531 68.421875 140.441406 69.222656 138.503906 C 70.023438 136.570312 70.875 134.65625 71.769531 132.761719 C 72.664062 130.867188 73.605469 128.996094 74.59375 127.148438 C 75.582031 125.300781 76.613281 123.476562 77.691406 121.679688 C 78.769531 119.882812 79.890625 118.113281 81.054688 116.371094 C 82.21875 114.628906 83.421875 112.917969 84.671875 111.234375 C 85.917969 109.550781 87.207031 107.902344 88.535156 106.28125 C 89.867188 104.664062 91.234375 103.078125 92.640625 101.523438 C 94.046875 99.972656 95.492188 98.453125 96.972656 96.972656 C 98.453125 95.492188 99.972656 94.046875 101.523438 92.640625 C 103.078125 91.234375 104.664062 89.867188 106.28125 88.535156 C 107.902344 87.207031 109.550781 85.917969 111.234375 84.671875 C 112.917969 83.421875 114.628906 82.21875 116.371094 81.054688 C 118.113281 79.890625 119.882812 78.769531 121.679688 77.691406 C 123.476562 76.613281 125.300781 75.582031 127.148438 74.59375 C 128.996094 73.605469 130.867188 72.664062 132.761719 71.769531 C 134.65625 70.875 136.570312 70.023438 138.503906 69.222656 C 140.441406 68.421875 142.394531 67.667969 144.367188 66.960938 C 146.339844 66.257812 148.328125 65.597656 150.332031 64.992188 C 152.339844 64.382812 154.355469 63.824219 156.390625 63.316406 C 158.421875 62.804688 160.464844 62.347656 162.519531 61.9375 C 164.574219 61.53125 166.636719 61.171875 168.710938 60.863281 C 170.78125 60.558594 172.863281 60.300781 174.945312 60.09375 C 177.03125 59.890625 179.121094 59.734375 181.210938 59.632812 C 183.304688 59.53125 185.398438 59.480469 187.496094 59.480469 C 189.589844 59.480469 191.683594 59.53125 193.777344 59.632812 C 195.867188 59.734375 197.957031 59.890625 200.042969 60.09375 C 202.128906 60.300781 204.207031 60.558594 206.277344 60.863281 C 208.351562 61.171875 210.414062 61.53125 212.46875 61.9375 C 214.523438 62.347656 216.566406 62.804688 218.597656 63.316406 C 220.632812 63.824219 222.652344 64.382812 224.65625 64.992188 C 226.660156 65.597656 228.648438 66.257812 230.621094 66.960938 C 232.59375 67.667969 234.546875 68.421875 236.484375 69.222656 C 238.417969 70.023438 240.335938 70.875 242.226562 71.769531 C 244.121094 72.664062 245.992188 73.605469 247.839844 74.59375 C 249.6875 75.582031 251.511719 76.613281 253.308594 77.691406 C 255.105469 78.769531 256.875 79.890625 258.617188 81.054688 C 260.359375 82.21875 262.070312 83.421875 263.753906 84.671875 C 265.4375 85.917969 267.085938 87.207031 268.707031 88.535156 C 270.324219 89.867188 271.910156 91.234375 273.464844 92.640625 C 275.015625 94.046875 276.535156 95.492188 278.015625 96.972656 C 279.496094 98.453125 280.941406 99.972656 282.347656 101.523438 C 283.753906 103.078125 285.121094 104.664062 286.453125 106.28125 C 287.78125 107.902344 289.070312 109.550781 290.316406 111.234375 C 291.566406 112.917969 292.769531 114.628906 293.933594 116.371094 C 295.097656 118.113281 296.21875 119.882812 297.296875 121.679688 C 298.375 123.476562 299.40625 125.300781 300.394531 127.148438 C 301.382812 128.996094 302.324219 130.867188 303.21875 132.761719 C 304.113281 134.65625 304.964844 136.570312 305.765625 138.503906 C 306.566406 140.441406 307.320312 142.394531 308.027344 144.367188 C 308.730469 146.339844 309.390625 148.328125 309.996094 150.332031 C 310.605469 152.339844 311.164062 154.355469 311.671875 156.390625 C 312.183594 158.421875 312.640625 160.464844 313.050781 162.519531 C 313.457031 164.574219 313.816406 166.636719 314.125 168.710938 C 314.433594 170.78125 314.6875 172.863281 314.894531 174.945312 C 315.097656 177.03125 315.253906 179.121094 315.355469 181.210938 C 315.457031 183.304688 315.511719 185.398438 315.511719 187.496094 Z M 315.511719 187.496094 " fill-opacity="1" fill-rule="nonzero"></path></g><g clip-path="url(#a2d340f0c4)"><path fill="#ffffff" d="M 227.378906 107.902344 C 216.738281 97.261719 202.589844 91.398438 187.539062 91.398438 C 172.488281 91.398438 158.339844 97.261719 147.699219 107.902344 C 137.054688 118.542969 131.195312 132.695312 131.195312 147.746094 C 131.195312 162.796875 137.054688 176.945312 147.699219 187.585938 C 158.339844 198.230469 172.488281 204.089844 187.539062 204.089844 C 202.589844 204.089844 216.738281 198.230469 227.378906 187.585938 C 238.023438 176.945312 243.882812 162.796875 243.882812 147.746094 C 243.882812 132.695312 238.023438 118.546875 227.378906 107.902344 Z M 242.304688 150.542969 C 242.683594 149.507812 242.980469 148.484375 243.195312 147.472656 C 243.195312 147.566406 243.195312 147.65625 243.195312 147.746094 C 243.195312 150.613281 242.960938 153.542969 242.5 156.445312 C 242.589844 154.496094 242.523438 152.519531 242.304688 150.542969 Z M 219.5 193.269531 C 218.4375 194.019531 217.339844 194.734375 216.222656 195.40625 C 216.230469 195.363281 216.238281 195.316406 216.242188 195.269531 C 217.355469 194.628906 218.441406 193.960938 219.5 193.269531 Z M 156.65625 192.957031 C 158.167969 194.414062 159.78125 195.730469 161.476562 196.894531 C 158.703125 195.417969 156.050781 193.703125 153.554688 191.773438 C 154.523438 192.226562 155.5625 192.621094 156.65625 192.957031 Z M 224.003906 181.097656 C 226.695312 179.082031 229.179688 176.980469 231.398438 174.839844 C 231.351562 176.859375 231.089844 178.75 230.613281 180.472656 C 228.707031 182.339844 226.558594 184.183594 224.226562 185.953125 C 224.320312 184.5 224.246094 182.871094 224.003906 181.097656 Z M 154.664062 105.734375 C 155.023438 105.261719 155.433594 104.785156 155.886719 104.3125 C 157.820312 103.832031 159.941406 103.585938 162.191406 103.585938 C 162.226562 103.585938 162.257812 103.585938 162.289062 103.585938 C 162.265625 103.625 162.238281 103.660156 162.210938 103.695312 C 159.546875 104.144531 157.011719 104.832031 154.664062 105.734375 Z M 144.882812 115.949219 C 144.980469 115.175781 145.0625 114.859375 145.402344 113.867188 C 147.496094 112.039062 149.8125 110.390625 152.296875 108.96875 C 152.199219 109.316406 152.167969 109.539062 152.121094 110.027344 C 149.507812 111.804688 147.078125 113.792969 144.882812 115.949219 Z M 143.027344 144.660156 C 142.507812 148.035156 142.234375 151.433594 142.210938 154.777344 C 140.160156 154.128906 138.378906 153.253906 136.914062 152.179688 C 137.121094 148.949219 137.613281 145.675781 138.382812 142.445312 C 139.6875 143.359375 141.246094 144.101562 143.027344 144.660156 Z M 170.0625 101.800781 C 173.304688 100.433594 176.65625 99.34375 180.035156 98.554688 C 180.210938 98.902344 180.316406 99.289062 180.355469 99.699219 C 176.875 100.117188 173.414062 100.824219 170.0625 101.800781 Z M 214.523438 155.980469 C 212.949219 153.089844 211.207031 150.144531 209.34375 147.222656 C 212.382812 144.941406 215.1875 142.558594 217.679688 140.128906 C 219.710938 142.914062 221.566406 145.757812 223.195312 148.589844 C 220.605469 151.117188 217.691406 153.601562 214.523438 155.980469 Z M 154.472656 124.5625 C 154.730469 124.570312 154.996094 124.574219 155.261719 124.574219 C 156.449219 124.574219 157.707031 124.488281 159.011719 124.324219 C 158.59375 127.40625 158.332031 130.636719 158.234375 133.933594 C 156.410156 134.175781 154.652344 134.300781 153.003906 134.300781 C 152.664062 134.300781 152.324219 134.292969 151.992188 134.285156 C 152.621094 130.945312 153.453125 127.679688 154.472656 124.5625 Z M 208.765625 147.652344 C 210.628906 150.589844 212.367188 153.539062 213.9375 156.417969 C 210.738281 158.785156 207.296875 161.035156 203.707031 163.109375 C 202.199219 160.167969 200.597656 157.128906 198.9375 154.074219 C 202.386719 152.082031 205.691406 149.921875 208.765625 147.652344 Z M 194.019531 116.535156 C 192.441406 118.0625 190.675781 119.5625 188.761719 121 C 186.535156 118.691406 184.296875 116.527344 182.101562 114.558594 C 183.496094 113.5 184.78125 112.402344 185.933594 111.285156 C 188.625 112.832031 191.34375 114.59375 194.019531 116.535156 Z M 193.175781 143.773438 C 191.460938 140.800781 189.707031 137.832031 187.957031 134.945312 C 190.699219 133.355469 193.324219 131.640625 195.769531 129.835938 C 197.9375 132.445312 200.070312 135.167969 202.105469 137.933594 C 199.3125 139.996094 196.3125 141.960938 193.175781 143.773438 Z M 187.59375 134.347656 C 185.84375 131.472656 184.101562 128.679688 182.402344 126.027344 C 184.617188 124.742188 186.738281 123.355469 188.714844 121.898438 C 190.9375 124.234375 193.15625 126.722656 195.320312 129.296875 C 192.898438 131.082031 190.300781 132.777344 187.59375 134.347656 Z M 174.832031 129.855469 C 177.21875 128.816406 179.566406 127.640625 181.824219 126.359375 C 183.523438 129.027344 185.261719 131.828125 186.992188 134.691406 C 184.230469 136.261719 181.355469 137.699219 178.441406 138.964844 C 177.183594 135.871094 175.96875 132.808594 174.832031 129.855469 Z M 187.355469 135.292969 C 189.097656 138.183594 190.84375 141.152344 192.554688 144.128906 C 189.359375 145.949219 186.035156 147.609375 182.667969 149.070312 C 181.308594 145.894531 179.976562 142.71875 178.707031 139.613281 C 181.65625 138.332031 184.5625 136.878906 187.355469 135.292969 Z M 188.234375 121.394531 C 186.289062 122.824219 184.207031 124.1875 182.027344 125.449219 C 180.320312 122.796875 178.644531 120.265625 177.039062 117.917969 C 178.636719 116.984375 180.164062 115.984375 181.589844 114.9375 C 183.777344 116.910156 186.011719 119.078125 188.234375 121.394531 Z M 174.582031 129.210938 C 173.453125 126.261719 172.394531 123.417969 171.441406 120.753906 C 173.164062 120.003906 174.859375 119.15625 176.492188 118.230469 C 178.089844 120.589844 179.757812 123.125 181.453125 125.777344 C 179.230469 127.039062 176.921875 128.191406 174.582031 129.210938 Z M 177.804688 139.238281 C 174.816406 140.507812 171.785156 141.601562 168.789062 142.484375 C 168.03125 139.207031 167.378906 135.941406 166.84375 132.769531 C 169.296875 132.046875 171.777344 131.15625 174.21875 130.117188 C 175.347656 133.074219 176.554688 136.140625 177.804688 139.238281 Z M 178.070312 139.886719 C 179.339844 143.015625 180.664062 146.199219 182.011719 149.351562 C 178.550781 150.824219 175.046875 152.085938 171.585938 153.105469 C 170.613281 149.8125 169.726562 146.472656 168.949219 143.167969 C 171.980469 142.273438 175.042969 141.171875 178.070312 139.886719 Z M 192.90625 144.746094 C 194.628906 147.757812 196.332031 150.808594 197.96875 153.820312 C 194.46875 155.8125 190.828125 157.632812 187.144531 159.230469 C 185.738281 156.121094 184.328125 152.921875 182.949219 149.71875 C 186.339844 148.25 189.6875 146.574219 192.90625 144.746094 Z M 198.304688 154.4375 C 199.960938 157.5 201.558594 160.539062 203.0625 163.480469 C 199.40625 165.5625 195.601562 167.464844 191.742188 169.136719 C 190.3125 166.136719 188.863281 163.023438 187.433594 159.871094 C 191.136719 158.265625 194.792969 156.4375 198.304688 154.4375 Z M 198.601562 153.457031 C 196.964844 150.449219 195.257812 147.402344 193.527344 144.386719 C 196.6875 142.558594 199.710938 140.582031 202.527344 138.503906 C 204.582031 141.320312 206.550781 144.195312 208.386719 147.058594 C 205.328125 149.316406 202.039062 151.46875 198.601562 153.457031 Z M 195.867188 128.890625 C 193.695312 126.3125 191.472656 123.832031 189.246094 121.503906 C 191.191406 120.035156 192.988281 118.507812 194.585938 116.949219 C 197.246094 118.90625 199.875 121.046875 202.414062 123.316406 C 200.457031 125.222656 198.253906 127.097656 195.867188 128.890625 Z M 166.730469 132.085938 C 166.210938 128.921875 165.808594 125.839844 165.539062 122.917969 C 167.300781 122.394531 169.089844 121.753906 170.863281 121.003906 C 171.808594 123.683594 172.855469 126.527344 173.972656 129.472656 C 171.574219 130.492188 169.136719 131.371094 166.730469 132.085938 Z M 164.921875 123.09375 C 165.1875 126.023438 165.582031 129.109375 166.089844 132.269531 C 164.914062 132.605469 163.726562 132.90625 162.554688 133.164062 C 161.304688 133.441406 160.074219 133.667969 158.886719 133.84375 C 158.980469 130.542969 159.234375 127.3125 159.648438 124.234375 C 160.550781 124.101562 161.484375 123.929688 162.421875 123.722656 C 163.242188 123.542969 164.082031 123.332031 164.921875 123.09375 Z M 158.871094 134.546875 C 160.105469 134.367188 161.382812 134.132812 162.679688 133.847656 C 163.839844 133.589844 165.023438 133.292969 166.203125 132.957031 C 166.726562 136.125 167.375 139.394531 168.125 142.679688 C 166.652344 143.097656 165.183594 143.472656 163.75 143.789062 C 162.191406 144.132812 160.648438 144.414062 159.152344 144.632812 C 158.898438 141.242188 158.804688 137.851562 158.871094 134.546875 Z M 163.890625 144.472656 C 165.335938 144.15625 166.808594 143.78125 168.28125 143.363281 C 169.050781 146.667969 169.933594 150.011719 170.902344 153.304688 C 169.214844 153.789062 167.519531 154.21875 165.863281 154.582031 C 164.050781 154.984375 162.253906 155.3125 160.523438 155.5625 C 159.929688 152.183594 159.488281 148.746094 159.207031 145.332031 C 160.726562 145.113281 162.300781 144.824219 163.890625 144.472656 Z M 182.289062 150.003906 C 183.664062 153.214844 185.070312 156.410156 186.46875 159.519531 C 182.683594 161.132812 178.847656 162.511719 175.054688 163.628906 C 173.886719 160.429688 172.789062 157.121094 171.789062 153.785156 C 175.277344 152.757812 178.808594 151.484375 182.289062 150.003906 Z M 202.671875 137.515625 C 200.628906 134.75 198.492188 132.03125 196.316406 129.425781 C 198.730469 127.613281 200.957031 125.71875 202.9375 123.789062 C 205.472656 126.085938 207.929688 128.53125 210.246094 131.0625 C 207.984375 133.269531 205.4375 135.4375 202.671875 137.515625 Z M 194.484375 116.074219 C 191.8125 114.144531 189.089844 112.382812 186.386719 110.835938 C 187.503906 109.707031 188.484375 108.566406 189.300781 107.429688 C 192.390625 108.523438 195.484375 109.859375 198.511719 111.402344 C 197.390625 112.957031 196.035156 114.527344 194.484375 116.074219 Z M 179.625 104.167969 C 180.03125 103.546875 180.355469 102.933594 180.59375 102.335938 C 183.964844 102.421875 187.390625 102.777344 190.78125 103.394531 C 190.355469 104.460938 189.75 105.5625 188.984375 106.675781 C 185.859375 105.601562 182.714844 104.757812 179.625 104.167969 Z M 188.621094 107.1875 C 187.820312 108.285156 186.863281 109.390625 185.769531 110.484375 C 183.042969 108.957031 180.324219 107.636719 177.679688 106.554688 C 178.28125 105.9375 178.816406 105.308594 179.265625 104.683594 C 182.347656 105.269531 185.492188 106.113281 188.621094 107.1875 Z M 185.3125 110.929688 C 184.191406 112.011719 182.9375 113.074219 181.582031 114.09375 C 179.371094 112.140625 177.195312 110.371094 175.097656 108.832031 C 175.867188 108.238281 176.585938 107.625 177.230469 107.003906 C 179.875 108.078125 182.589844 109.398438 185.3125 110.929688 Z M 176.65625 117.355469 C 175.050781 115.023438 173.5 112.847656 172.042969 110.882812 C 172.941406 110.351562 173.800781 109.789062 174.609375 109.199219 C 176.695312 110.738281 178.867188 112.511719 181.074219 114.472656 C 179.6875 115.488281 178.203125 116.457031 176.65625 117.355469 Z M 171.214844 120.117188 C 170.261719 117.445312 169.40625 114.925781 168.65625 112.613281 C 169.632812 112.183594 170.59375 111.703125 171.523438 111.179688 C 172.972656 113.144531 174.511719 115.324219 176.109375 117.667969 C 174.523438 118.566406 172.878906 119.386719 171.214844 120.117188 Z M 165.476562 122.226562 C 165.21875 119.300781 165.09375 116.511719 165.09375 113.925781 C 166.097656 113.625 167.109375 113.265625 168.109375 112.847656 C 168.847656 115.164062 169.695312 117.6875 170.636719 120.363281 C 168.921875 121.089844 167.1875 121.714844 165.476562 122.226562 Z M 164.503906 114.097656 C 164.496094 116.6875 164.617188 119.480469 164.863281 122.40625 C 164.011719 122.648438 163.152344 122.863281 162.3125 123.050781 C 161.449219 123.242188 160.589844 123.402344 159.746094 123.527344 C 160.1875 120.441406 160.792969 117.484375 161.546875 114.730469 C 162.070312 114.652344 162.613281 114.550781 163.160156 114.429688 C 163.609375 114.332031 164.058594 114.21875 164.503906 114.097656 Z M 159.109375 123.617188 C 157.785156 123.792969 156.507812 123.882812 155.3125 123.882812 C 155.105469 123.882812 154.898438 123.878906 154.699219 123.875 C 155.757812 120.738281 157.011719 117.730469 158.429688 114.933594 C 158.570312 114.9375 158.710938 114.941406 158.855469 114.941406 C 159.507812 114.941406 160.199219 114.898438 160.917969 114.8125 C 160.164062 117.570312 159.554688 120.53125 159.109375 123.617188 Z M 154.074219 123.847656 C 152.789062 123.777344 151.605469 123.601562 150.542969 123.316406 C 152.109375 120.242188 153.898438 117.308594 155.867188 114.582031 C 156.457031 114.742188 157.105469 114.847656 157.804688 114.902344 C 156.382812 117.707031 155.128906 120.714844 154.074219 123.847656 Z M 147.414062 121.917969 C 149.355469 119.019531 151.542969 116.265625 153.921875 113.722656 C 154.320312 113.992188 154.78125 114.21875 155.292969 114.402344 C 153.324219 117.132812 151.535156 120.074219 149.96875 123.144531 C 148.988281 122.828125 148.132812 122.417969 147.414062 121.917969 Z M 150.222656 123.953125 C 151.3125 124.257812 152.53125 124.453125 153.84375 124.53125 C 152.828125 127.648438 151.992188 130.917969 151.359375 134.257812 C 149.523438 134.160156 147.835938 133.898438 146.335938 133.480469 C 147.402344 130.203125 148.710938 127 150.222656 123.953125 Z M 152.976562 134.996094 C 154.632812 134.996094 156.394531 134.875 158.21875 134.636719 C 158.144531 137.941406 158.230469 141.332031 158.480469 144.726562 C 156.234375 145.027344 154.066406 145.179688 152.035156 145.179688 C 151.578125 145.179688 151.128906 145.171875 150.6875 145.15625 C 150.871094 141.734375 151.269531 138.316406 151.867188 134.980469 C 152.230469 134.992188 152.601562 134.996094 152.976562 134.996094 Z M 186.761719 160.160156 C 188.199219 163.339844 189.644531 166.457031 191.0625 169.429688 C 187.097656 171.117188 183.085938 172.5625 179.121094 173.726562 C 177.785156 170.71875 176.5 167.546875 175.296875 164.289062 C 179.101562 163.167969 182.953125 161.78125 186.761719 160.160156 Z M 203.378906 164.105469 C 204.089844 165.5 204.785156 166.890625 205.460938 168.261719 C 206.21875 169.800781 206.933594 171.285156 207.609375 172.710938 C 203.949219 174.792969 200.144531 176.699219 196.285156 178.371094 C 195.570312 176.964844 194.835938 175.492188 194.078125 173.953125 C 193.402344 172.582031 192.722656 171.183594 192.042969 169.769531 C 195.90625 168.09375 199.714844 166.191406 203.378906 164.105469 Z M 214.269531 157.039062 C 215.011719 158.414062 215.71875 159.792969 216.382812 161.136719 C 217.132812 162.664062 217.839844 164.179688 218.484375 165.648438 C 215.285156 168.011719 211.847656 170.261719 208.253906 172.339844 C 207.582031 170.921875 206.875 169.449219 206.121094 167.921875 C 205.441406 166.539062 204.742188 165.140625 204.023438 163.734375 C 207.621094 161.65625 211.066406 159.402344 214.269531 157.039062 Z M 208.964844 146.628906 C 207.125 143.765625 205.152344 140.894531 203.089844 138.082031 C 205.878906 135.992188 208.441406 133.808594 210.722656 131.585938 C 213.046875 134.160156 215.246094 136.839844 217.261719 139.558594 C 214.78125 141.976562 211.996094 144.355469 208.964844 146.628906 Z M 202.894531 122.84375 C 200.355469 120.578125 197.71875 118.441406 195.054688 116.488281 C 196.628906 114.914062 198 113.3125 199.140625 111.726562 C 202.148438 113.289062 205.097656 115.0625 207.921875 117.003906 C 206.527344 118.949219 204.835938 120.910156 202.894531 122.84375 Z M 189.664062 106.914062 C 190.441406 105.769531 191.054688 104.628906 191.488281 103.523438 C 194.832031 104.167969 198.171875 105.070312 201.425781 106.207031 C 200.828125 107.726562 199.976562 109.296875 198.882812 110.878906 C 195.859375 109.34375 192.757812 108.011719 189.664062 106.914062 Z M 149.648438 123.78125 C 148.128906 126.832031 146.820312 130.03125 145.75 133.304688 C 144.339844 132.855469 143.113281 132.261719 142.09375 131.53125 C 143.484375 128.414062 145.140625 125.378906 147.023438 122.507812 C 147.765625 123.023438 148.648438 123.453125 149.648438 123.78125 Z M 151.230469 134.949219 C 150.628906 138.285156 150.226562 141.707031 150.035156 145.128906 C 147.734375 145.007812 145.621094 144.675781 143.75 144.144531 C 144.292969 140.78125 145.09375 137.417969 146.121094 134.148438 C 147.65625 134.578125 149.371094 134.847656 151.230469 134.949219 Z M 166.019531 155.273438 C 167.691406 154.902344 169.402344 154.46875 171.101562 153.984375 C 172.097656 157.320312 173.1875 160.632812 174.351562 163.832031 C 172.511719 164.359375 170.664062 164.828125 168.855469 165.226562 C 166.863281 165.664062 164.890625 166.027344 162.988281 166.300781 C 162.058594 163.050781 161.273438 159.675781 160.648438 156.257812 C 162.386719 156.007812 164.195312 155.675781 166.019531 155.273438 Z M 179.410156 174.367188 C 183.386719 173.195312 187.402344 171.746094 191.363281 170.0625 C 192.042969 171.484375 192.726562 172.890625 193.40625 174.273438 C 194.160156 175.800781 194.890625 177.265625 195.605469 178.664062 C 191.644531 180.347656 187.628906 181.792969 183.664062 182.957031 C 182.902344 181.566406 182.132812 180.082031 181.375 178.542969 C 180.710938 177.191406 180.050781 175.789062 179.410156 174.367188 Z M 214.859375 156.601562 C 218.03125 154.222656 220.953125 151.738281 223.546875 149.210938 C 224.300781 150.542969 225.015625 151.898438 225.675781 153.238281 C 226.433594 154.777344 227.125 156.316406 227.738281 157.816406 C 225.152344 160.34375 222.242188 162.824219 219.078125 165.203125 C 218.449219 163.769531 217.753906 162.285156 217.015625 160.785156 C 216.339844 159.410156 215.613281 158.003906 214.859375 156.601562 Z M 223.714844 148.074219 C 222.078125 145.242188 220.21875 142.402344 218.1875 139.628906 C 220.660156 137.171875 222.8125 134.671875 224.589844 132.199219 C 226.746094 134.820312 228.6875 137.554688 230.359375 140.328125 C 228.523438 142.90625 226.289062 145.511719 223.714844 148.074219 Z M 217.769531 139.058594 C 215.75 136.34375 213.546875 133.667969 211.21875 131.097656 C 213.484375 128.847656 215.453125 126.558594 217.082031 124.289062 C 219.617188 126.617188 221.988281 129.089844 224.132812 131.644531 C 222.371094 134.113281 220.230469 136.605469 217.769531 139.058594 Z M 210.742188 130.574219 C 208.421875 128.050781 205.960938 125.609375 203.417969 123.3125 C 205.382812 121.359375 207.089844 119.371094 208.5 117.402344 C 211.320312 119.375 214.027344 121.53125 216.554688 123.808594 C 214.945312 126.0625 212.992188 128.335938 210.742188 130.574219 Z M 190.996094 102.828125 C 187.601562 102.214844 184.171875 101.859375 180.796875 101.773438 C 180.96875 101.21875 181.0625 100.6875 181.078125 100.183594 C 183.351562 99.941406 185.667969 99.816406 187.957031 99.816406 C 189.148438 99.816406 190.355469 99.851562 191.542969 99.917969 C 191.535156 100.828125 191.351562 101.804688 190.996094 102.828125 Z M 169.898438 102.445312 C 169.898438 102.433594 169.898438 102.421875 169.902344 102.410156 C 173.308594 101.40625 176.828125 100.6875 180.371094 100.265625 C 180.347656 100.734375 180.246094 101.234375 180.070312 101.757812 C 179.765625 101.753906 179.457031 101.75 179.152344 101.75 C 176.023438 101.75 172.910156 101.984375 169.898438 102.445312 Z M 179.855469 102.324219 C 179.613281 102.878906 179.292969 103.453125 178.898438 104.035156 C 175.761719 103.472656 172.660156 103.171875 169.671875 103.132812 C 169.691406 103.097656 169.707031 103.058594 169.726562 103.023438 C 172.742188 102.554688 175.859375 102.316406 179 102.316406 C 179.285156 102.316406 179.566406 102.320312 179.855469 102.324219 Z M 178.527344 104.550781 C 178.089844 105.128906 177.582031 105.710938 177.007812 106.289062 C 174.335938 105.234375 171.710938 104.417969 169.1875 103.855469 C 169.238281 103.796875 169.285156 103.734375 169.332031 103.675781 C 172.308594 103.699219 175.402344 103.996094 178.527344 104.550781 Z M 176.550781 106.730469 C 175.941406 107.308594 175.265625 107.878906 174.542969 108.425781 C 172.4375 106.910156 170.398438 105.609375 168.46875 104.5625 C 168.566406 104.480469 168.65625 104.398438 168.746094 104.316406 C 171.257812 104.867188 173.878906 105.679688 176.550781 106.730469 Z M 174.050781 108.789062 C 173.289062 109.339844 172.480469 109.863281 171.648438 110.351562 C 170.195312 108.414062 168.828125 106.683594 167.582031 105.199219 C 167.722656 105.113281 167.863281 105.019531 167.992188 104.925781 C 169.910156 105.96875 171.945312 107.265625 174.050781 108.789062 Z M 168.457031 111.984375 C 167.722656 109.683594 167.097656 107.582031 166.597656 105.730469 C 166.769531 105.652344 166.9375 105.570312 167.097656 105.480469 C 168.332031 106.964844 169.6875 108.699219 171.132812 110.648438 C 170.265625 111.132812 169.371094 111.582031 168.457031 111.984375 Z M 165.097656 113.238281 C 165.125 110.65625 165.289062 108.269531 165.582031 106.128906 C 165.75 106.074219 165.917969 106.015625 166.085938 105.949219 C 166.578125 107.8125 167.191406 109.917969 167.914062 112.21875 C 166.976562 112.609375 166.035156 112.953125 165.097656 113.238281 Z M 165.003906 106.285156 C 164.710938 108.4375 164.542969 110.832031 164.511719 113.410156 C 164.03125 113.546875 163.546875 113.667969 163.066406 113.773438 C 162.621094 113.871094 162.175781 113.957031 161.746094 114.027344 C 162.535156 111.265625 163.488281 108.691406 164.578125 106.371094 C 164.695312 106.351562 164.8125 106.328125 164.929688 106.300781 C 164.957031 106.296875 164.980469 106.289062 165.003906 106.285156 Z M 161.113281 114.117188 C 160.351562 114.214844 159.613281 114.265625 158.925781 114.265625 C 158.875 114.265625 158.824219 114.265625 158.773438 114.265625 C 160.246094 111.445312 161.902344 108.816406 163.703125 106.441406 C 163.703125 106.441406 163.867188 106.441406 163.945312 106.4375 C 162.855469 108.773438 161.90625 111.355469 161.113281 114.117188 Z M 158.140625 114.246094 C 157.480469 114.207031 156.863281 114.117188 156.304688 113.980469 C 158.339844 111.226562 160.582031 108.667969 162.972656 106.363281 C 163.003906 106.371094 163.035156 106.378906 163.066406 106.382812 C 161.265625 108.777344 159.609375 111.417969 158.140625 114.246094 Z M 155.722656 113.816406 C 155.230469 113.652344 154.792969 113.449219 154.414062 113.203125 C 156.878906 110.628906 159.5625 108.257812 162.402344 106.148438 C 162.40625 106.152344 162.40625 106.152344 162.410156 106.15625 C 160.011719 108.472656 157.765625 111.050781 155.722656 113.816406 Z M 145.535156 133.972656 C 144.5 137.238281 143.695312 140.597656 143.140625 143.960938 C 141.367188 143.398438 139.828125 142.648438 138.558594 141.726562 C 139.371094 138.5 140.460938 135.292969 141.808594 132.183594 C 142.855469 132.921875 144.109375 133.519531 145.535156 133.972656 Z M 150.652344 145.859375 C 151.101562 145.875 151.5625 145.882812 152.03125 145.882812 C 154.078125 145.882812 156.265625 145.730469 158.535156 145.429688 C 158.804688 148.84375 159.242188 152.28125 159.832031 155.660156 C 157.25 156.003906 154.761719 156.175781 152.425781 156.175781 C 151.878906 156.175781 151.339844 156.167969 150.808594 156.148438 C 150.546875 152.753906 150.492188 149.296875 150.652344 145.859375 Z M 152.453125 156.882812 C 154.816406 156.882812 157.339844 156.707031 159.953125 156.355469 C 160.570312 159.769531 161.351562 163.144531 162.273438 166.398438 C 159.464844 166.773438 156.753906 166.964844 154.214844 166.964844 C 153.597656 166.964844 152.988281 166.953125 152.390625 166.929688 C 151.675781 163.675781 151.160156 160.289062 150.867188 156.855469 C 151.386719 156.875 151.914062 156.882812 152.453125 156.882812 Z M 169.023438 165.90625 C 170.847656 165.503906 172.71875 165.03125 174.59375 164.496094 C 175.789062 167.75 177.074219 170.925781 178.40625 173.933594 C 176.496094 174.480469 174.570312 174.96875 172.683594 175.382812 C 170.59375 175.847656 168.523438 176.222656 166.527344 176.507812 C 165.277344 173.492188 164.152344 170.289062 163.183594 166.980469 C 165.082031 166.707031 167.042969 166.34375 169.023438 165.90625 Z M 172.863281 176.054688 C 174.789062 175.632812 176.75 175.132812 178.695312 174.574219 C 179.351562 176.035156 180.023438 177.464844 180.699219 178.835938 C 181.433594 180.332031 182.1875 181.785156 182.941406 183.167969 C 181.042969 183.707031 179.128906 184.195312 177.25 184.609375 C 175.15625 185.070312 173.078125 185.449219 171.070312 185.738281 C 170.253906 184.335938 169.457031 182.847656 168.699219 181.3125 C 168.039062 179.96875 167.402344 178.578125 166.804688 177.167969 C 168.773438 176.882812 170.808594 176.507812 172.863281 176.054688 Z M 195.914062 179.273438 C 197.226562 181.832031 198.488281 184.210938 199.671875 186.355469 C 195.878906 187.964844 192.039062 189.347656 188.246094 190.460938 C 186.832031 188.410156 185.402344 186.09375 184 183.566406 C 187.953125 182.402344 191.960938 180.957031 195.914062 179.273438 Z M 207.902344 173.332031 C 209.125 175.933594 210.226562 178.390625 211.183594 180.648438 C 207.679688 182.644531 204.035156 184.464844 200.347656 186.0625 C 199.164062 183.917969 197.902344 181.535156 196.597656 178.980469 C 200.445312 177.308594 204.246094 175.410156 207.902344 173.332031 Z M 218.761719 166.289062 C 219.902344 168.945312 220.859375 171.496094 221.605469 173.875 C 218.546875 176.136719 215.257812 178.292969 211.824219 180.28125 C 210.867188 178.019531 209.765625 175.5625 208.546875 172.960938 C 212.132812 170.886719 215.566406 168.644531 218.761719 166.289062 Z M 224.074219 148.699219 C 226.648438 146.140625 228.890625 143.542969 230.742188 140.96875 C 231.503906 142.269531 232.21875 143.589844 232.863281 144.898438 C 233.625 146.449219 234.308594 148.011719 234.894531 149.554688 C 233.066406 152.128906 230.839844 154.726562 228.277344 157.28125 C 227.679688 155.828125 227.011719 154.347656 226.285156 152.875 C 225.601562 151.488281 224.859375 150.085938 224.074219 148.699219 Z M 211.445312 110.679688 C 210.714844 112.558594 209.65625 114.503906 208.300781 116.46875 C 205.472656 114.53125 202.519531 112.761719 199.511719 111.203125 C 200.617188 109.589844 201.484375 107.992188 202.085938 106.441406 C 205.308594 107.605469 208.464844 109.007812 211.46875 110.617188 Z M 188.074219 99.238281 C 185.738281 99.238281 183.378906 99.367188 181.058594 99.621094 C 181.015625 99.183594 180.910156 98.773438 180.738281 98.394531 C 184.089844 97.652344 187.5 97.199219 190.878906 97.046875 C 191.246094 97.738281 191.460938 98.503906 191.527344 99.332031 C 190.378906 99.269531 189.21875 99.238281 188.074219 99.238281 Z M 153.960938 112.867188 C 153.644531 112.597656 153.390625 112.292969 153.199219 111.957031 C 155.859375 109.734375 158.742188 107.710938 161.777344 105.941406 C 159 108.023438 156.375 110.347656 153.960938 112.867188 Z M 152.65625 112.417969 C 152.867188 112.773438 153.140625 113.09375 153.472656 113.378906 C 151.089844 115.917969 148.898438 118.667969 146.949219 121.566406 C 146.304688 121.035156 145.800781 120.425781 145.445312 119.742188 C 147.609375 117.121094 150.035156 114.660156 152.65625 112.417969 Z M 150.132812 156.117188 C 147.46875 155.980469 145.019531 155.59375 142.851562 154.972656 C 142.859375 151.625 143.125 148.21875 143.640625 144.839844 C 145.539062 145.375 147.675781 145.707031 149.996094 145.832031 C 149.832031 149.265625 149.878906 152.726562 150.132812 156.117188 Z M 154.257812 167.660156 C 156.84375 167.660156 159.605469 167.464844 162.46875 167.078125 C 163.429688 170.382812 164.546875 173.585938 165.796875 176.609375 C 162.871094 177 160.054688 177.199219 157.410156 177.199219 C 156.753906 177.199219 156.105469 177.1875 155.472656 177.160156 C 154.296875 174.144531 153.3125 170.941406 152.550781 167.632812 C 153.109375 167.652344 153.679688 167.660156 154.257812 167.660156 Z M 177.4375 185.261719 C 179.355469 184.839844 181.316406 184.339844 183.277344 183.777344 C 184.675781 186.296875 186.101562 188.613281 187.519531 190.671875 C 185.703125 191.1875 183.886719 191.648438 182.121094 192.035156 C 180.101562 192.480469 178.105469 192.847656 176.183594 193.121094 C 174.53125 191.132812 172.9375 188.859375 171.441406 186.363281 C 173.394531 186.078125 175.410156 185.710938 177.4375 185.261719 Z M 199.988281 186.925781 C 201.113281 188.945312 202.171875 190.753906 203.136719 192.3125 C 199.671875 193.785156 196.164062 195.046875 192.699219 196.0625 C 191.367188 194.640625 190.003906 192.945312 188.640625 191.019531 C 192.410156 189.910156 196.222656 188.53125 199.988281 186.925781 Z M 211.4375 181.253906 C 212.332031 183.382812 213.097656 185.335938 213.714844 187.074219 C 210.507812 188.898438 207.175781 190.566406 203.800781 192.027344 C 202.835938 190.464844 201.785156 188.652344 200.664062 186.636719 C 204.332031 185.046875 207.953125 183.234375 211.4375 181.253906 Z M 228.007812 158.492188 C 229.074219 161.199219 229.902344 163.847656 230.46875 166.371094 C 228.003906 168.785156 225.226562 171.15625 222.207031 173.429688 C 221.457031 171.046875 220.5 168.496094 219.355469 165.84375 C 222.511719 163.480469 225.421875 161.007812 228.007812 158.492188 Z M 228.464844 123.839844 C 227.550781 126.1875 226.230469 128.617188 224.539062 131.066406 C 222.386719 128.515625 220.011719 126.046875 217.472656 123.730469 C 219.074219 121.425781 220.320312 119.132812 221.183594 116.917969 C 223.84375 118.988281 226.316406 121.25 228.539062 123.640625 Z M 220.558594 116.609375 C 219.714844 118.769531 218.503906 121.003906 216.945312 123.253906 C 214.410156 120.980469 211.699219 118.832031 208.878906 116.867188 C 210.261719 114.863281 211.34375 112.875 212.089844 110.953125 C 215.085938 112.59375 217.949219 114.449219 220.609375 116.472656 Z M 201.640625 105.625 C 198.386719 104.496094 195.042969 103.597656 191.695312 102.957031 C 192.050781 101.90625 192.238281 100.902344 192.25 99.960938 C 195.675781 100.1875 199.089844 100.695312 202.40625 101.464844 C 202.410156 102.761719 202.152344 104.160156 201.640625 105.625 Z M 192.238281 99.375 C 192.179688 98.53125 191.980469 97.742188 191.632812 97.019531 C 192.238281 97 192.84375 96.992188 193.449219 96.992188 C 196.136719 96.992188 198.824219 97.183594 201.445312 97.5625 C 201.984375 98.550781 202.300781 99.652344 202.386719 100.84375 C 199.0625 100.085938 195.652344 99.59375 192.238281 99.375 Z M 152.960938 111.429688 C 152.835938 111.066406 152.773438 110.675781 152.773438 110.261719 C 155.484375 108.445312 158.414062 106.835938 161.496094 105.476562 C 158.480469 107.230469 155.613281 109.226562 152.960938 111.429688 Z M 146.554688 122.15625 C 144.667969 125.023438 143.003906 128.050781 141.605469 131.160156 C 140.675781 130.402344 139.953125 129.519531 139.449219 128.527344 C 141.03125 125.667969 142.886719 122.910156 144.972656 120.320312 C 145.367188 121.007812 145.894531 121.621094 146.554688 122.15625 Z M 150.191406 156.828125 C 150.480469 160.253906 150.984375 163.640625 151.691406 166.902344 C 148.773438 166.746094 146.09375 166.324219 143.722656 165.636719 C 143.175781 162.414062 142.882812 159.074219 142.855469 155.695312 C 145.046875 156.3125 147.511719 156.691406 150.191406 156.828125 Z M 151.847656 167.601562 C 152.597656 170.90625 153.570312 174.105469 154.734375 177.128906 C 151.691406 176.964844 148.902344 176.519531 146.429688 175.800781 C 145.316406 172.808594 144.449219 169.644531 143.851562 166.382812 C 146.242188 167.050781 148.925781 167.460938 151.847656 167.601562 Z M 221.808594 174.535156 C 222.488281 176.796875 222.984375 178.921875 223.277344 180.859375 C 220.488281 182.925781 217.484375 184.894531 214.34375 186.710938 C 213.730469 184.976562 212.96875 183.019531 212.078125 180.886719 C 215.496094 178.910156 218.765625 176.777344 221.808594 174.535156 Z M 235.175781 150.300781 C 236.175781 153.050781 236.898438 155.792969 237.320312 158.457031 C 235.585938 160.902344 233.472656 163.371094 231.039062 165.808594 C 230.457031 163.289062 229.621094 160.652344 228.550781 157.960938 C 231.105469 155.429688 233.332031 152.851562 235.175781 150.300781 Z M 239.371094 141.476562 C 238.429688 143.886719 237.082031 146.378906 235.359375 148.894531 C 234.792969 147.445312 234.148438 145.980469 233.433594 144.53125 C 232.746094 143.136719 231.984375 141.730469 231.171875 140.359375 C 232.980469 137.761719 234.398438 135.183594 235.382812 132.683594 C 236.128906 133.917969 236.824219 135.1875 237.449219 136.460938 C 238.21875 138.023438 238.898438 139.617188 239.472656 141.199219 Z M 234.855469 132.21875 C 233.90625 134.65625 232.539062 137.175781 230.785156 139.71875 C 229.101562 136.953125 227.160156 134.230469 225 131.617188 C 226.746094 129.109375 228.109375 126.613281 229.050781 124.203125 C 231.273438 126.65625 233.257812 129.269531 234.949219 131.972656 Z M 211.691406 110.011719 C 208.679688 108.414062 205.523438 107.015625 202.300781 105.859375 C 202.824219 104.378906 203.089844 102.957031 203.105469 101.628906 C 206.386719 102.429688 209.59375 103.492188 212.640625 104.792969 C 212.660156 106.417969 212.339844 108.171875 211.691406 110.011719 Z M 169.957031 101.257812 C 172.855469 99.640625 175.859375 98.292969 178.894531 97.246094 C 179.226562 97.480469 179.507812 97.75 179.730469 98.050781 C 176.417969 98.839844 173.136719 99.917969 169.957031 101.257812 Z M 169.359375 100.972656 C 171.828125 99.167969 174.402344 97.632812 177.019531 96.40625 C 177.480469 96.527344 177.898438 96.683594 178.273438 96.875 C 175.242188 97.957031 172.246094 99.332031 169.359375 100.972656 Z M 168.582031 100.871094 C 168.566406 100.871094 168.554688 100.867188 168.542969 100.867188 C 170.433594 98.988281 172.4375 97.378906 174.511719 96.078125 C 175.082031 96.085938 175.625 96.132812 176.128906 96.214844 C 173.542969 97.484375 171.007812 99.050781 168.582031 100.871094 Z M 167.832031 100.8125 C 167.765625 100.8125 167.703125 100.8125 167.636719 100.816406 C 168.808594 99.042969 170.089844 97.527344 171.453125 96.304688 C 172.144531 96.195312 172.816406 96.125 173.460938 96.09375 C 171.507812 97.402344 169.617188 98.984375 167.832031 100.8125 Z M 161.054688 105.078125 C 158.164062 106.359375 155.410156 107.859375 152.839844 109.546875 C 152.890625 109.1875 152.941406 109 153.105469 108.523438 C 153.386719 108.367188 153.664062 108.21875 153.9375 108.078125 C 156.644531 106.671875 159.164062 105.707031 161.054688 105.078125 Z M 152.117188 110.710938 C 152.152344 111.128906 152.242188 111.53125 152.394531 111.902344 C 149.78125 114.125 147.355469 116.5625 145.179688 119.160156 C 144.910156 118.449219 144.78125 117.671875 144.796875 116.839844 C 147.003906 114.609375 149.464844 112.546875 152.117188 110.710938 Z M 141.3125 131.816406 C 139.960938 134.910156 138.859375 138.105469 138.035156 141.320312 C 136.867188 140.371094 135.964844 139.261719 135.34375 138.015625 C 136.304688 135.023438 137.554688 132.070312 139.070312 129.230469 C 139.617188 130.203125 140.371094 131.070312 141.3125 131.816406 Z M 136.867188 152.972656 C 138.367188 154.019531 140.160156 154.871094 142.210938 155.507812 C 142.230469 158.878906 142.507812 162.210938 143.035156 165.425781 C 140.792969 164.710938 138.851562 163.753906 137.253906 162.574219 C 136.835938 159.449219 136.707031 156.222656 136.867188 152.972656 Z M 157.476562 177.882812 C 160.1875 177.882812 163.074219 177.675781 166.070312 177.273438 C 166.6875 178.738281 167.347656 180.183594 168.03125 181.574219 C 168.757812 183.050781 169.523438 184.484375 170.3125 185.839844 C 167.410156 186.226562 164.609375 186.421875 161.984375 186.421875 C 161.316406 186.421875 160.664062 186.410156 160.019531 186.382812 C 159.15625 184.972656 158.332031 183.476562 157.570312 181.933594 C 156.921875 180.617188 156.3125 179.25 155.75 177.855469 C 156.316406 177.875 156.890625 177.882812 157.476562 177.882812 Z M 162.066406 187.085938 C 164.78125 187.085938 167.679688 186.878906 170.679688 186.472656 C 172.160156 188.960938 173.738281 191.230469 175.382812 193.230469 C 172.640625 193.589844 169.996094 193.773438 167.515625 193.773438 C 166.863281 193.773438 166.226562 193.757812 165.597656 193.734375 C 163.746094 191.773438 162.011719 189.53125 160.441406 187.058594 C 160.976562 187.078125 161.515625 187.085938 162.066406 187.085938 Z M 176.671875 193.699219 C 178.507812 193.429688 180.402344 193.078125 182.3125 192.65625 C 184.15625 192.25 186.039062 191.769531 187.910156 191.234375 C 189.261719 193.148438 190.617188 194.84375 191.949219 196.277344 C 190.324219 196.742188 188.695312 197.152344 187.097656 197.503906 C 185.246094 197.914062 183.410156 198.246094 181.636719 198.5 C 179.941406 197.171875 178.273438 195.558594 176.671875 193.699219 Z M 193.183594 196.570312 C 196.601562 195.554688 200.058594 194.304688 203.472656 192.851562 C 204.371094 194.277344 205.195312 195.496094 205.929688 196.472656 C 202.933594 197.746094 199.894531 198.835938 196.890625 199.714844 C 195.699219 198.925781 194.453125 197.871094 193.183594 196.570312 Z M 206.582031 196.195312 C 205.855469 195.222656 205.035156 194.003906 204.136719 192.566406 C 207.46875 191.117188 210.761719 189.472656 213.925781 187.675781 C 214.484375 189.28125 214.910156 190.695312 215.195312 191.886719 C 212.414062 193.472656 209.519531 194.921875 206.582031 196.195312 Z M 223.898438 180.398438 C 223.59375 178.453125 223.09375 176.332031 222.410156 174.085938 C 225.40625 171.84375 228.167969 169.5 230.628906 167.113281 C 231.125 169.515625 231.386719 171.824219 231.402344 173.980469 C 229.164062 176.171875 226.640625 178.332031 223.898438 180.398438 Z M 241.585938 150.746094 C 240.707031 153.007812 239.449219 155.34375 237.847656 157.703125 C 237.390625 155.058594 236.652344 152.355469 235.640625 149.640625 C 237.414062 147.101562 238.8125 144.574219 239.796875 142.125 C 240.730469 144.886719 241.371094 147.6875 241.699219 150.457031 Z M 228.789062 122.957031 C 226.558594 120.582031 224.085938 118.339844 221.421875 116.28125 C 222.183594 114.164062 222.578125 112.136719 222.601562 110.246094 C 225.269531 112.078125 227.742188 114.132812 229.960938 116.355469 C 229.996094 118.40625 229.601562 120.625 228.789062 122.957031 Z M 220.84375 115.839844 C 218.179688 113.824219 215.3125 111.980469 212.316406 110.347656 C 212.972656 108.503906 213.3125 106.734375 213.328125 105.089844 C 216.355469 106.425781 219.246094 108.007812 221.929688 109.792969 C 221.957031 111.671875 221.59375 113.703125 220.84375 115.839844 Z M 203.089844 101.007812 C 203.027344 99.8125 202.746094 98.699219 202.253906 97.6875 C 205.402344 98.191406 208.484375 98.972656 211.425781 100.011719 C 212.113281 101.246094 212.511719 102.625 212.613281 104.117188 C 209.5625 102.835938 206.363281 101.792969 203.089844 101.007812 Z M 193.5 96.414062 C 192.777344 96.414062 192.050781 96.425781 191.324219 96.457031 C 190.9375 95.824219 190.425781 95.257812 189.804688 94.761719 C 191.554688 94.566406 193.3125 94.46875 195.039062 94.46875 C 196.257812 94.46875 197.480469 94.515625 198.683594 94.613281 C 199.65625 95.269531 200.449219 96.046875 201.046875 96.917969 C 198.570312 96.582031 196.035156 96.414062 193.5 96.414062 Z M 190.535156 96.488281 C 187.175781 96.664062 183.789062 97.128906 180.457031 97.882812 C 180.242188 97.554688 179.976562 97.253906 179.65625 96.988281 C 182.699219 95.988281 185.800781 95.277344 188.878906 94.875 C 189.554688 95.335938 190.113281 95.878906 190.535156 96.488281 Z M 170.4375 96.492188 C 169.183594 97.722656 168.007812 99.203125 166.933594 100.90625 C 166.855469 100.917969 166.777344 100.933594 166.695312 100.953125 C 166.640625 100.964844 166.585938 100.976562 166.527344 100.992188 C 166.921875 99.4375 167.425781 98.132812 168.03125 97.109375 C 168.710938 96.898438 169.402344 96.714844 170.082031 96.566406 C 170.203125 96.539062 170.320312 96.515625 170.4375 96.492188 Z M 165.921875 101.167969 C 165.75 101.226562 165.574219 101.289062 165.398438 101.359375 C 165.054688 100.121094 164.820312 99.109375 164.703125 98.351562 C 165.542969 97.980469 166.394531 97.648438 167.238281 97.363281 C 166.707031 98.40625 166.265625 99.683594 165.921875 101.167969 Z M 159.023438 101.605469 C 159.6875 101.121094 160.390625 100.652344 161.121094 100.210938 C 161.90625 100.617188 162.832031 101.269531 163.878906 102.160156 C 163.746094 102.246094 163.617188 102.339844 163.492188 102.429688 C 161.886719 101.945312 160.386719 101.667969 159.023438 101.605469 Z M 160.964844 104.484375 C 159.03125 105.117188 156.445312 106.105469 153.664062 107.546875 C 153.597656 107.582031 153.535156 107.617188 153.46875 107.652344 C 153.65625 107.246094 153.765625 107.0625 154.078125 106.566406 C 156.21875 105.679688 158.527344 104.980469 160.964844 104.484375 Z M 139.152344 127.863281 C 138.757812 126.851562 138.574219 125.742188 138.605469 124.550781 C 140.203125 122.0625 142.070312 119.691406 144.160156 117.496094 C 144.203125 118.300781 144.382812 119.058594 144.6875 119.757812 C 142.605469 122.3125 140.746094 125.039062 139.152344 127.863281 Z M 137.851562 142.050781 C 137.070312 145.257812 136.558594 148.511719 136.328125 151.726562 C 134.988281 150.628906 133.949219 149.34375 133.238281 147.90625 C 133.558594 144.890625 134.175781 141.859375 135.070312 138.882812 C 135.75 140.074219 136.683594 141.136719 137.851562 142.050781 Z M 143.164062 166.179688 C 143.742188 169.425781 144.582031 172.582031 145.667969 175.566406 C 143.351562 174.820312 141.34375 173.820312 139.691406 172.597656 C 138.636719 169.679688 137.859375 166.609375 137.382812 163.464844 C 139.007812 164.585938 140.949219 165.496094 143.164062 166.179688 Z M 155.007812 177.824219 C 155.601562 179.308594 156.25 180.769531 156.9375 182.160156 C 157.652344 183.613281 158.417969 185.019531 159.21875 186.347656 C 156.203125 186.179688 153.4375 185.730469 150.984375 185.015625 C 150.082031 183.597656 149.234375 182.085938 148.464844 180.523438 C 147.835938 179.246094 147.25 177.917969 146.726562 176.574219 C 149.203125 177.257812 151.988281 177.679688 155.007812 177.824219 Z M 167.605469 194.402344 C 170.207031 194.402344 172.984375 194.203125 175.867188 193.8125 C 177.4375 195.660156 179.074219 197.273438 180.738281 198.621094 C 178.292969 198.933594 175.9375 199.09375 173.71875 199.09375 C 173.113281 199.09375 172.519531 199.082031 171.9375 199.058594 C 169.941406 197.765625 168.023438 196.195312 166.226562 194.382812 C 166.679688 194.398438 167.140625 194.402344 167.605469 194.402344 Z M 187.289062 198.097656 C 188.980469 197.722656 190.710938 197.285156 192.433594 196.789062 C 193.671875 198.070312 194.890625 199.132812 196.070312 199.949219 C 194.726562 200.328125 193.371094 200.667969 192.035156 200.964844 C 190.414062 201.320312 188.808594 201.613281 187.257812 201.832031 C 185.605469 201.160156 183.945312 200.214844 182.320312 199.019531 C 183.9375 198.777344 185.605469 198.464844 187.289062 198.097656 Z M 206.300781 196.960938 C 206.910156 197.742188 207.457031 198.347656 207.933594 198.773438 C 205.53125 199.785156 203.097656 200.65625 200.695312 201.359375 C 199.707031 201.1875 198.65625 200.773438 197.5625 200.132812 C 200.464844 199.261719 203.402344 198.195312 206.300781 196.960938 Z M 223.375 181.5625 C 223.613281 183.371094 223.667969 185.019531 223.539062 186.46875 C 221.125 188.253906 218.53125 189.957031 215.816406 191.53125 C 215.527344 190.328125 215.105469 188.914062 214.554688 187.3125 C 217.652344 185.523438 220.617188 183.589844 223.375 181.5625 Z M 237.453125 159.347656 C 237.796875 161.878906 237.871094 164.355469 237.679688 166.722656 C 236.117188 168.925781 234.222656 171.152344 232.042969 173.34375 C 231.992188 171.199219 231.710938 168.917969 231.203125 166.550781 C 233.609375 164.167969 235.707031 161.746094 237.453125 159.347656 Z M 239.800781 140.289062 C 239.269531 138.886719 238.65625 137.480469 237.976562 136.097656 C 237.28125 134.6875 236.507812 133.285156 235.671875 131.925781 C 236.503906 129.625 236.960938 127.421875 237.027344 125.359375 C 237.699219 126.46875 238.324219 127.613281 238.894531 128.769531 C 239.675781 130.359375 240.367188 131.996094 240.925781 133.5625 C 240.980469 135.65625 240.601562 137.914062 239.800781 140.289062 Z M 235.226562 131.210938 C 233.519531 128.53125 231.53125 125.945312 229.308594 123.519531 C 230.132812 121.238281 230.570312 119.050781 230.605469 117.015625 C 232.800781 119.292969 234.753906 121.769531 236.417969 124.371094 C 236.457031 126.496094 236.058594 128.796875 235.226562 131.210938 Z M 222.589844 109.496094 C 222.519531 107.867188 222.164062 106.34375 221.523438 104.949219 C 224.011719 106.558594 226.324219 108.386719 228.371094 110.355469 C 229.25 111.890625 229.765625 113.601562 229.917969 115.460938 C 227.699219 113.289062 225.234375 111.285156 222.589844 109.496094 Z M 213.3125 104.417969 C 213.246094 102.949219 212.910156 101.578125 212.3125 100.335938 C 215.191406 101.417969 217.945312 102.753906 220.507812 104.316406 C 221.304688 105.734375 221.773438 107.320312 221.898438 109.035156 C 219.210938 107.28125 216.328125 105.726562 213.3125 104.417969 Z M 201.90625 97.042969 C 201.386719 96.179688 200.699219 95.402344 199.859375 94.722656 C 202.660156 95.023438 205.40625 95.589844 207.980469 96.382812 C 209.195312 97.191406 210.183594 98.144531 210.933594 99.226562 C 208.03125 98.242188 204.996094 97.511719 201.90625 97.042969 Z M 195.035156 93.898438 C 193.082031 93.898438 191.09375 94.023438 189.121094 94.269531 C 188.484375 93.863281 187.753906 93.515625 186.945312 93.234375 C 188.972656 92.882812 191.011719 92.703125 193.019531 92.703125 C 193.457031 92.703125 193.894531 92.710938 194.273438 92.71875 C 195.511719 93.035156 196.628906 93.457031 197.609375 93.972656 C 196.753906 93.921875 195.890625 93.898438 195.035156 93.898438 Z M 179.101562 96.585938 C 178.738281 96.363281 178.332031 96.171875 177.886719 96.011719 C 180.441406 94.882812 183.058594 94.03125 185.679688 93.480469 C 186.582031 93.714844 187.398438 94.027344 188.113281 94.40625 C 185.097656 94.851562 182.070312 95.582031 179.101562 96.585938 Z M 177.066406 95.769531 C 176.558594 95.648438 176.015625 95.566406 175.4375 95.519531 C 177.378906 94.398438 179.386719 93.53125 181.417969 92.945312 C 182.464844 92.960938 183.453125 93.046875 184.371094 93.203125 C 181.910156 93.804688 179.457031 94.667969 177.066406 95.769531 Z M 174.421875 95.476562 L 174.320312 95.476562 C 173.679688 95.476562 173 95.515625 172.296875 95.597656 C 173.554688 94.609375 174.878906 93.851562 176.214844 93.355469 C 177.351562 93.171875 178.453125 93.046875 179.503906 92.988281 C 177.773438 93.621094 176.070312 94.457031 174.421875 95.476562 Z M 164.371094 101.859375 C 163.375 100.988281 162.480469 100.320312 161.703125 99.871094 C 162.496094 99.414062 163.316406 98.988281 164.148438 98.601562 C 164.289062 99.375 164.539062 100.375 164.890625 101.585938 C 164.714844 101.671875 164.539062 101.765625 164.371094 101.859375 Z M 158.433594 102.15625 C 159.800781 102.15625 161.328125 102.390625 162.976562 102.851562 C 162.902344 102.917969 162.835938 102.984375 162.765625 103.046875 C 162.542969 103.042969 162.316406 103.042969 162.097656 103.042969 C 160.171875 103.042969 158.339844 103.21875 156.640625 103.566406 C 157.148438 103.089844 157.703125 102.617188 158.289062 102.15625 Z M 148.070312 109.167969 C 148.6875 108.363281 149.378906 107.5625 150.125 106.785156 C 151.519531 105.863281 153.09375 105.132812 154.816406 104.609375 C 154.367188 105.121094 153.964844 105.640625 153.621094 106.15625 C 151.632812 106.996094 149.773438 108.003906 148.070312 109.167969 Z M 152.5625 108.152344 L 152.554688 108.167969 C 150.148438 109.5 147.90625 111.015625 145.882812 112.683594 C 146.207031 111.988281 146.597656 111.285156 147.027344 110.613281 C 148.851562 109.207031 150.894531 107.988281 153.113281 106.984375 C 152.894531 107.378906 152.710938 107.769531 152.5625 108.152344 Z M 144.503906 114.675781 C 144.308594 115.375 144.195312 116.042969 144.160156 116.675781 C 142.125 118.761719 140.292969 121.003906 138.703125 123.363281 C 138.835938 122.425781 139.089844 121.445312 139.449219 120.457031 C 140.898438 118.390625 142.59375 116.449219 144.503906 114.675781 Z M 138.746094 128.597656 C 137.234375 131.378906 135.972656 134.277344 134.988281 137.214844 C 134.5 135.953125 134.277344 134.578125 134.3125 133.164062 C 135.277344 130.53125 136.515625 127.960938 138.003906 125.515625 C 138.066406 126.617188 138.316406 127.648438 138.746094 128.597656 Z M 133.136719 149.019531 C 133.910156 150.34375 134.964844 151.523438 136.277344 152.539062 C 136.09375 155.75 136.195312 158.945312 136.574219 162.042969 C 135.140625 160.851562 134.027344 159.460938 133.265625 157.90625 C 132.933594 154.988281 132.890625 152.003906 133.136719 149.019531 Z M 145.960938 176.351562 C 146.527344 177.84375 147.167969 179.3125 147.863281 180.722656 C 148.542969 182.109375 149.289062 183.453125 150.078125 184.734375 C 147.824219 183.988281 145.871094 183.003906 144.257812 181.804688 C 143.316406 180.359375 142.449219 178.828125 141.671875 177.25 C 141.09375 176.078125 140.558594 174.863281 140.082031 173.636719 C 141.746094 174.753906 143.71875 175.664062 145.960938 176.351562 Z M 159.640625 187.027344 C 161.175781 189.480469 162.867188 191.71875 164.683594 193.691406 C 161.851562 193.523438 159.253906 193.09375 156.949219 192.417969 C 154.957031 190.46875 153.128906 188.253906 151.511719 185.824219 C 153.949219 186.484375 156.679688 186.886719 159.640625 187.027344 Z M 165.304688 194.351562 C 167.019531 196.125 168.847656 197.6875 170.753906 198.992188 C 168.28125 198.824219 166.015625 198.4375 164.046875 197.863281 C 161.867188 196.582031 159.792969 195.050781 157.878906 193.296875 C 160.125 193.871094 162.617188 194.222656 165.304688 194.351562 Z M 173.824219 199.695312 C 176.210938 199.695312 178.765625 199.511719 181.410156 199.152344 C 182.941406 200.316406 184.507812 201.269531 186.078125 201.988281 C 184.101562 202.226562 182.191406 202.347656 180.394531 202.347656 C 179.847656 202.347656 179.308594 202.335938 178.851562 202.324219 C 176.839844 201.699219 174.859375 200.8125 172.953125 199.6875 C 173.238281 199.691406 173.824219 199.695312 173.824219 199.695312 Z M 192.226562 201.523438 C 193.710938 201.195312 195.222656 200.8125 196.71875 200.378906 C 197.679688 200.980469 198.617188 201.417969 199.515625 201.691406 C 198.597656 201.9375 197.683594 202.164062 196.785156 202.363281 C 195.445312 202.65625 194.121094 202.898438 192.890625 203.074219 C 191.40625 203.03125 189.898438 202.753906 188.390625 202.253906 C 189.644531 202.054688 190.929688 201.808594 192.226562 201.523438 Z M 206.953125 196.683594 C 209.808594 195.4375 212.625 194.03125 215.332031 192.496094 C 215.550781 193.523438 215.648438 194.355469 215.625 194.976562 C 213.355469 196.269531 210.992188 197.453125 208.597656 198.488281 C 208.140625 198.105469 207.585938 197.496094 206.953125 196.683594 Z M 215.957031 192.140625 C 218.582031 190.621094 221.097656 188.984375 223.445312 187.269531 C 223.261719 188.546875 222.917969 189.648438 222.425781 190.554688 C 220.5 191.980469 218.433594 193.339844 216.277344 194.601562 C 216.273438 193.941406 216.164062 193.117188 215.957031 192.140625 Z M 230.25 181.628906 C 229.726562 183.128906 229.027344 184.492188 228.183594 185.664062 C 226.753906 187.070312 225.160156 188.457031 223.433594 189.789062 C 223.785156 188.898438 224.027344 187.878906 224.15625 186.742188 C 226.363281 185.09375 228.40625 183.378906 230.25 181.628906 Z M 237.558594 167.90625 C 237.292969 170.101562 236.792969 172.203125 236.089844 174.128906 C 234.796875 175.957031 233.238281 177.804688 231.453125 179.632812 C 231.839844 177.949219 232.042969 176.128906 232.050781 174.203125 C 234.152344 172.121094 236 170.007812 237.558594 167.90625 Z M 241.570312 159.6875 C 240.800781 161.65625 239.722656 163.691406 238.355469 165.742188 C 238.476562 163.433594 238.355469 161.035156 237.992188 158.59375 C 239.605469 156.285156 240.894531 153.988281 241.828125 151.753906 C 242.046875 154.339844 241.996094 156.90625 241.691406 159.367188 Z M 242.132812 149.203125 C 241.742188 146.542969 241.074219 143.863281 240.140625 141.226562 C 240.894531 139.152344 241.34375 137.160156 241.476562 135.277344 C 241.996094 136.988281 242.410156 138.746094 242.710938 140.519531 C 242.863281 141.691406 242.980469 142.863281 243.054688 143.976562 C 243.007812 145.65625 242.699219 147.410156 242.132812 149.203125 Z M 239.371094 128.425781 C 238.667969 127 237.878906 125.589844 237.027344 124.234375 C 236.996094 123.363281 236.886719 122.515625 236.699219 121.6875 C 238.300781 124.691406 239.621094 127.832031 240.632812 131.039062 C 240.65625 131.160156 240.679688 131.277344 240.703125 131.394531 C 240.296875 130.394531 239.851562 129.398438 239.371094 128.425781 Z M 230.597656 116.136719 C 230.535156 114.550781 230.222656 113.054688 229.660156 111.671875 C 230.601562 112.664062 231.523438 113.734375 232.410156 114.867188 C 233.421875 116.246094 234.351562 117.632812 235.160156 118.96875 C 235.789062 120.289062 236.183594 121.699219 236.34375 123.175781 C 234.675781 120.683594 232.746094 118.320312 230.597656 116.136719 Z M 219.804688 103.226562 C 217.316406 101.789062 214.660156 100.558594 211.898438 99.5625 C 211.332031 98.613281 210.605469 97.75 209.722656 96.976562 C 211.222656 97.519531 212.714844 98.160156 214.167969 98.886719 C 215.246094 99.476562 216.367188 100.148438 217.574219 100.925781 C 218.449219 101.625 219.195312 102.398438 219.804688 103.226562 Z M 198.953125 94.066406 C 198.261719 93.617188 197.492188 93.222656 196.644531 92.886719 C 196.902344 92.917969 197.160156 92.953125 197.410156 92.984375 C 200.210938 93.488281 202.992188 94.210938 205.65625 95.132812 C 205.71875 95.160156 205.78125 95.1875 205.84375 95.214844 C 203.601562 94.652344 201.292969 94.269531 198.953125 94.066406 Z M 171.234375 95.75 C 170.839844 95.816406 170.4375 95.894531 170.023438 95.984375 C 169.53125 96.09375 169.027344 96.222656 168.527344 96.363281 C 169.019531 95.710938 169.570312 95.214844 170.148438 94.886719 C 171.164062 94.550781 172.164062 94.253906 173.113281 93.996094 L 173.421875 93.917969 C 173.617188 93.871094 173.808594 93.824219 174 93.78125 C 173.046875 94.316406 172.121094 94.976562 171.234375 95.75 Z M 164.644531 97.039062 C 165.925781 96.457031 167.238281 95.921875 168.5625 95.4375 C 168.238281 95.78125 167.933594 96.175781 167.65625 96.621094 C 166.648438 96.941406 165.632812 97.320312 164.628906 97.761719 C 164.597656 97.378906 164.617188 97.160156 164.644531 97.039062 Z M 160.277344 99.253906 C 161.492188 98.570312 162.742188 97.925781 164.011719 97.328125 C 164.007812 97.523438 164.023438 97.75 164.058594 98.015625 C 163.046875 98.476562 162.054688 98.996094 161.105469 99.558594 C 160.8125 99.421875 160.535156 99.320312 160.277344 99.253906 Z M 156.125 101.835938 C 157.179688 101.113281 158.28125 100.414062 159.414062 99.75 C 159.464844 99.742188 159.515625 99.742188 159.570312 99.742188 C 159.835938 99.742188 160.144531 99.804688 160.488281 99.929688 C 159.640625 100.457031 158.828125 101.015625 158.074219 101.59375 C 157.390625 101.617188 156.738281 101.695312 156.125 101.835938 Z M 151.761719 105.210938 C 152.050781 104.949219 152.347656 104.6875 152.65625 104.425781 C 153.25 103.945312 153.851562 103.46875 154.429688 103.039062 C 155.28125 102.601562 156.242188 102.328125 157.296875 102.214844 C 156.664062 102.742188 156.074219 103.277344 155.542969 103.820312 C 154.199219 104.167969 152.933594 104.632812 151.761719 105.210938 Z M 144.902344 113.460938 L 144.871094 113.542969 L 144.5625 113.808594 C 144.355469 113.984375 144.148438 114.160156 143.949219 114.347656 C 142.746094 115.472656 141.621094 116.683594 140.578125 117.957031 C 140.601562 117.910156 140.628906 117.863281 140.652344 117.820312 C 141.453125 116.566406 142.199219 115.480469 142.914062 114.519531 C 143.78125 113.507812 144.726562 112.550781 145.742188 111.667969 C 145.414062 112.273438 145.128906 112.871094 144.902344 113.460938 Z M 134.582031 130.949219 C 134.625 130.6875 134.671875 130.449219 134.730469 130.210938 C 135.339844 128.378906 136.058594 126.554688 136.855469 124.796875 C 137.3125 123.886719 137.8125 122.992188 138.34375 122.128906 C 138.148438 122.929688 138.03125 123.707031 137.996094 124.441406 C 136.675781 126.527344 135.53125 128.710938 134.582031 130.949219 Z M 132.105469 142.914062 C 132.179688 142.070312 132.273438 141.234375 132.382812 140.414062 C 132.71875 138.46875 133.1875 136.550781 133.785156 134.695312 C 133.894531 135.921875 134.199219 137.074219 134.6875 138.136719 C 133.789062 141 133.148438 143.917969 132.78125 146.828125 C 132.351562 145.625 132.125 144.308594 132.105469 142.914062 Z M 136.695312 162.964844 C 137.128906 166.035156 137.84375 169.035156 138.816406 171.898438 C 137.527344 170.785156 136.492188 169.492188 135.746094 168.070312 L 135.585938 167.671875 C 135.472656 167.386719 135.355469 167.105469 135.253906 166.824219 C 134.445312 164.410156 133.851562 161.949219 133.476562 159.492188 C 134.300781 160.785156 135.378906 161.949219 136.695312 162.964844 Z M 139.214844 173.011719 C 139.769531 174.515625 140.40625 175.996094 141.105469 177.421875 C 141.636719 178.5 142.214844 179.5625 142.824219 180.589844 C 142.589844 180.359375 142.363281 180.125 142.144531 179.882812 C 140.121094 177.03125 138.367188 173.996094 136.914062 170.824219 C 137.582031 171.621094 138.351562 172.351562 139.214844 173.011719 Z M 150.601562 185.5625 C 152.128906 187.921875 153.847656 190.089844 155.722656 192.023438 C 153.921875 191.390625 152.316406 190.582031 150.941406 189.621094 C 150.472656 189.210938 150.007812 188.792969 149.558594 188.375 C 147.945312 186.738281 146.472656 184.984375 145.167969 183.144531 C 146.738281 184.128906 148.558594 184.941406 150.601562 185.5625 Z M 171.742188 199.648438 C 173.328125 200.652344 174.976562 201.492188 176.65625 202.15625 C 175.949219 202.078125 175.246094 201.976562 174.558594 201.855469 C 172.40625 201.339844 170.347656 200.722656 168.449219 200.027344 C 167.628906 199.691406 166.828125 199.332031 166.058594 198.949219 C 167.816406 199.320312 169.71875 199.554688 171.742188 199.648438 Z M 208.429688 199.171875 C 208.480469 199.207031 208.53125 199.242188 208.578125 199.269531 C 206.949219 199.9375 205.246094 200.535156 203.511719 201.054688 C 205.15625 200.5 206.800781 199.867188 208.429688 199.171875 Z M 235.152344 176.320312 C 234.976562 176.683594 234.792969 177.042969 234.605469 177.394531 C 233.222656 179.582031 231.695312 181.667969 230.058594 183.609375 C 230.496094 182.714844 230.863281 181.757812 231.160156 180.75 C 232.640625 179.285156 233.976562 177.800781 235.152344 176.320312 Z M 241.300781 161.753906 C 241.1875 162.320312 241.066406 162.882812 240.925781 163.433594 C 240.226562 165.816406 239.351562 168.183594 238.335938 170.445312 C 238.003906 171.085938 237.640625 171.722656 237.257812 172.351562 C 237.757812 170.613281 238.097656 168.792969 238.269531 166.921875 C 239.484375 165.183594 240.5 163.453125 241.300781 161.753906 Z M 220.992188 103.9375 C 220.734375 103.5 220.445312 103.078125 220.125 102.667969 C 222.019531 104.042969 223.828125 105.535156 225.535156 107.128906 C 224.09375 105.984375 222.574219 104.914062 220.992188 103.9375 Z M 185.769531 92.886719 C 185.011719 92.703125 184.199219 92.566406 183.339844 92.480469 C 184.09375 92.332031 184.871094 92.214844 185.65625 92.136719 L 186.003906 92.125 C 186.511719 92.109375 187.023438 92.089844 187.539062 92.089844 C 188.605469 92.089844 189.734375 92.128906 190.949219 92.207031 C 189.226562 92.308594 187.488281 92.535156 185.769531 92.886719 Z M 146.640625 110.207031 C 146.46875 110.339844 146.296875 110.480469 146.125 110.617188 C 146.417969 110.292969 146.714844 109.972656 147.015625 109.652344 C 146.882812 109.839844 146.761719 110.023438 146.640625 110.207031 Z M 132.519531 155.941406 C 132.5 155.882812 132.484375 155.828125 132.46875 155.769531 C 132.082031 153.085938 131.882812 150.386719 131.882812 147.746094 C 131.882812 147.179688 131.894531 146.601562 131.917969 146.003906 C 132.09375 146.730469 132.335938 147.425781 132.640625 148.078125 C 132.378906 150.710938 132.335938 153.347656 132.519531 155.941406 Z M 187.136719 202.4375 C 188.144531 202.832031 189.15625 203.128906 190.160156 203.328125 C 189.210938 203.375 188.355469 203.402344 187.539062 203.402344 C 185.941406 203.402344 184.296875 203.324219 182.53125 203.164062 C 182.050781 203.089844 181.582031 203.007812 181.117188 202.910156 C 183.027344 202.882812 185.050781 202.722656 187.136719 202.4375 Z M 215.511719 195.6875 C 215.488281 195.753906 215.460938 195.820312 215.429688 195.875 C 213.417969 197.046875 211.378906 198.078125 209.359375 198.941406 C 209.292969 198.925781 209.222656 198.898438 209.148438 198.863281 C 211.3125 197.914062 213.449219 196.847656 215.511719 195.6875 Z M 215.511719 195.6875 " fill-opacity="1" fill-rule="nonzero"></path></g><g fill="#ffffff" fill-opacity="1"><g transform="translate(166.06555, 280.600425)"><g><path d="M 4.058594 0 L 4.058594 -1.289062 L 2.011719 -1.289062 L 2.011719 -2.578125 L 3.707031 -2.578125 L 3.707031 -3.867188 L 2.011719 -3.867188 L 2.011719 -5.15625 L 3.949219 -5.15625 L 3.949219 -6.445312 L 0.722656 -6.445312 L 0.722656 0 Z M 4.058594 0 "></path></g></g></g><g fill="#ffffff" fill-opacity="1"><g transform="translate(170.609533, 280.600425)"><g><path d="M 0.421875 -0.414062 C 1.296875 0.0351562 2.101562 0.0820312 2.460938 0.0546875 C 3.667969 -0.0078125 4.410156 -0.828125 4.410156 -1.902344 C 4.410156 -2.929688 3.542969 -3.507812 2.542969 -3.875 C 2.171875 -4.003906 1.855469 -4.164062 1.820312 -4.527344 C 1.792969 -4.886719 2 -5.21875 2.460938 -5.246094 C 2.660156 -5.257812 3.066406 -5.265625 3.777344 -4.976562 L 3.941406 -6.222656 C 3.109375 -6.507812 2.667969 -6.507812 2.335938 -6.492188 C 1.261719 -6.4375 0.515625 -5.609375 0.515625 -4.527344 C 0.515625 -3.445312 1.414062 -2.929688 2.425781 -2.558594 C 2.785156 -2.433594 3.066406 -2.273438 3.09375 -1.902344 C 3.128906 -1.550781 2.804688 -1.28125 2.425781 -1.253906 C 2.128906 -1.226562 1.324219 -1.246094 0.585938 -1.765625 Z M 0.421875 -0.414062 "></path></g></g></g><g fill="#ffffff" fill-opacity="1"><g transform="translate(175.378916, 280.600425)"><g><path d="M 3.074219 0 L 3.074219 -5.15625 L 4.679688 -5.15625 L 4.679688 -6.4375 L 0.179688 -6.4375 L 0.179688 -5.15625 L 1.785156 -5.15625 L 1.785156 0 Z M 3.074219 0 "></path></g></g></g><g fill="#ffffff" fill-opacity="1"><g transform="translate(180.310581, 280.600425)"><g></g></g></g><g fill="#ffffff" fill-opacity="1"><g transform="translate(182.871079, 280.600425)"><g><path d="M 2.460938 -3.824219 L 0.0546875 0 L 4.308594 0 L 4.308594 -1.308594 L 2.398438 -1.308594 L 3.667969 -3.273438 C 4.75 -4.777344 4.121094 -6.4375 2.226562 -6.535156 C 1.597656 -6.5625 0.8125 -6.3125 0.316406 -5.949219 L 0.632812 -4.707031 C 0.839844 -4.886719 1.550781 -5.257812 2.117188 -5.21875 C 2.496094 -5.203125 2.785156 -4.933594 2.785156 -4.570312 C 2.785156 -4.570312 2.804688 -4.308594 2.460938 -3.824219 Z M 2.460938 -3.824219 "></path></g></g></g><g fill="#ffffff" fill-opacity="1"><g transform="translate(187.568332, 280.600425)"><g><path d="M 2.675781 0.0898438 C 4.28125 0.0898438 4.894531 -1.398438 4.894531 -3.226562 C 4.894531 -5.058594 4.28125 -6.535156 2.675781 -6.535156 C 1.089844 -6.535156 0.46875 -5.058594 0.46875 -3.226562 C 0.46875 -1.398438 1.089844 0.0898438 2.675781 0.0898438 Z M 2.675781 -1.128906 C 1.964844 -1.128906 1.722656 -2.066406 1.722656 -3.226562 C 1.722656 -4.382812 1.964844 -5.328125 2.675781 -5.328125 C 3.40625 -5.328125 3.652344 -4.382812 3.652344 -3.226562 C 3.652344 -2.066406 3.40625 -1.128906 2.675781 -1.128906 Z M 2.675781 -1.128906 "></path></g></g></g><g fill="#ffffff" fill-opacity="1"><g transform="translate(192.95079, 280.600425)"><g><path d="M 2.460938 -3.824219 L 0.0546875 0 L 4.308594 0 L 4.308594 -1.308594 L 2.398438 -1.308594 L 3.667969 -3.273438 C 4.75 -4.777344 4.121094 -6.4375 2.226562 -6.535156 C 1.597656 -6.5625 0.8125 -6.3125 0.316406 -5.949219 L 0.632812 -4.707031 C 0.839844 -4.886719 1.550781 -5.257812 2.117188 -5.21875 C 2.496094 -5.203125 2.785156 -4.933594 2.785156 -4.570312 C 2.785156 -4.570312 2.804688 -4.308594 2.460938 -3.824219 Z M 2.460938 -3.824219 "></path></g></g></g><g fill="#ffffff" fill-opacity="1"><g transform="translate(197.648043, 280.600425)"><g><path d="M 1.460938 -2.632812 L 2.082031 -2.632812 C 2.46875 -2.632812 2.785156 -2.28125 2.792969 -1.921875 C 2.820312 -0.890625 0.957031 -1.269531 0.40625 -1.542969 L 0.261719 -0.234375 C 0.667969 -0.0625 1.621094 0.0898438 2.261719 0.0546875 C 3.515625 -0.0078125 4.191406 -0.828125 4.164062 -1.921875 C 4.15625 -2.425781 3.929688 -2.992188 3.417969 -3.289062 C 3.941406 -3.632812 4.109375 -4.046875 4.101562 -4.554688 C 4.074219 -5.652344 3.273438 -6.464844 2.109375 -6.535156 C 1.46875 -6.5625 0.820312 -6.4375 0.414062 -6.273438 L 0.613281 -5.058594 C 1.117188 -5.320312 2.695312 -5.5 2.722656 -4.554688 C 2.730469 -4.183594 2.441406 -3.949219 2.054688 -3.949219 L 1.433594 -3.949219 Z M 1.460938 -2.632812 "></path></g></g></g><g fill="#ffffff" fill-opacity="1"><g transform="translate(202.164072, 280.600425)"><g></g></g></g><g fill="#ffffff" fill-opacity="1"><g transform="translate(95.196499, 238.367894)"><g><path d="M 14.90625 0 L 20.441406 0 L 14.769531 -10.085938 C 21.949219 -12.171875 21.09375 -24.441406 12.375 -24.441406 L 2.734375 -24.441406 L 2.734375 0 L 7.625 0 L 7.625 -9.332031 L 9.980469 -9.332031 Z M 7.625 -14.085938 L 7.625 -19.554688 L 11.929688 -19.554688 C 15.246094 -19.554688 15.246094 -14.085938 11.929688 -14.085938 Z M 7.625 -14.085938 "></path></g></g></g><g fill="#ffffff" fill-opacity="1"><g transform="translate(116.149036, 238.367894)"><g><path d="M 20.273438 -8.511719 L 20.273438 -24.441406 L 15.417969 -24.441406 L 15.417969 -8.546875 C 15.417969 -3.417969 7.488281 -3.417969 7.488281 -8.546875 L 7.488281 -24.441406 L 2.597656 -24.441406 L 2.597656 -8.511719 C 2.597656 3.109375 20.273438 3.109375 20.273438 -8.511719 Z M 20.273438 -8.511719 "></path></g></g></g><g fill="#ffffff" fill-opacity="1"><g transform="translate(139.084033, 238.367894)"><g><path d="M 14.9375 -19.554688 L 14.9375 -24.441406 L 2.734375 -24.441406 L 2.734375 0 L 7.625 0 L 7.625 -9.777344 L 13.84375 -9.777344 L 13.84375 -14.664062 L 7.625 -14.664062 L 7.625 -19.554688 Z M 14.9375 -19.554688 "></path></g></g></g><g fill="#ffffff" fill-opacity="1"><g transform="translate(155.319694, 238.367894)"><g><path d="M 14.9375 -19.554688 L 14.9375 -24.441406 L 2.734375 -24.441406 L 2.734375 0 L 7.625 0 L 7.625 -9.777344 L 13.84375 -9.777344 L 13.84375 -14.664062 L 7.625 -14.664062 L 7.625 -19.554688 Z M 14.9375 -19.554688 "></path></g></g></g><g fill="#ffffff" fill-opacity="1"><g transform="translate(171.555354, 238.367894)"><g><path d="M 7.625 0 L 7.625 -24.441406 L 2.734375 -24.441406 L 2.734375 0 Z M 7.625 0 "></path></g></g></g><g fill="#ffffff" fill-opacity="1"><g transform="translate(181.946174, 238.367894)"><g><path d="M 7.625 -13.296875 L 20 0.511719 L 21.296875 0.511719 L 21.296875 -24.410156 L 16.375 -24.410156 L 16.375 -10.597656 L 4.035156 -24.957031 L 2.734375 -24.957031 L 2.734375 0 L 7.625 0 Z M 7.625 -13.296875 "></path></g></g></g><g fill="#ffffff" fill-opacity="1"><g transform="translate(206.009126, 238.367894)"><g><path d="M 10.222656 0.511719 L 11.078125 0.511719 L 15.519531 -10.425781 L 20 0.410156 L 20.886719 0.410156 L 30.871094 -24.441406 L 25.367188 -24.441406 L 20.441406 -11.964844 L 15.65625 -24.203125 L 15.417969 -24.203125 L 10.632812 -11.964844 L 5.710938 -24.441406 L 0.207031 -24.441406 Z M 10.222656 0.511719 "></path></g></g></g><g fill="#ffffff" fill-opacity="1"><g transform="translate(237.113228, 238.367894)"><g><path d="M 15.382812 0 L 15.382812 -4.886719 L 7.625 -4.886719 L 7.625 -9.777344 L 14.050781 -9.777344 L 14.050781 -14.664062 L 7.625 -14.664062 L 7.625 -19.554688 L 14.972656 -19.554688 L 14.972656 -24.441406 L 2.734375 -24.441406 L 2.734375 0 Z M 15.382812 0 "></path></g></g></g><g fill="#ffffff" fill-opacity="1"><g transform="translate(254.340119, 238.367894)"><g><path d="M 2.734375 0 L 12.410156 0 C 16.375 0 19.621094 -3.246094 19.621094 -7.351562 C 19.621094 -9.265625 18.699219 -11.144531 17.09375 -12.238281 C 18.632812 -13.296875 19.28125 -15.210938 19.347656 -17.058594 C 19.453125 -21.367188 16.75 -24.476562 12.410156 -24.476562 L 2.734375 -24.476562 Z M 7.65625 -19.589844 L 12 -19.589844 C 13.402344 -19.589844 14.253906 -18.496094 14.253906 -17.128906 C 14.253906 -15.792969 13.402344 -14.664062 12 -14.664062 L 7.65625 -14.664062 Z M 7.65625 -9.777344 L 12 -9.777344 C 13.402344 -9.777344 14.460938 -8.71875 14.460938 -7.351562 C 14.460938 -5.984375 13.402344 -4.886719 12 -4.886719 L 7.65625 -4.886719 Z M 7.65625 -9.777344 "></path></g></g></g><g fill="#ffffff" fill-opacity="1"><g transform="translate(139.871805, 262.024818)"><g><path d="M 4.066406 -9.921875 L 1.109375 -9.921875 L 1.109375 0 L 4.066406 0 C 10.671875 0 10.671875 -9.921875 4.066406 -9.921875 Z M 4.066406 -7.9375 C 7.925781 -7.9375 7.925781 -1.984375 4.066406 -1.984375 L 3.09375 -1.984375 L 3.09375 -7.9375 Z M 4.066406 -7.9375 "></path></g></g></g><g fill="#ffffff" fill-opacity="1"><g transform="translate(149.641604, 262.024818)"><g><path d="M 6.246094 0 L 6.246094 -1.984375 L 3.09375 -1.984375 L 3.09375 -3.96875 L 5.703125 -3.96875 L 5.703125 -5.953125 L 3.09375 -5.953125 L 3.09375 -7.9375 L 6.078125 -7.9375 L 6.078125 -9.921875 L 1.109375 -9.921875 L 1.109375 0 Z M 6.246094 0 "></path></g></g></g><g fill="#ffffff" fill-opacity="1"><g transform="translate(156.635894, 262.024818)"><g><path d="M 4.191406 0.207031 L 4.636719 0.207031 L 8.742188 -9.921875 L 6.453125 -9.921875 L 5.121094 -6.550781 L 4.414062 -4.566406 L 3.691406 -6.621094 L 2.375 -9.921875 L 0.0820312 -9.921875 Z M 4.191406 0.207031 "></path></g></g></g><g fill="#ffffff" fill-opacity="1"><g transform="translate(165.4759, 262.024818)"><g><path d="M 6.246094 0 L 6.246094 -1.984375 L 3.09375 -1.984375 L 3.09375 -3.96875 L 5.703125 -3.96875 L 5.703125 -5.953125 L 3.09375 -5.953125 L 3.09375 -7.9375 L 6.078125 -7.9375 L 6.078125 -9.921875 L 1.109375 -9.921875 L 1.109375 0 Z M 6.246094 0 "></path></g></g></g><g fill="#ffffff" fill-opacity="1"><g transform="translate(172.470189, 262.024818)"><g><path d="M 1.109375 -9.921875 L 1.109375 0 L 6.246094 0 L 6.246094 -1.984375 L 3.09375 -1.984375 L 3.09375 -9.921875 Z M 1.109375 -9.921875 "></path></g></g></g><g fill="#ffffff" fill-opacity="1"><g transform="translate(179.31182, 262.024818)"><g><path d="M 5.882812 0.140625 C 12.714844 0.140625 12.714844 -10.089844 5.882812 -10.089844 C -0.945312 -10.089844 -0.945312 0.140625 5.882812 0.140625 Z M 5.882812 -1.914062 C 1.914062 -1.914062 1.914062 -8.050781 5.882812 -8.050781 C 9.855469 -8.050781 9.855469 -1.914062 5.882812 -1.914062 Z M 5.882812 -1.914062 "></path></g></g></g><g fill="#ffffff" fill-opacity="1"><g transform="translate(191.066105, 262.024818)"><g><path d="M 3.09375 0 L 3.09375 -3.789062 L 5.011719 -3.789062 C 8.855469 -3.789062 8.867188 -9.910156 5.011719 -9.910156 L 1.109375 -9.910156 L 1.109375 0 Z M 3.09375 -5.71875 L 3.09375 -7.9375 L 4.84375 -7.9375 C 6.175781 -7.9375 6.175781 -5.71875 4.84375 -5.71875 Z M 3.09375 -5.71875 "></path></g></g></g><g fill="#ffffff" fill-opacity="1"><g transform="translate(199.434274, 262.024818)"><g><path d="M 5.664062 -5.71875 L 1.75 -10.074219 L 1.109375 -10.074219 L 1.109375 0 L 3.121094 0 L 3.121094 -5.539062 L 5.664062 -2.871094 L 8.203125 -5.539062 L 8.1875 0 L 10.199219 0 L 10.199219 -10.074219 L 9.578125 -10.074219 Z M 5.664062 -5.71875 "></path></g></g></g><g fill="#ffffff" fill-opacity="1"><g transform="translate(210.758362, 262.024818)"><g><path d="M 6.246094 0 L 6.246094 -1.984375 L 3.09375 -1.984375 L 3.09375 -3.96875 L 5.703125 -3.96875 L 5.703125 -5.953125 L 3.09375 -5.953125 L 3.09375 -7.9375 L 6.078125 -7.9375 L 6.078125 -9.921875 L 1.109375 -9.921875 L 1.109375 0 Z M 6.246094 0 "></path></g></g></g><g fill="#ffffff" fill-opacity="1"><g transform="translate(217.752652, 262.024818)"><g><path d="M 3.09375 -5.398438 L 8.117188 0.207031 L 8.644531 0.207031 L 8.644531 -9.910156 L 6.648438 -9.910156 L 6.648438 -4.300781 L 1.636719 -10.132812 L 1.109375 -10.132812 L 1.109375 0 L 3.09375 0 Z M 3.09375 -5.398438 "></path></g></g></g><g fill="#ffffff" fill-opacity="1"><g transform="translate(227.522451, 262.024818)"><g><path d="M 4.734375 0 L 4.734375 -7.9375 L 7.203125 -7.9375 L 7.203125 -9.910156 L 0.277344 -9.910156 L 0.277344 -7.9375 L 2.746094 -7.9375 L 2.746094 0 Z M 4.734375 0 "></path></g></g></g></svg><style>@media (prefers-color-scheme: light) { :root { filter: none; } }
</style></svg>