<svg version="1.1" id="Layer_1" xmlns="http://www.w3.org/2000/svg" xmlns:xlink="http://www.w3.org/1999/xlink" x="0px" y="0px"
	 width="100%" viewBox="0 0 1200 1200" enable-background="new 0 0 1200 1200" xml:space="preserve">
<path fill="#000000" opacity="1.000000" stroke="none" 
	d="
M633.000000,1201.000000 
	C422.000000,1201.000000 211.500000,1201.000000 1.000000,1201.000000 
	C1.000000,801.000000 1.000000,401.000000 1.000000,1.000000 
	C401.000000,1.000000 801.000000,1.000000 1201.000000,1.000000 
	C1201.000000,401.000000 1201.000000,801.000000 1201.000000,1201.000000 
	C1011.833313,1201.000000 822.666687,1201.000000 633.000000,1201.000000 
M1025.000000,636.466003 
	C1025.333374,630.214478 1025.989990,623.960144 1025.934692,617.712036 
	C1025.808350,603.458069 1025.496948,589.200867 1024.941162,574.957458 
	C1024.583008,565.777222 1024.275513,556.521973 1022.851501,547.472473 
	C1020.341431,531.520203 1017.410950,515.607056 1013.905701,499.844513 
	C1008.037903,473.458618 998.946960,448.042969 987.680969,423.547241 
	C976.641541,399.544098 963.996887,376.268219 947.912476,355.188995 
	C935.860535,339.394440 923.475830,323.776093 910.183960,309.030609 
	C900.146729,297.895844 888.851562,287.778259 877.369568,278.093231 
	C864.096191,266.897217 850.654236,255.662277 836.098145,246.287888 
	C819.018372,235.288177 800.934937,225.731827 782.787720,216.534180 
	C760.733521,205.356339 737.494019,197.164078 713.559448,190.670135 
	C685.430908,183.038254 656.835144,178.378204 627.908997,176.246414 
	C610.006653,174.927048 591.884583,175.230072 573.941528,176.237137 
	C558.549622,177.101044 543.182678,179.488892 527.968872,182.143616 
	C513.073547,184.742828 498.114655,187.638809 483.675873,192.024933 
	C466.084320,197.368774 448.917633,204.172302 431.729401,210.767258 
	C409.875061,219.152573 389.657288,230.757065 370.076233,243.466003 
	C352.630707,254.788879 335.534851,266.658234 320.493286,281.101837 
	C306.800812,294.250000 292.751862,307.176910 280.389160,321.519379 
	C266.975433,337.081146 254.744492,353.764832 243.103821,370.718628 
	C234.488602,383.266083 226.727097,396.596710 220.236145,410.357178 
	C211.570877,428.727081 204.070923,447.688171 196.917862,466.713959 
	C192.755295,477.785614 189.788269,489.373810 187.122635,500.923279 
	C184.182388,513.662415 181.970734,526.585815 179.879272,539.499756 
	C178.240356,549.619446 176.237137,559.843750 176.203674,570.027527 
	C176.120956,595.197937 174.527527,620.436951 177.990967,645.535156 
	C179.724380,658.096558 180.315628,670.925537 183.286285,683.181946 
	C188.421509,704.369019 194.372360,725.411621 201.132156,746.139404 
	C211.806183,778.869751 228.016556,808.996826 247.143982,837.530945 
	C253.714142,847.332214 260.662415,856.933655 268.107758,866.081238 
	C277.520599,877.646423 287.296265,888.957947 297.528656,899.800232 
	C304.775696,907.479187 312.869934,914.395691 320.893433,921.295105 
	C330.291260,929.376404 339.598053,937.674500 349.715820,944.780090 
	C362.596252,953.826050 375.859497,962.487732 389.668365,970.010803 
	C407.412384,979.677734 425.463074,989.013794 444.111053,996.729553 
	C466.347382,1005.929993 489.615784,1012.205750 513.253113,1017.233704 
	C534.336243,1021.718323 555.584839,1024.754028 576.998047,1025.757568 
	C595.027832,1026.602661 613.187256,1025.869141 631.231873,1024.833252 
	C645.854980,1023.993835 660.539185,1022.457031 674.929932,1019.791626 
	C691.666687,1016.691650 708.307190,1012.679749 724.628845,1007.845947 
	C739.649963,1003.397278 754.529175,998.096558 768.857300,991.779480 
	C785.156799,984.593323 801.218689,976.616394 816.563110,967.588196 
	C831.133301,959.015747 844.927856,949.025146 858.531433,938.940430 
	C869.908691,930.506226 881.068115,921.614990 891.322693,911.872314 
	C903.297607,900.495239 914.601379,888.334045 925.417297,875.838806 
	C934.531067,865.309814 942.843994,854.040588 950.956360,842.701904 
	C967.385193,819.738831 981.252075,795.201355 991.799255,769.048645 
	C999.758728,749.312378 1006.546326,729.048828 1012.768250,708.687683 
	C1016.334045,697.018799 1017.986816,684.729919 1020.027466,672.640320 
	C1022.000793,660.949585 1023.367065,649.156311 1025.000000,636.466003 
z"/>
<path fill="#FFFFFF" opacity="1.000000" stroke="none" 
	d="
M1025.000000,636.937012 
	C1023.367065,649.156311 1022.000793,660.949585 1020.027466,672.640320 
	C1017.986816,684.729919 1016.334045,697.018799 1012.768250,708.687683 
	C1006.546326,729.048828 999.758728,749.312378 991.799255,769.048645 
	C981.252075,795.201355 967.385193,819.738831 950.956360,842.701904 
	C942.843994,854.040588 934.531067,865.309814 925.417297,875.838806 
	C914.601379,888.334045 903.297607,900.495239 891.322693,911.872314 
	C881.068115,921.614990 869.908691,930.506226 858.531433,938.940430 
	C844.927856,949.025146 831.133301,959.015747 816.563110,967.588196 
	C801.218689,976.616394 785.156799,984.593323 768.857300,991.779480 
	C754.529175,998.096558 739.649963,1003.397278 724.628845,1007.845947 
	C708.307190,1012.679749 691.666687,1016.691650 674.929932,1019.791626 
	C660.539185,1022.457031 645.854980,1023.993835 631.231873,1024.833252 
	C613.187256,1025.869141 595.027832,1026.602661 576.998047,1025.757568 
	C555.584839,1024.754028 534.336243,1021.718323 513.253113,1017.233704 
	C489.615784,1012.205750 466.347382,1005.929993 444.111053,996.729553 
	C425.463074,989.013794 407.412384,979.677734 389.668365,970.010803 
	C375.859497,962.487732 362.596252,953.826050 349.715820,944.780090 
	C339.598053,937.674500 330.291260,929.376404 320.893433,921.295105 
	C312.869934,914.395691 304.775696,907.479187 297.528656,899.800232 
	C287.296265,888.957947 277.520599,877.646423 268.107758,866.081238 
	C260.662415,856.933655 253.714142,847.332214 247.143982,837.530945 
	C228.016556,808.996826 211.806183,778.869751 201.132156,746.139404 
	C194.372360,725.411621 188.421509,704.369019 183.286285,683.181946 
	C180.315628,670.925537 179.724380,658.096558 177.990967,645.535156 
	C174.527527,620.436951 176.120956,595.197937 176.203674,570.027527 
	C176.237137,559.843750 178.240356,549.619446 179.879272,539.499756 
	C181.970734,526.585815 184.182388,513.662415 187.122635,500.923279 
	C189.788269,489.373810 192.755295,477.785614 196.917862,466.713959 
	C204.070923,447.688171 211.570877,428.727081 220.236145,410.357178 
	C226.727097,396.596710 234.488602,383.266083 243.103821,370.718628 
	C254.744492,353.764832 266.975433,337.081146 280.389160,321.519379 
	C292.751862,307.176910 306.800812,294.250000 320.493286,281.101837 
	C335.534851,266.658234 352.630707,254.788879 370.076233,243.466003 
	C389.657288,230.757065 409.875061,219.152573 431.729401,210.767258 
	C448.917633,204.172302 466.084320,197.368774 483.675873,192.024933 
	C498.114655,187.638809 513.073547,184.742828 527.968872,182.143616 
	C543.182678,179.488892 558.549622,177.101044 573.941528,176.237137 
	C591.884583,175.230072 610.006653,174.927048 627.908997,176.246414 
	C656.835144,178.378204 685.430908,183.038254 713.559448,190.670135 
	C737.494019,197.164078 760.733521,205.356339 782.787720,216.534180 
	C800.934937,225.731827 819.018372,235.288177 836.098145,246.287888 
	C850.654236,255.662277 864.096191,266.897217 877.369568,278.093231 
	C888.851562,287.778259 900.146729,297.895844 910.183960,309.030609 
	C923.475830,323.776093 935.860535,339.394440 947.912476,355.188995 
	C963.996887,376.268219 976.641541,399.544098 987.680969,423.547241 
	C998.946960,448.042969 1008.037903,473.458618 1013.905701,499.844513 
	C1017.410950,515.607056 1020.341431,531.520203 1022.851501,547.472473 
	C1024.275513,556.521973 1024.583008,565.777222 1024.941162,574.957458 
	C1025.496948,589.200867 1025.808350,603.458069 1025.934692,617.712036 
	C1025.989990,623.960144 1025.333374,630.214478 1025.000000,636.937012 
M550.543823,189.000000 
	C545.883301,189.666611 541.188904,190.155533 536.568726,191.034042 
	C524.038635,193.416580 511.263733,195.036591 499.092285,198.659897 
	C479.928284,204.364807 461.104340,211.254898 442.272339,218.021393 
	C418.878357,226.427063 397.444489,238.797745 376.571228,252.063782 
	C358.039368,263.841705 340.205322,276.709045 324.489502,292.127380 
	C309.285034,307.044037 293.644043,321.698944 280.033234,338.003540 
	C267.256927,353.308441 256.430237,370.326263 245.565781,387.120880 
	C230.679276,410.132904 219.318268,434.993744 210.054642,460.753937 
	C203.200409,479.814148 197.050186,499.129089 193.990448,519.242188 
	C191.206985,537.539124 187.262146,555.801575 186.340637,574.204895 
	C185.094482,599.091736 185.064499,624.143921 188.990799,648.949951 
	C191.372879,663.999817 192.812683,679.261169 196.213928,694.074280 
	C202.976654,723.527344 212.959946,752.016541 226.154297,779.223511 
	C232.742355,792.808105 240.394516,805.905457 248.057892,818.933472 
	C261.440277,841.683960 277.424713,862.608704 295.508789,881.758240 
	C307.305542,894.250061 319.957855,906.025940 332.998383,917.224060 
	C344.912506,927.454956 357.548157,936.933167 370.458954,945.888000 
	C380.740326,953.019043 391.924377,958.846741 402.692474,965.278564 
	C423.595123,977.763672 446.041962,987.030151 468.961487,994.726135 
	C493.541260,1002.979675 518.735535,1009.475891 544.717651,1012.005981 
	C559.046692,1013.401306 573.373291,1015.534851 587.727234,1015.776245 
	C604.714905,1016.061890 621.752258,1014.993225 638.727295,1013.886536 
	C650.257996,1013.134766 661.950562,1012.318909 673.160950,1009.745911 
	C694.576965,1004.830750 715.970642,999.483521 736.880371,992.777649 
	C766.349548,983.326599 793.781433,969.206787 820.163513,953.023132 
	C845.399597,937.542603 868.179565,918.932251 889.627686,898.685486 
	C898.002686,890.779602 905.808899,882.163086 913.090027,873.231079 
	C924.777588,858.893616 936.513672,844.502319 946.918213,829.239990 
	C956.499329,815.185425 965.226501,800.384460 972.754883,785.134827 
	C983.103027,764.173340 992.075867,742.533997 998.567383,719.960144 
	C1004.505615,699.310303 1009.704163,678.515320 1011.976379,657.101807 
	C1013.442932,643.280640 1015.735535,629.434326 1015.743652,615.598206 
	C1015.755127,596.011108 1014.267761,576.404358 1012.895447,556.842896 
	C1012.144775,546.142944 1011.312134,535.272644 1008.759888,524.911926 
	C1003.466675,503.424774 997.615723,482.029846 990.873779,460.955414 
	C980.778442,429.398712 965.191101,400.376862 947.128601,372.711975 
	C933.388184,351.667114 917.796265,331.938019 900.219910,314.035034 
	C886.487915,300.047913 871.874023,286.774811 856.597229,274.496918 
	C839.782776,260.983215 821.576782,249.353455 802.678589,238.707855 
	C782.586609,227.389801 761.748291,217.960388 740.192993,210.053482 
	C713.336487,200.201996 685.633484,193.545547 657.235229,190.037628 
	C643.774109,188.374863 630.262817,186.706116 616.728333,186.141434 
	C594.932800,185.232101 573.140259,186.125961 550.543823,189.000000 
z"/>
<path fill="#000000" opacity="1.000000" stroke="none" 
	d="
M551.008179,189.000000 
	C573.140259,186.125961 594.932800,185.232101 616.728333,186.141434 
	C630.262817,186.706116 643.774109,188.374863 657.235229,190.037628 
	C685.633484,193.545547 713.336487,200.201996 740.192993,210.053482 
	C761.748291,217.960388 782.586609,227.389801 802.678589,238.707855 
	C821.576782,249.353455 839.782776,260.983215 856.597229,274.496918 
	C871.874023,286.774811 886.487915,300.047913 900.219910,314.035034 
	C917.796265,331.938019 933.388184,351.667114 947.128601,372.711975 
	C965.191101,400.376862 980.778442,429.398712 990.873779,460.955414 
	C997.615723,482.029846 1003.466675,503.424774 1008.759888,524.911926 
	C1011.312134,535.272644 1012.144775,546.142944 1012.895447,556.842896 
	C1014.267761,576.404358 1015.755127,596.011108 1015.743652,615.598206 
	C1015.735535,629.434326 1013.442932,643.280640 1011.976379,657.101807 
	C1009.704163,678.515320 1004.505615,699.310303 998.567383,719.960144 
	C992.075867,742.533997 983.103027,764.173340 972.754883,785.134827 
	C965.226501,800.384460 956.499329,815.185425 946.918213,829.239990 
	C936.513672,844.502319 924.777588,858.893616 913.090027,873.231079 
	C905.808899,882.163086 898.002686,890.779602 889.627686,898.685486 
	C868.179565,918.932251 845.399597,937.542603 820.163513,953.023132 
	C793.781433,969.206787 766.349548,983.326599 736.880371,992.777649 
	C715.970642,999.483521 694.576965,1004.830750 673.160950,1009.745911 
	C661.950562,1012.318909 650.257996,1013.134766 638.727295,1013.886536 
	C621.752258,1014.993225 604.714905,1016.061890 587.727234,1015.776245 
	C573.373291,1015.534851 559.046692,1013.401306 544.717651,1012.005981 
	C518.735535,1009.475891 493.541260,1002.979675 468.961487,994.726135 
	C446.041962,987.030151 423.595123,977.763672 402.692474,965.278564 
	C391.924377,958.846741 380.740326,953.019043 370.458954,945.888000 
	C357.548157,936.933167 344.912506,927.454956 332.998383,917.224060 
	C319.957855,906.025940 307.305542,894.250061 295.508789,881.758240 
	C277.424713,862.608704 261.440277,841.683960 248.057892,818.933472 
	C240.394516,805.905457 232.742355,792.808105 226.154297,779.223511 
	C212.959946,752.016541 202.976654,723.527344 196.213928,694.074280 
	C192.812683,679.261169 191.372879,663.999817 188.990799,648.949951 
	C185.064499,624.143921 185.094482,599.091736 186.340637,574.204895 
	C187.262146,555.801575 191.206985,537.539124 193.990448,519.242188 
	C197.050186,499.129089 203.200409,479.814148 210.054642,460.753937 
	C219.318268,434.993744 230.679276,410.132904 245.565781,387.120880 
	C256.430237,370.326263 267.256927,353.308441 280.033234,338.003540 
	C293.644043,321.698944 309.285034,307.044037 324.489502,292.127380 
	C340.205322,276.709045 358.039368,263.841705 376.571228,252.063782 
	C397.444489,238.797745 418.878357,226.427063 442.272339,218.021393 
	C461.104340,211.254898 479.928284,204.364807 499.092285,198.659897 
	C511.263733,195.036591 524.038635,193.416580 536.568726,191.034042 
	C541.188904,190.155533 545.883301,189.666611 551.008179,189.000000 
M595.083191,367.396179 
	C593.316711,367.619354 591.510315,367.676697 589.789795,368.090881 
	C568.398376,373.240814 550.093689,383.304291 536.382019,401.037903 
	C526.350403,414.012085 520.506592,428.713867 519.164551,444.811035 
	C517.462097,465.233551 523.098022,483.838501 535.570374,500.384094 
	C537.527893,502.980957 539.241882,503.558350 541.596680,502.690552 
	C552.554932,498.651978 563.718567,495.012268 574.287109,490.106262 
	C598.435303,478.896362 621.500244,465.641479 642.372742,449.042725 
	C655.563965,438.552429 667.912415,427.000427 680.596069,415.875793 
	C682.355469,414.332703 682.649963,412.991913 681.274902,410.332245 
	C673.659180,395.601898 661.950867,385.090546 647.854187,377.095886 
	C642.244446,373.914459 636.675171,369.872803 629.205933,374.591248 
	C625.605286,376.865814 619.812500,375.274109 617.287109,371.424469 
	C614.482117,367.148682 611.156555,366.759888 606.922119,366.965088 
	C603.266541,367.142242 599.596252,367.018036 595.083191,367.396179 
M757.000000,365.482147 
	C758.220215,356.985504 752.737854,352.875732 745.196777,350.955231 
	C735.969177,348.605164 726.903015,350.173401 718.159119,352.559875 
	C704.891785,356.180969 691.826233,360.601837 678.829163,365.125854 
	C672.707336,367.256744 666.944031,370.417755 660.842041,373.192108 
	C663.067383,375.092651 664.811890,376.834045 666.808350,378.209930 
	C668.478333,379.360870 670.506226,380.961639 672.265503,380.834900 
	C677.893921,380.429413 683.519592,379.549988 689.056274,378.414215 
	C696.685547,376.849182 704.545471,382.603363 703.823669,390.243988 
	C703.430298,394.407135 701.950439,398.849213 699.723938,402.387329 
	C692.537048,413.808075 683.630615,423.840088 673.755249,433.099487 
	C657.411072,448.424225 639.607300,461.804688 620.708679,473.725403 
	C592.618774,491.443726 563.628479,507.286102 530.276367,512.730652 
	C525.572876,513.498535 520.125000,513.279541 515.751404,511.607971 
	C510.035187,509.423126 506.967224,504.758881 510.831268,495.551910 
	C512.541748,491.476379 514.800110,487.091003 514.656372,482.920502 
	C514.494873,478.235779 511.901459,473.634888 510.112518,468.231873 
	C501.971344,475.398041 493.889160,481.870300 486.573944,489.116791 
	C477.791626,497.816620 469.269287,506.848999 461.370941,516.349670 
	C454.608978,524.483398 448.050842,533.105225 445.769409,543.801453 
	C443.530914,554.296265 444.154968,561.285034 456.132019,563.153748 
	C465.914612,564.680054 476.608459,563.834961 486.335754,561.596619 
	C515.557007,554.872681 542.408020,541.713745 569.027588,528.323730 
	C581.356567,522.122131 593.521057,515.410400 605.060425,507.860413 
	C628.666687,492.415344 652.174683,476.762817 674.985474,460.180908 
	C688.340942,450.472321 700.328003,438.869049 712.832458,428.004974 
	C726.640442,416.008392 739.078308,402.710999 749.015320,387.316925 
	C753.082153,381.016663 756.861450,374.319824 757.000000,365.482147 
M558.038025,758.786194 
	C559.087891,751.307312 560.137756,743.828430 561.249573,735.908081 
	C550.735291,735.908081 540.960693,735.908081 531.184143,735.908081 
	C531.631042,722.993652 534.966980,717.562805 554.638123,716.682739 
	C555.389038,710.000427 555.389038,710.000427 549.094116,710.000061 
	C547.260986,709.999939 545.427856,709.996765 543.594727,710.000610 
	C537.473083,710.013367 532.441711,712.159241 527.859741,716.448730 
	C522.103394,721.837830 520.891724,728.853760 519.656860,735.675293 
	C512.560059,735.675293 505.838165,735.675293 498.455811,735.675293 
	C500.066040,730.974548 500.455566,725.767761 503.242310,722.852600 
	C506.000366,719.967468 511.177551,719.394775 516.335266,717.406128 
	C516.100708,716.378052 516.199524,712.786926 515.022217,712.303467 
	C507.306366,709.134949 495.848297,713.715576 492.375763,721.362061 
	C490.355865,725.809937 489.393829,730.738281 487.718475,736.227966 
	C486.109619,737.756653 480.908936,733.136719 480.071838,738.838562 
	C479.148804,745.125793 485.681366,742.046631 487.639343,744.446533 
	C485.238403,764.286133 482.849609,784.025452 480.413635,804.154541 
	C484.368134,803.355774 489.733643,806.207886 490.849121,800.156677 
	C492.935791,788.837341 494.425415,777.402771 495.960480,765.988892 
	C496.852875,759.353455 497.194305,752.641846 498.174103,746.022278 
	C498.345001,744.867676 500.412506,743.207947 501.680054,743.136902 
	C507.302185,742.821777 512.951965,743.000366 519.077637,743.000366 
	C516.597229,763.457153 514.161560,783.544617 511.663605,804.145508 
	C515.819153,803.501831 520.238281,805.798340 521.858093,801.002686 
	C523.393677,796.456543 524.330994,791.636108 524.934937,786.860962 
	C526.770386,772.350098 528.317444,757.802795 529.982361,743.220520 
	C536.514221,743.220520 542.606750,743.220520 549.309387,743.220520 
	C547.442932,758.907043 545.609192,774.317871 543.778442,789.703979 
	C548.031494,789.703979 551.447021,789.703979 554.734863,789.703979 
	C555.846313,779.500916 556.924500,769.603088 558.038025,758.786194 
M656.939880,515.578918 
	C659.175659,513.668091 661.773376,512.047729 663.581787,509.794006 
	C669.870972,501.956024 676.868835,494.446838 681.716736,485.762817 
	C686.140747,477.838226 688.122375,468.550171 691.180420,459.863007 
	C690.600952,459.528656 690.021545,459.194305 689.442139,458.859955 
	C656.138977,485.891327 620.093506,508.837341 583.111816,530.418030 
	C584.383484,530.947693 585.411621,530.847473 586.343384,531.101196 
	C597.331909,534.093323 608.502869,533.738281 619.441101,531.662476 
	C632.756531,529.135620 645.085144,523.704163 656.939880,515.578918 
M368.000153,742.663452 
	C367.081238,750.255310 366.103760,757.840576 365.259460,765.440735 
	C364.364899,773.492981 363.596863,781.559326 362.754242,789.809082 
	C366.889282,789.809082 370.321655,789.809082 374.045715,789.809082 
	C375.456879,779.104980 376.848602,768.548279 378.199768,758.299377 
	C384.973755,756.793701 388.414368,759.952026 390.844788,765.347900 
	C392.949921,770.021667 395.594940,774.452209 397.999146,778.991394 
	C405.189850,792.567627 400.736816,789.656128 415.758575,789.974609 
	C416.012848,789.979980 416.271240,789.791626 416.985535,789.518799 
	C410.862732,778.328735 404.785400,767.221741 398.752655,756.196289 
	C411.276764,752.148193 416.238281,745.803345 417.803314,732.958862 
	C418.875488,724.159668 415.853760,715.361877 405.247467,713.421082 
	C394.504822,711.455261 383.296967,712.031616 372.253632,711.492554 
	C371.754517,715.087219 371.381775,717.804688 370.999115,720.520874 
	C370.002594,727.594604 369.001709,734.667725 368.000153,742.663452 
M810.997375,725.292053 
	C811.379761,720.294128 811.762207,715.296204 812.147644,710.259155 
	C808.040344,710.259155 804.622192,710.259155 801.300110,710.259155 
	C798.115784,736.852661 794.963318,763.180786 791.778076,789.781738 
	C795.715454,789.781738 799.142212,789.781738 802.999573,789.781738 
	C803.670227,783.278503 804.470520,776.837952 804.969482,770.374146 
	C805.741272,760.376709 809.071533,751.597473 817.253052,745.425232 
	C819.394165,743.809937 822.754150,742.601562 825.282471,742.987427 
	C829.217468,743.588013 830.353149,747.281189 829.964783,751.001831 
	C829.187012,758.452942 828.144653,765.876221 827.332520,773.324158 
	C826.737732,778.778992 826.336060,784.254883 825.847656,789.728516 
	C829.988159,789.728516 833.406982,789.728516 837.027283,789.728516 
	C837.027283,787.643616 836.859192,785.810730 837.054504,784.017456 
	C838.325684,772.347351 840.225708,760.715393 840.854553,749.013733 
	C841.569031,735.717529 831.261597,730.424988 818.805237,735.814819 
	C815.412964,737.282654 812.519165,739.902649 808.534485,742.571289 
	C809.438477,736.479919 810.200378,731.345764 810.997375,725.292053 
M426.997284,744.279236 
	C426.668030,745.362000 426.175110,746.424377 426.036865,747.531006 
	C425.309143,753.356079 424.348267,759.177856 424.085327,765.028503 
	C423.771362,772.014771 421.500824,779.351807 426.050964,785.802246 
	C427.479065,787.826782 429.647705,790.409851 431.740692,790.677185 
	C437.503540,791.413696 443.551910,791.930603 448.661591,787.844421 
	C451.204803,785.810730 453.814911,783.860596 456.837646,781.531433 
	C455.877563,790.499390 455.877563,790.499390 466.181946,789.655212 
	C468.356842,771.630310 470.546570,753.482361 472.776642,735.000000 
	C470.530823,735.000000 468.355560,735.223145 466.243378,734.953064 
	C461.969757,734.406494 461.089447,736.229431 460.844666,740.300232 
	C460.367645,748.232727 459.810059,756.334839 457.741211,763.946899 
	C455.767914,771.207336 452.019073,778.077515 444.216309,781.279663 
	C439.113678,783.373718 435.112549,781.862793 435.125214,777.247620 
	C435.144501,770.201050 435.819427,763.143188 436.480621,756.114990 
	C437.131470,749.197205 438.111908,742.310425 438.997406,735.000000 
	C436.907104,735.000000 435.070374,735.228821 433.310944,734.956970 
	C428.118927,734.154907 426.488800,736.644226 426.990387,741.364075 
	C427.060425,742.023254 426.999908,742.696228 426.997284,744.279236 
M615.035278,771.820557 
	C615.352417,771.070862 615.859497,770.344910 615.956360,769.567749 
	C616.682312,763.745117 617.995972,757.897461 617.865784,752.085754 
	C617.542847,737.669739 612.884399,730.602600 597.015442,735.163757 
	C592.482422,736.466675 588.625549,740.122192 583.988403,742.989685 
	C583.988403,740.287537 583.988403,737.750305 583.988403,735.121338 
	C580.842773,735.121338 578.214905,735.121338 574.856689,735.121338 
	C572.653931,753.264160 570.448547,771.428711 568.194031,789.998230 
	C571.108887,789.998230 574.119385,790.276306 577.029297,789.856567 
	C578.137939,789.696655 579.737244,788.026367 579.880798,786.888916 
	C580.780884,779.754944 580.800598,772.476196 582.133606,765.438965 
	C583.848816,756.384094 587.383423,748.057556 596.618164,743.881714 
	C602.242859,741.338196 605.018555,742.590881 605.899719,748.523682 
	C606.452881,752.247070 606.329773,756.161499 605.905273,759.921997 
	C604.783997,769.854065 603.333191,779.748840 601.968079,789.999878 
	C604.888916,789.999878 607.397034,789.766663 609.841858,790.060181 
	C612.762817,790.410767 613.709106,788.729858 613.946777,786.479065 
	C614.429016,781.913330 614.665039,777.321594 615.035278,771.820557 
M473.146576,351.673859 
	C476.796906,351.261078 480.559601,351.277344 484.076752,350.356079 
	C495.151184,347.455261 499.589813,334.802277 497.646759,327.063019 
	C494.680573,315.248474 483.913605,308.336670 472.794800,310.889191 
	C461.566132,313.466949 456.132233,322.557037 456.195374,331.164520 
	C456.251129,338.769043 460.927490,349.567047 473.146576,351.673859 
M702.148315,789.675842 
	C712.221924,793.935547 726.974976,790.249878 733.768005,781.601257 
	C734.450806,780.731934 734.733032,778.391296 734.194824,777.943665 
	C732.769104,776.757874 730.642212,775.385803 729.070312,775.661438 
	C727.028992,776.019470 725.387695,778.234314 723.335693,779.048767 
	C719.718079,780.484436 715.732056,782.841980 712.234253,782.364929 
	C703.467712,781.169373 701.271057,776.857422 702.248535,767.580750 
	C711.689880,764.636169 720.824890,762.242676 729.603638,758.910645 
	C737.157471,756.043396 739.114075,744.816528 732.885193,738.072571 
	C728.227356,733.029602 713.227600,732.741028 706.654053,736.859314 
	C695.058044,744.124023 687.442383,762.346252 691.315857,775.454895 
	C692.953247,780.996094 694.704834,787.171265 702.148315,789.675842 
M676.000061,758.543396 
	C676.333374,756.464661 676.757385,754.395813 676.984314,752.305542 
	C678.022217,742.746094 678.990112,733.179016 680.017029,723.618347 
	C680.303772,720.948975 681.643188,719.827332 684.544678,719.929504 
	C690.978638,720.155884 697.426147,720.000000 703.815552,720.000000 
	C703.997864,717.072937 704.147583,714.669800 704.302124,712.188843 
	C685.473267,712.188843 666.389343,712.188843 647.375000,712.188843 
	C646.894470,714.744812 646.451660,717.100281 645.914612,719.956726 
	C653.651367,719.956726 661.213623,719.956726 669.065063,719.956726 
	C666.231262,743.481018 663.458923,766.495422 660.627563,789.999939 
	C663.781311,789.999939 666.256653,789.790161 668.680969,790.052551 
	C671.775635,790.387390 672.710632,788.736023 672.999512,786.156555 
	C673.996155,777.258057 674.999329,768.360291 676.000061,758.543396 
M763.974854,782.462341 
	C761.492859,780.995544 758.608093,779.941223 756.604553,777.984558 
	C750.611572,772.131897 754.181335,750.412231 764.071716,744.908875 
	C768.860840,742.244080 774.623047,742.391968 779.068359,745.338135 
	C780.459473,746.260132 783.545593,746.371277 784.757690,745.433838 
	C786.926636,743.756165 788.072388,741.395569 785.142151,738.500610 
	C777.361572,730.813477 760.103760,732.778320 751.911255,742.097412 
	C745.483093,749.409546 742.985657,758.022766 742.050171,767.275391 
	C741.050171,777.166138 747.984009,788.831665 755.727295,790.905945 
	C766.846619,793.884460 778.048584,789.610535 785.030334,779.645325 
	C782.847473,777.163269 780.800720,774.545776 776.842896,776.661743 
	C772.800293,778.822998 768.693115,780.863281 763.974854,782.462341 
M724.007629,554.096069 
	C727.704468,559.000549 731.993103,562.532837 738.754150,562.073364 
	C744.430237,561.687683 750.871277,557.569397 752.870605,552.393250 
	C755.343628,545.990967 753.790039,540.183533 749.602234,535.263733 
	C745.901306,530.915894 737.229309,530.038391 731.988098,531.883301 
	C723.913696,534.725403 719.454102,544.658569 724.007629,554.096069 
M652.000000,341.724823 
	C652.017700,348.300507 655.513306,354.324677 659.700623,354.995819 
	C667.241577,356.204437 673.166443,353.060791 674.715149,346.661865 
	C675.850647,341.970276 674.875183,337.550842 671.437073,333.952148 
	C668.148865,330.510406 664.055115,329.476593 659.641357,331.063873 
	C655.174438,332.670288 652.830444,336.263977 652.000000,341.724823 
M625.338135,781.131470 
	C624.297546,784.801575 625.323914,788.353210 628.463867,789.842957 
	C630.901733,790.999695 634.583984,790.958435 637.186462,790.007874 
	C641.046448,788.597900 640.438660,784.433716 639.790466,781.342041 
	C639.442322,779.681641 637.251770,777.489197 635.606873,777.207947 
	C632.057617,776.601074 627.969238,776.110352 625.338135,781.131470 
z"/>
<path fill="#FFFFFF" opacity="1.000000" stroke="none" 
	d="
M595.507812,367.211609 
	C599.596252,367.018036 603.266541,367.142242 606.922119,366.965088 
	C611.156555,366.759888 614.482117,367.148682 617.287109,371.424469 
	C619.812500,375.274109 625.605286,376.865814 629.205933,374.591248 
	C636.675171,369.872803 642.244446,373.914459 647.854187,377.095886 
	C661.950867,385.090546 673.659180,395.601898 681.274902,410.332245 
	C682.649963,412.991913 682.355469,414.332703 680.596069,415.875793 
	C667.912415,427.000427 655.563965,438.552429 642.372742,449.042725 
	C621.500244,465.641479 598.435303,478.896362 574.287109,490.106262 
	C563.718567,495.012268 552.554932,498.651978 541.596680,502.690552 
	C539.241882,503.558350 537.527893,502.980957 535.570374,500.384094 
	C523.098022,483.838501 517.462097,465.233551 519.164551,444.811035 
	C520.506592,428.713867 526.350403,414.012085 536.382019,401.037903 
	C550.093689,383.304291 568.398376,373.240814 589.789795,368.090881 
	C591.510315,367.676697 593.316711,367.619354 595.507812,367.211609 
M565.011108,466.017242 
	C563.842346,468.012421 561.624695,470.074829 561.747192,471.987274 
	C561.937744,474.961548 564.534546,476.684937 567.820374,475.951569 
	C570.654663,475.319000 572.322571,473.391052 571.937256,470.444580 
	C571.490967,467.032196 569.436890,465.325897 565.011108,466.017242 
z"/>
<path fill="#FFFFFF" opacity="1.000000" stroke="none" 
	d="
M757.000000,365.934204 
	C756.861450,374.319824 753.082153,381.016663 749.015320,387.316925 
	C739.078308,402.710999 726.640442,416.008392 712.832458,428.004974 
	C700.328003,438.869049 688.340942,450.472321 674.985474,460.180908 
	C652.174683,476.762817 628.666687,492.415344 605.060425,507.860413 
	C593.521057,515.410400 581.356567,522.122131 569.027588,528.323730 
	C542.408020,541.713745 515.557007,554.872681 486.335754,561.596619 
	C476.608459,563.834961 465.914612,564.680054 456.132019,563.153748 
	C444.154968,561.285034 443.530914,554.296265 445.769409,543.801453 
	C448.050842,533.105225 454.608978,524.483398 461.370941,516.349670 
	C469.269287,506.848999 477.791626,497.816620 486.573944,489.116791 
	C493.889160,481.870300 501.971344,475.398041 510.112518,468.231873 
	C511.901459,473.634888 514.494873,478.235779 514.656372,482.920502 
	C514.800110,487.091003 512.541748,491.476379 510.831268,495.551910 
	C506.967224,504.758881 510.035187,509.423126 515.751404,511.607971 
	C520.125000,513.279541 525.572876,513.498535 530.276367,512.730652 
	C563.628479,507.286102 592.618774,491.443726 620.708679,473.725403 
	C639.607300,461.804688 657.411072,448.424225 673.755249,433.099487 
	C683.630615,423.840088 692.537048,413.808075 699.723938,402.387329 
	C701.950439,398.849213 703.430298,394.407135 703.823669,390.243988 
	C704.545471,382.603363 696.685547,376.849182 689.056274,378.414215 
	C683.519592,379.549988 677.893921,380.429413 672.265503,380.834900 
	C670.506226,380.961639 668.478333,379.360870 666.808350,378.209930 
	C664.811890,376.834045 663.067383,375.092651 660.842041,373.192108 
	C666.944031,370.417755 672.707336,367.256744 678.829163,365.125854 
	C691.826233,360.601837 704.891785,356.180969 718.159119,352.559875 
	C726.903015,350.173401 735.969177,348.605164 745.196777,350.955231 
	C752.737854,352.875732 758.220215,356.985504 757.000000,365.934204 
z"/>
<path fill="#FFFFFF" opacity="1.000000" stroke="none" 
	d="
M558.020386,759.245728 
	C556.924500,769.603088 555.846313,779.500916 554.734863,789.703979 
	C551.447021,789.703979 548.031494,789.703979 543.778442,789.703979 
	C545.609192,774.317871 547.442932,758.907043 549.309387,743.220520 
	C542.606750,743.220520 536.514221,743.220520 529.982361,743.220520 
	C528.317444,757.802795 526.770386,772.350098 524.934937,786.860962 
	C524.330994,791.636108 523.393677,796.456543 521.858093,801.002686 
	C520.238281,805.798340 515.819153,803.501831 511.663605,804.145508 
	C514.161560,783.544617 516.597229,763.457153 519.077637,743.000366 
	C512.951965,743.000366 507.302185,742.821777 501.680054,743.136902 
	C500.412506,743.207947 498.345001,744.867676 498.174103,746.022278 
	C497.194305,752.641846 496.852875,759.353455 495.960480,765.988892 
	C494.425415,777.402771 492.935791,788.837341 490.849121,800.156677 
	C489.733643,806.207886 484.368134,803.355774 480.413635,804.154541 
	C482.849609,784.025452 485.238403,764.286133 487.639343,744.446533 
	C485.681366,742.046631 479.148804,745.125793 480.071838,738.838562 
	C480.908936,733.136719 486.109619,737.756653 487.718475,736.227966 
	C489.393829,730.738281 490.355865,725.809937 492.375763,721.362061 
	C495.848297,713.715576 507.306366,709.134949 515.022217,712.303467 
	C516.199524,712.786926 516.100708,716.378052 516.335266,717.406128 
	C511.177551,719.394775 506.000366,719.967468 503.242310,722.852600 
	C500.455566,725.767761 500.066040,730.974548 498.455811,735.675293 
	C505.838165,735.675293 512.560059,735.675293 519.656860,735.675293 
	C520.891724,728.853760 522.103394,721.837830 527.859741,716.448730 
	C532.441711,712.159241 537.473083,710.013367 543.594727,710.000610 
	C545.427856,709.996765 547.260986,709.999939 549.094116,710.000061 
	C555.389038,710.000427 555.389038,710.000427 554.638123,716.682739 
	C534.966980,717.562805 531.631042,722.993652 531.184143,735.908081 
	C540.960693,735.908081 550.735291,735.908081 561.249573,735.908081 
	C560.137756,743.828430 559.087891,751.307312 558.020386,759.245728 
z"/>
<path fill="#FFFFFF" opacity="1.000000" stroke="none" 
	d="
M656.625854,515.775757 
	C645.085144,523.704163 632.756531,529.135620 619.441101,531.662476 
	C608.502869,533.738281 597.331909,534.093323 586.343384,531.101196 
	C585.411621,530.847473 584.383484,530.947693 583.111816,530.418030 
	C620.093506,508.837341 656.138977,485.891327 689.442139,458.859955 
	C690.021545,459.194305 690.600952,459.528656 691.180420,459.863007 
	C688.122375,468.550171 686.140747,477.838226 681.716736,485.762817 
	C676.868835,494.446838 669.870972,501.956024 663.581787,509.794006 
	C661.773376,512.047729 659.175659,513.668091 656.625854,515.775757 
z"/>
<path fill="#FFFFFF" opacity="1.000000" stroke="none" 
	d="
M368.001343,742.202271 
	C369.001709,734.667725 370.002594,727.594604 370.999115,720.520874 
	C371.381775,717.804688 371.754517,715.087219 372.253632,711.492554 
	C383.296967,712.031616 394.504822,711.455261 405.247467,713.421082 
	C415.853760,715.361877 418.875488,724.159668 417.803314,732.958862 
	C416.238281,745.803345 411.276764,752.148193 398.752655,756.196289 
	C404.785400,767.221741 410.862732,778.328735 416.985535,789.518799 
	C416.271240,789.791626 416.012848,789.979980 415.758575,789.974609 
	C400.736816,789.656128 405.189850,792.567627 397.999146,778.991394 
	C395.594940,774.452209 392.949921,770.021667 390.844788,765.347900 
	C388.414368,759.952026 384.973755,756.793701 378.199768,758.299377 
	C376.848602,768.548279 375.456879,779.104980 374.045715,789.809082 
	C370.321655,789.809082 366.889282,789.809082 362.754242,789.809082 
	C363.596863,781.559326 364.364899,773.492981 365.259460,765.440735 
	C366.103760,757.840576 367.081238,750.255310 368.001343,742.202271 
M380.781525,749.997375 
	C382.780731,749.998230 384.791473,750.138489 386.776978,749.973999 
	C392.900726,749.466797 398.492920,747.913818 402.728210,742.869690 
	C408.525787,735.964722 406.792389,724.425293 398.998291,721.649231 
	C395.566559,720.426880 391.661804,720.561951 387.986511,719.986755 
	C383.460571,719.278381 382.038666,721.225952 381.883789,725.676147 
	C381.657257,732.187012 380.618744,738.668091 379.983398,745.167480 
	C379.828278,746.754578 379.895386,748.363464 380.781525,749.997375 
z"/>
<path fill="#FFFFFF" opacity="1.000000" stroke="none" 
	d="
M810.979858,725.751831 
	C810.200378,731.345764 809.438477,736.479919 808.534485,742.571289 
	C812.519165,739.902649 815.412964,737.282654 818.805237,735.814819 
	C831.261597,730.424988 841.569031,735.717529 840.854553,749.013733 
	C840.225708,760.715393 838.325684,772.347351 837.054504,784.017456 
	C836.859192,785.810730 837.027283,787.643616 837.027283,789.728516 
	C833.406982,789.728516 829.988159,789.728516 825.847656,789.728516 
	C826.336060,784.254883 826.737732,778.778992 827.332520,773.324158 
	C828.144653,765.876221 829.187012,758.452942 829.964783,751.001831 
	C830.353149,747.281189 829.217468,743.588013 825.282471,742.987427 
	C822.754150,742.601562 819.394165,743.809937 817.253052,745.425232 
	C809.071533,751.597473 805.741272,760.376709 804.969482,770.374146 
	C804.470520,776.837952 803.670227,783.278503 802.999573,789.781738 
	C799.142212,789.781738 795.715454,789.781738 791.778076,789.781738 
	C794.963318,763.180786 798.115784,736.852661 801.300110,710.259155 
	C804.622192,710.259155 808.040344,710.259155 812.147644,710.259155 
	C811.762207,715.296204 811.379761,720.294128 810.979858,725.751831 
z"/>
<path fill="#FFFFFF" opacity="1.000000" stroke="none" 
	d="
M426.998566,743.821045 
	C426.999908,742.696228 427.060425,742.023254 426.990387,741.364075 
	C426.488800,736.644226 428.118927,734.154907 433.310944,734.956970 
	C435.070374,735.228821 436.907104,735.000000 438.997406,735.000000 
	C438.111908,742.310425 437.131470,749.197205 436.480621,756.114990 
	C435.819427,763.143188 435.144501,770.201050 435.125214,777.247620 
	C435.112549,781.862793 439.113678,783.373718 444.216309,781.279663 
	C452.019073,778.077515 455.767914,771.207336 457.741211,763.946899 
	C459.810059,756.334839 460.367645,748.232727 460.844666,740.300232 
	C461.089447,736.229431 461.969757,734.406494 466.243378,734.953064 
	C468.355560,735.223145 470.530823,735.000000 472.776642,735.000000 
	C470.546570,753.482361 468.356842,771.630310 466.181946,789.655212 
	C455.877563,790.499390 455.877563,790.499390 456.837646,781.531433 
	C453.814911,783.860596 451.204803,785.810730 448.661591,787.844421 
	C443.551910,791.930603 437.503540,791.413696 431.740692,790.677185 
	C429.647705,790.409851 427.479065,787.826782 426.050964,785.802246 
	C421.500824,779.351807 423.771362,772.014771 424.085327,765.028503 
	C424.348267,759.177856 425.309143,753.356079 426.036865,747.531006 
	C426.175110,746.424377 426.668030,745.362000 426.998566,743.821045 
z"/>
<path fill="#FFFFFF" opacity="1.000000" stroke="none" 
	d="
M615.018921,772.280518 
	C614.665039,777.321594 614.429016,781.913330 613.946777,786.479065 
	C613.709106,788.729858 612.762817,790.410767 609.841858,790.060181 
	C607.397034,789.766663 604.888916,789.999878 601.968079,789.999878 
	C603.333191,779.748840 604.783997,769.854065 605.905273,759.921997 
	C606.329773,756.161499 606.452881,752.247070 605.899719,748.523682 
	C605.018555,742.590881 602.242859,741.338196 596.618164,743.881714 
	C587.383423,748.057556 583.848816,756.384094 582.133606,765.438965 
	C580.800598,772.476196 580.780884,779.754944 579.880798,786.888916 
	C579.737244,788.026367 578.137939,789.696655 577.029297,789.856567 
	C574.119385,790.276306 571.108887,789.998230 568.194031,789.998230 
	C570.448547,771.428711 572.653931,753.264160 574.856689,735.121338 
	C578.214905,735.121338 580.842773,735.121338 583.988403,735.121338 
	C583.988403,737.750305 583.988403,740.287537 583.988403,742.989685 
	C588.625549,740.122192 592.482422,736.466675 597.015442,735.163757 
	C612.884399,730.602600 617.542847,737.669739 617.865784,752.085754 
	C617.995972,757.897461 616.682312,763.745117 615.956360,769.567749 
	C615.859497,770.344910 615.352417,771.070862 615.018921,772.280518 
z"/>
<path fill="#FFFFFF" opacity="1.000000" stroke="none" 
	d="
M472.843323,351.372192 
	C460.927490,349.567047 456.251129,338.769043 456.195374,331.164520 
	C456.132233,322.557037 461.566132,313.466949 472.794800,310.889191 
	C483.913605,308.336670 494.680573,315.248474 497.646759,327.063019 
	C499.589813,334.802277 495.151184,347.455261 484.076752,350.356079 
	C480.559601,351.277344 476.796906,351.261078 472.843323,351.372192 
z"/>
<path fill="#FFFFFF" opacity="1.000000" stroke="none" 
	d="
M701.866760,789.383911 
	C694.704834,787.171265 692.953247,780.996094 691.315857,775.454895 
	C687.442383,762.346252 695.058044,744.124023 706.654053,736.859314 
	C713.227600,732.741028 728.227356,733.029602 732.885193,738.072571 
	C739.114075,744.816528 737.157471,756.043396 729.603638,758.910645 
	C720.824890,762.242676 711.689880,764.636169 702.248535,767.580750 
	C701.271057,776.857422 703.467712,781.169373 712.234253,782.364929 
	C715.732056,782.841980 719.718079,780.484436 723.335693,779.048767 
	C725.387695,778.234314 727.028992,776.019470 729.070312,775.661438 
	C730.642212,775.385803 732.769104,776.757874 734.194824,777.943665 
	C734.733032,778.391296 734.450806,780.731934 733.768005,781.601257 
	C726.974976,790.249878 712.221924,793.935547 701.866760,789.383911 
M705.938904,758.022034 
	C710.927429,756.888977 716.098633,756.249207 720.854431,754.487793 
	C725.868713,752.630737 727.690674,748.283630 725.966614,744.779968 
	C724.615479,742.034241 719.140686,740.859009 715.303101,742.246704 
	C708.293762,744.781433 705.845886,751.019531 703.116272,757.024597 
	C703.069641,757.127136 704.440308,757.873962 705.938904,758.022034 
z"/>
<path fill="#FFFFFF" opacity="1.000000" stroke="none" 
	d="
M676.000061,759.002808 
	C674.999329,768.360291 673.996155,777.258057 672.999512,786.156555 
	C672.710632,788.736023 671.775635,790.387390 668.680969,790.052551 
	C666.256653,789.790161 663.781311,789.999939 660.627563,789.999939 
	C663.458923,766.495422 666.231262,743.481018 669.065063,719.956726 
	C661.213623,719.956726 653.651367,719.956726 645.914612,719.956726 
	C646.451660,717.100281 646.894470,714.744812 647.375000,712.188843 
	C666.389343,712.188843 685.473267,712.188843 704.302124,712.188843 
	C704.147583,714.669800 703.997864,717.072937 703.815552,720.000000 
	C697.426147,720.000000 690.978638,720.155884 684.544678,719.929504 
	C681.643188,719.827332 680.303772,720.948975 680.017029,723.618347 
	C678.990112,733.179016 678.022217,742.746094 676.984314,752.305542 
	C676.757385,754.395813 676.333374,756.464661 676.000061,759.002808 
z"/>
<path fill="#FFFFFF" opacity="1.000000" stroke="none" 
	d="
M764.294495,782.709412 
	C768.693115,780.863281 772.800293,778.822998 776.842896,776.661743 
	C780.800720,774.545776 782.847473,777.163269 785.030334,779.645325 
	C778.048584,789.610535 766.846619,793.884460 755.727295,790.905945 
	C747.984009,788.831665 741.050171,777.166138 742.050171,767.275391 
	C742.985657,758.022766 745.483093,749.409546 751.911255,742.097412 
	C760.103760,732.778320 777.361572,730.813477 785.142151,738.500610 
	C788.072388,741.395569 786.926636,743.756165 784.757690,745.433838 
	C783.545593,746.371277 780.459473,746.260132 779.068359,745.338135 
	C774.623047,742.391968 768.860840,742.244080 764.071716,744.908875 
	C754.181335,750.412231 750.611572,772.131897 756.604553,777.984558 
	C758.608093,779.941223 761.492859,780.995544 764.294495,782.709412 
z"/>
<path fill="#FFFFFF" opacity="1.000000" stroke="none" 
	d="
M723.925903,553.708252 
	C719.454102,544.658569 723.913696,534.725403 731.988098,531.883301 
	C737.229309,530.038391 745.901306,530.915894 749.602234,535.263733 
	C753.790039,540.183533 755.343628,545.990967 752.870605,552.393250 
	C750.871277,557.569397 744.430237,561.687683 738.754150,562.073364 
	C731.993103,562.532837 727.704468,559.000549 723.925903,553.708252 
z"/>
<path fill="#FFFFFF" opacity="1.000000" stroke="none" 
	d="
M652.000610,341.299500 
	C652.830444,336.263977 655.174438,332.670288 659.641357,331.063873 
	C664.055115,329.476593 668.148865,330.510406 671.437073,333.952148 
	C674.875183,337.550842 675.850647,341.970276 674.715149,346.661865 
	C673.166443,353.060791 667.241577,356.204437 659.700623,354.995819 
	C655.513306,354.324677 652.017700,348.300507 652.000610,341.299500 
z"/>
<path fill="#FFFFFF" opacity="1.000000" stroke="none" 
	d="
M625.643250,780.857605 
	C627.969238,776.110352 632.057617,776.601074 635.606873,777.207947 
	C637.251770,777.489197 639.442322,779.681641 639.790466,781.342041 
	C640.438660,784.433716 641.046448,788.597900 637.186462,790.007874 
	C634.583984,790.958435 630.901733,790.999695 628.463867,789.842957 
	C625.323914,788.353210 624.297546,784.801575 625.643250,780.857605 
z"/>
<path fill="#000000" opacity="1.000000" stroke="none" 
	d="
M565.421753,466.009186 
	C569.436890,465.325897 571.490967,467.032196 571.937256,470.444580 
	C572.322571,473.391052 570.654663,475.319000 567.820374,475.951569 
	C564.534546,476.684937 561.937744,474.961548 561.747192,471.987274 
	C561.624695,470.074829 563.842346,468.012421 565.421753,466.009186 
z"/>
<path fill="#000000" opacity="1.000000" stroke="none" 
	d="
M380.320923,749.979858 
	C379.895386,748.363464 379.828278,746.754578 379.983398,745.167480 
	C380.618744,738.668091 381.657257,732.187012 381.883789,725.676147 
	C382.038666,721.225952 383.460571,719.278381 387.986511,719.986755 
	C391.661804,720.561951 395.566559,720.426880 398.998291,721.649231 
	C406.792389,724.425293 408.525787,735.964722 402.728210,742.869690 
	C398.492920,747.913818 392.900726,749.466797 386.776978,749.973999 
	C384.791473,750.138489 382.780731,749.998230 380.320923,749.979858 
z"/>
<path fill="#000000" opacity="1.000000" stroke="none" 
	d="
M705.544250,758.171143 
	C704.440308,757.873962 703.069641,757.127136 703.116272,757.024597 
	C705.845886,751.019531 708.293762,744.781433 715.303101,742.246704 
	C719.140686,740.859009 724.615479,742.034241 725.966614,744.779968 
	C727.690674,748.283630 725.868713,752.630737 720.854431,754.487793 
	C716.098633,756.249207 710.927429,756.888977 705.544250,758.171143 
z"/>
</svg>