<svg version="1.1" id="Layer_1" xmlns="http://www.w3.org/2000/svg" xmlns:xlink="http://www.w3.org/1999/xlink" x="0px" y="0px"
	 width="100%" viewBox="0 0 1200 1200" enable-background="new 0 0 1200 1200" xml:space="preserve">
<path fill="#000000" opacity="1.000000" stroke="none" 
	d="
M1077.000000,1201.000000 
	C718.000000,1201.000000 359.500000,1201.000000 1.000000,1201.000000 
	C1.000000,801.000000 1.000000,401.000000 1.000000,1.000000 
	C401.000000,1.000000 801.000000,1.000000 1201.000000,1.000000 
	C1201.000000,401.000000 1201.000000,801.000000 1201.000000,1201.000000 
	C1159.833374,1201.000000 1118.666626,1201.000000 1077.000000,1201.000000 
M630.000000,629.386047 
	C630.000000,608.970398 630.000000,588.554749 630.000000,568.313843 
	C626.633301,568.313843 623.894470,568.313843 620.760010,568.313843 
	C620.760010,584.617554 620.760010,600.610474 620.760010,617.340698 
	C609.072266,602.189026 597.553650,587.958191 586.921326,573.093445 
	C583.190369,567.877319 579.361267,567.382324 574.315063,568.333496 
	C574.315063,590.735962 574.315063,612.801270 574.315063,634.679321 
	C577.710876,634.679321 580.785828,634.679321 584.258057,634.679321 
	C584.258057,618.372742 584.258057,602.384155 584.258057,585.886292 
	C595.872620,600.871887 607.348328,615.132019 618.118774,629.906250 
	C621.368347,634.363708 624.583984,635.854797 630.000000,634.623291 
	C630.000000,633.270813 630.000000,631.813538 630.000000,629.386047 
M206.962402,612.600159 
	C211.599030,619.194885 216.097183,625.895203 220.979294,632.302917 
	C222.066696,633.730103 224.431351,634.581299 226.338852,634.890686 
	C229.008530,635.323792 231.800980,635.000000 235.405029,635.000000 
	C227.994354,625.001892 221.087173,615.683044 214.376846,606.629761 
	C217.932632,603.893066 221.858795,601.494141 225.010818,598.325195 
	C233.452972,589.837708 229.210342,573.894287 217.927673,569.913269 
	C206.775085,565.978149 195.464172,569.156982 184.252258,567.825378 
	C184.252258,590.605225 184.252258,612.667236 184.252258,634.747314 
	C187.580811,634.747314 190.651474,634.747314 194.087128,634.747314 
	C194.087128,625.412659 194.087128,616.324158 194.087128,607.343201 
	C199.542770,606.122131 203.602951,607.582031 206.962402,612.600159 
M971.000000,626.457642 
	C971.000000,629.233643 971.000000,632.009583 971.000000,634.726929 
	C974.618958,634.726929 977.692627,634.726929 981.150024,634.726929 
	C981.150024,624.383423 981.150024,614.306824 981.150024,604.275391 
	C992.955261,604.275391 1004.358704,604.275391 1016.152771,604.275391 
	C1016.152771,614.623413 1016.152771,624.701843 1016.152771,634.722717 
	C1019.960571,634.722717 1023.366699,634.722717 1026.728027,634.722717 
	C1026.728027,612.374573 1026.728027,590.304749 1026.728027,568.275146 
	C1023.043762,568.275146 1019.637695,568.275146 1015.846680,568.275146 
	C1015.846680,578.287292 1015.846680,588.030090 1015.846680,597.723083 
	C1004.041626,597.723083 992.638184,597.723083 980.845459,597.723083 
	C980.845459,587.705200 980.845459,577.958191 980.845459,568.278259 
	C977.370911,568.278259 974.296936,568.278259 971.000000,568.278259 
	C971.000000,587.525635 971.000000,606.495789 971.000000,626.457642 
M319.409424,568.000000 
	C316.984955,568.000000 314.560455,568.000000 312.000000,568.000000 
	C312.000000,582.785034 311.980774,596.931458 312.008484,611.077820 
	C312.021423,617.680176 308.825714,622.769287 303.376038,625.675476 
	C298.015503,628.534119 292.052795,628.338074 286.536804,625.018982 
	C279.711884,620.912292 278.291901,614.068054 278.101074,607.081970 
	C277.747925,594.153625 278.000000,581.208740 278.000000,568.251953 
	C274.422577,568.251953 271.351044,568.251953 268.000244,568.251953 
	C268.000244,569.301636 268.000244,570.106079 268.000244,570.910522 
	C268.000275,585.071045 267.435577,599.266235 268.302917,613.373413 
	C268.611572,618.393372 271.583130,623.826904 274.773956,627.965271 
	C280.423676,635.292786 288.876251,636.219666 297.759613,636.121948 
	C312.138092,635.963806 322.111938,625.830994 322.835846,612.343628 
	C323.575867,598.556030 323.052490,584.697205 322.886414,570.871826 
	C322.874817,569.904724 321.242767,568.957031 319.409424,568.000000 
M911.481689,636.000000 
	C921.509155,636.843201 929.567810,633.175537 935.865723,625.419678 
	C930.260986,619.678040 930.464233,619.983459 924.233398,624.129333 
	C915.732788,629.785400 900.483826,628.636536 893.894531,619.017944 
	C889.761353,612.984558 889.019348,606.615784 888.901123,599.626221 
	C888.578430,580.548279 906.853699,569.348511 923.990967,578.998779 
	C930.084717,582.430237 932.094788,581.667603 934.479309,575.026917 
	C933.309265,574.167847 932.043152,573.412598 930.984436,572.433228 
	C923.129822,565.167297 901.712402,565.372253 893.518372,570.915894 
	C882.010376,578.701599 877.674622,589.431152 877.867310,603.070312 
	C878.121094,621.032471 890.313904,637.473755 911.481689,636.000000 
M817.599609,605.000000 
	C824.701477,605.000000 831.803406,605.000000 838.679688,605.000000 
	C838.679688,602.303955 838.679688,600.233093 838.679688,597.766113 
	C829.620422,597.766113 820.876709,597.766113 812.324219,597.766113 
	C812.324219,589.946716 812.324219,582.538818 812.324219,574.759338 
	C823.400513,574.759338 834.155762,574.759338 844.675415,574.759338 
	C844.675415,572.296692 844.675415,570.225708 844.675415,568.324097 
	C830.278687,568.324097 816.208313,568.324097 802.325195,568.324097 
	C802.325195,590.720093 802.325195,612.790955 802.325195,634.686462 
	C816.736145,634.686462 830.820312,634.686462 844.674988,634.686462 
	C844.674988,632.295898 844.674988,630.224976 844.674988,627.758179 
	C833.611816,627.758179 822.869690,627.758179 812.151367,627.758179 
	C812.151367,620.062561 812.151367,612.776001 812.151367,605.000000 
	C813.737793,605.000000 815.180176,605.000000 817.599609,605.000000 
M364.000000,587.500366 
	C364.000000,603.265564 364.000000,619.030762 364.000000,634.714233 
	C367.643341,634.714233 370.718018,634.714233 374.175171,634.714233 
	C374.175171,625.023499 374.175171,615.612671 374.175171,605.829102 
	C383.657562,605.829102 392.744720,605.829102 401.715576,605.829102 
	C401.715576,603.365540 401.715576,601.295471 401.715576,598.830505 
	C392.359589,598.830505 383.282379,598.830505 374.289246,598.830505 
	C374.289246,590.684326 374.289246,582.945251 374.289246,574.827271 
	C385.326172,574.827271 396.078766,574.827271 406.714783,574.827271 
	C406.714783,572.364136 406.714783,570.294067 406.714783,568.286255 
	C392.357269,568.286255 378.286804,568.286255 364.000000,568.286255 
	C364.000000,574.547485 364.000000,580.524048 364.000000,587.500366 
M443.000000,587.500366 
	C443.000000,603.265564 443.000000,619.030762 443.000000,634.714233 
	C446.643341,634.714233 449.718018,634.714233 453.175171,634.714233 
	C453.175171,625.023499 453.175171,615.612671 453.175171,605.829102 
	C462.657562,605.829102 471.744720,605.829102 480.715576,605.829102 
	C480.715576,603.365540 480.715576,601.295471 480.715576,598.830505 
	C471.359589,598.830505 462.282379,598.830505 453.289246,598.830505 
	C453.289246,590.684326 453.289246,582.945251 453.289246,574.827271 
	C464.326172,574.827271 475.078766,574.827271 485.714783,574.827271 
	C485.714783,572.364136 485.714783,570.294067 485.714783,568.286255 
	C471.357269,568.286255 457.286804,568.286255 443.000000,568.286255 
	C443.000000,574.547485 443.000000,580.524048 443.000000,587.500366 
M725.477478,576.000000 
	C728.583679,576.000000 731.689880,576.000000 735.160645,576.000000 
	C735.160645,595.967712 735.160645,615.377747 735.160645,634.718445 
	C738.634888,634.718445 741.709412,634.718445 745.165527,634.718445 
	C745.165527,615.033691 745.165527,595.627319 745.165527,575.836731 
	C752.644775,575.836731 759.731140,575.836731 766.716919,575.836731 
	C766.716919,573.027649 766.716919,570.622986 766.716919,568.276978 
	C748.687317,568.276978 730.942139,568.276978 713.282471,568.276978 
	C713.282471,570.968750 713.282471,573.375610 713.282471,576.000000 
	C717.205261,576.000000 720.849854,576.000000 725.477478,576.000000 
M533.000000,629.398438 
	C533.000000,608.975830 533.000000,588.553284 533.000000,568.326172 
	C528.947327,568.326172 525.539612,568.326172 522.324036,568.326172 
	C522.324036,590.727783 522.324036,612.802124 522.324036,634.850586 
	C525.938110,634.850586 529.226990,634.850586 533.000000,634.850586 
	C533.000000,633.263428 533.000000,631.818787 533.000000,629.398438 
M679.931458,634.603088 
	C682.922546,631.684265 683.526367,627.996216 680.006226,625.873352 
	C677.596680,624.420227 673.089661,624.098145 670.884155,625.467285 
	C669.378723,626.401855 669.114197,631.675415 670.277344,634.029297 
	C672.097046,637.711792 676.053589,636.239685 679.931458,634.603088 
z"/>
<path fill="#FFFFFF" opacity="1.000000" stroke="none" 
	d="
M630.000000,629.871155 
	C630.000000,631.813538 630.000000,633.270813 630.000000,634.623291 
	C624.583984,635.854797 621.368347,634.363708 618.118774,629.906250 
	C607.348328,615.132019 595.872620,600.871887 584.258057,585.886292 
	C584.258057,602.384155 584.258057,618.372742 584.258057,634.679321 
	C580.785828,634.679321 577.710876,634.679321 574.315063,634.679321 
	C574.315063,612.801270 574.315063,590.735962 574.315063,568.333496 
	C579.361267,567.382324 583.190369,567.877319 586.921326,573.093445 
	C597.553650,587.958191 609.072266,602.189026 620.760010,617.340698 
	C620.760010,600.610474 620.760010,584.617554 620.760010,568.313843 
	C623.894470,568.313843 626.633301,568.313843 630.000000,568.313843 
	C630.000000,588.554749 630.000000,608.970398 630.000000,629.871155 
z"/>
<path fill="#FFFFFF" opacity="1.000000" stroke="none" 
	d="
M206.728424,612.299988 
	C203.602951,607.582031 199.542770,606.122131 194.087128,607.343201 
	C194.087128,616.324158 194.087128,625.412659 194.087128,634.747314 
	C190.651474,634.747314 187.580811,634.747314 184.252258,634.747314 
	C184.252258,612.667236 184.252258,590.605225 184.252258,567.825378 
	C195.464172,569.156982 206.775085,565.978149 217.927673,569.913269 
	C229.210342,573.894287 233.452972,589.837708 225.010818,598.325195 
	C221.858795,601.494141 217.932632,603.893066 214.376846,606.629761 
	C221.087173,615.683044 227.994354,625.001892 235.405029,635.000000 
	C231.800980,635.000000 229.008530,635.323792 226.338852,634.890686 
	C224.431351,634.581299 222.066696,633.730103 220.979294,632.302917 
	C216.097183,625.895203 211.599030,619.194885 206.728424,612.299988 
M194.000000,596.376770 
	C194.000000,597.819885 194.000000,599.263062 194.000000,601.373840 
	C199.375916,600.870972 204.274551,600.748352 209.037445,599.880615 
	C214.713791,598.846375 218.955612,592.994263 218.997543,587.048462 
	C219.028503,582.658386 215.397430,577.323059 210.684448,576.366150 
	C205.339645,575.281006 199.799515,575.157959 194.000000,574.582458 
	C194.000000,582.148132 194.000000,588.773010 194.000000,596.376770 
z"/>
<path fill="#FFFFFF" opacity="1.000000" stroke="none" 
	d="
M971.000000,625.961792 
	C971.000000,606.495789 971.000000,587.525635 971.000000,568.278259 
	C974.296936,568.278259 977.370911,568.278259 980.845459,568.278259 
	C980.845459,577.958191 980.845459,587.705200 980.845459,597.723083 
	C992.638184,597.723083 1004.041626,597.723083 1015.846680,597.723083 
	C1015.846680,588.030090 1015.846680,578.287292 1015.846680,568.275146 
	C1019.637695,568.275146 1023.043762,568.275146 1026.728027,568.275146 
	C1026.728027,590.304749 1026.728027,612.374573 1026.728027,634.722717 
	C1023.366699,634.722717 1019.960571,634.722717 1016.152771,634.722717 
	C1016.152771,624.701843 1016.152771,614.623413 1016.152771,604.275391 
	C1004.358704,604.275391 992.955261,604.275391 981.150024,604.275391 
	C981.150024,614.306824 981.150024,624.383423 981.150024,634.726929 
	C977.692627,634.726929 974.618958,634.726929 971.000000,634.726929 
	C971.000000,632.009583 971.000000,629.233643 971.000000,625.961792 
z"/>
<path fill="#FFFFFF" opacity="1.000000" stroke="none" 
	d="
M319.886841,568.000122 
	C321.242767,568.957031 322.874817,569.904724 322.886414,570.871826 
	C323.052490,584.697205 323.575867,598.556030 322.835846,612.343628 
	C322.111938,625.830994 312.138092,635.963806 297.759613,636.121948 
	C288.876251,636.219666 280.423676,635.292786 274.773956,627.965271 
	C271.583130,623.826904 268.611572,618.393372 268.302917,613.373413 
	C267.435577,599.266235 268.000275,585.071045 268.000244,570.910522 
	C268.000244,570.106079 268.000244,569.301636 268.000244,568.251953 
	C271.351044,568.251953 274.422577,568.251953 278.000000,568.251953 
	C278.000000,581.208740 277.747925,594.153625 278.101074,607.081970 
	C278.291901,614.068054 279.711884,620.912292 286.536804,625.018982 
	C292.052795,628.338074 298.015503,628.534119 303.376038,625.675476 
	C308.825714,622.769287 312.021423,617.680176 312.008484,611.077820 
	C311.980774,596.931458 312.000000,582.785034 312.000000,568.000000 
	C314.560455,568.000000 316.984955,568.000000 319.886841,568.000122 
z"/>
<path fill="#FFFFFF" opacity="1.000000" stroke="none" 
	d="
M911.001099,636.000000 
	C890.313904,637.473755 878.121094,621.032471 877.867310,603.070312 
	C877.674622,589.431152 882.010376,578.701599 893.518372,570.915894 
	C901.712402,565.372253 923.129822,565.167297 930.984436,572.433228 
	C932.043152,573.412598 933.309265,574.167847 934.479248,575.026978 
	C932.094788,581.667603 930.084717,582.430237 923.990967,578.998779 
	C906.853699,569.348511 888.578430,580.548279 888.901123,599.626221 
	C889.019348,606.615784 889.761353,612.984558 893.894531,619.017944 
	C900.483826,628.636536 915.732788,629.785400 924.233398,624.129333 
	C930.464233,619.983459 930.260986,619.678040 935.865723,625.419678 
	C929.567810,633.175537 921.509155,636.843201 911.001099,636.000000 
z"/>
<path fill="#FFFFFF" opacity="1.000000" stroke="none" 
	d="
M817.111084,605.000000 
	C815.180176,605.000000 813.737793,605.000000 812.151367,605.000000 
	C812.151367,612.776001 812.151367,620.062561 812.151367,627.758179 
	C822.869690,627.758179 833.611816,627.758179 844.674988,627.758179 
	C844.674988,630.224976 844.674988,632.295898 844.674988,634.686462 
	C830.820312,634.686462 816.736145,634.686462 802.325195,634.686462 
	C802.325195,612.790955 802.325195,590.720093 802.325195,568.324097 
	C816.208313,568.324097 830.278687,568.324097 844.675415,568.324097 
	C844.675415,570.225708 844.675415,572.296692 844.675415,574.759338 
	C834.155762,574.759338 823.400513,574.759338 812.324219,574.759338 
	C812.324219,582.538818 812.324219,589.946716 812.324219,597.766113 
	C820.876709,597.766113 829.620422,597.766113 838.679688,597.766113 
	C838.679688,600.233093 838.679688,602.303955 838.679688,605.000000 
	C831.803406,605.000000 824.701477,605.000000 817.111084,605.000000 
z"/>
<path fill="#FFFFFF" opacity="1.000000" stroke="none" 
	d="
M364.000000,587.000488 
	C364.000000,580.524048 364.000000,574.547485 364.000000,568.286255 
	C378.286804,568.286255 392.357269,568.286255 406.714783,568.286255 
	C406.714783,570.294067 406.714783,572.364136 406.714783,574.827271 
	C396.078766,574.827271 385.326172,574.827271 374.289246,574.827271 
	C374.289246,582.945251 374.289246,590.684326 374.289246,598.830505 
	C383.282379,598.830505 392.359589,598.830505 401.715576,598.830505 
	C401.715576,601.295471 401.715576,603.365540 401.715576,605.829102 
	C392.744720,605.829102 383.657562,605.829102 374.175171,605.829102 
	C374.175171,615.612671 374.175171,625.023499 374.175171,634.714233 
	C370.718018,634.714233 367.643341,634.714233 364.000000,634.714233 
	C364.000000,619.030762 364.000000,603.265564 364.000000,587.000488 
z"/>
<path fill="#FFFFFF" opacity="1.000000" stroke="none" 
	d="
M443.000000,587.000488 
	C443.000000,580.524048 443.000000,574.547485 443.000000,568.286255 
	C457.286804,568.286255 471.357269,568.286255 485.714783,568.286255 
	C485.714783,570.294067 485.714783,572.364136 485.714783,574.827271 
	C475.078766,574.827271 464.326172,574.827271 453.289246,574.827271 
	C453.289246,582.945251 453.289246,590.684326 453.289246,598.830505 
	C462.282379,598.830505 471.359589,598.830505 480.715576,598.830505 
	C480.715576,601.295471 480.715576,603.365540 480.715576,605.829102 
	C471.744720,605.829102 462.657562,605.829102 453.175171,605.829102 
	C453.175171,615.612671 453.175171,625.023499 453.175171,634.714233 
	C449.718018,634.714233 446.643341,634.714233 443.000000,634.714233 
	C443.000000,619.030762 443.000000,603.265564 443.000000,587.000488 
z"/>
<path fill="#FFFFFF" opacity="1.000000" stroke="none" 
	d="
M724.985962,576.000000 
	C720.849854,576.000000 717.205261,576.000000 713.282471,576.000000 
	C713.282471,573.375610 713.282471,570.968750 713.282471,568.276978 
	C730.942139,568.276978 748.687317,568.276978 766.716919,568.276978 
	C766.716919,570.622986 766.716919,573.027649 766.716919,575.836731 
	C759.731140,575.836731 752.644775,575.836731 745.165527,575.836731 
	C745.165527,595.627319 745.165527,615.033691 745.165527,634.718445 
	C741.709412,634.718445 738.634888,634.718445 735.160645,634.718445 
	C735.160645,615.377747 735.160645,595.967712 735.160645,576.000000 
	C731.689880,576.000000 728.583679,576.000000 724.985962,576.000000 
z"/>
<path fill="#FFFFFF" opacity="1.000000" stroke="none" 
	d="
M533.000000,629.886292 
	C533.000000,631.818787 533.000000,633.263428 533.000000,634.850586 
	C529.226990,634.850586 525.938110,634.850586 522.324036,634.850586 
	C522.324036,612.802124 522.324036,590.727783 522.324036,568.326172 
	C525.539612,568.326172 528.947327,568.326172 533.000000,568.326172 
	C533.000000,588.553284 533.000000,608.975830 533.000000,629.886292 
z"/>
<path fill="#FFFFFF" opacity="1.000000" stroke="none" 
	d="
M679.614319,634.872192 
	C676.053589,636.239685 672.097046,637.711792 670.277344,634.029297 
	C669.114197,631.675415 669.378723,626.401855 670.884155,625.467285 
	C673.089661,624.098145 677.596680,624.420227 680.006226,625.873352 
	C683.526367,627.996216 682.922546,631.684265 679.614319,634.872192 
z"/>
<path fill="#000000" opacity="1.000000" stroke="none" 
	d="
M194.000000,595.887329 
	C194.000000,588.773010 194.000000,582.148132 194.000000,574.582458 
	C199.799515,575.157959 205.339645,575.281006 210.684448,576.366150 
	C215.397430,577.323059 219.028503,582.658386 218.997543,587.048462 
	C218.955612,592.994263 214.713791,598.846375 209.037445,599.880615 
	C204.274551,600.748352 199.375916,600.870972 194.000000,601.373840 
	C194.000000,599.263062 194.000000,597.819885 194.000000,595.887329 
z"/>
</svg>