<svg version="1.1" id="Layer_1" xmlns="http://www.w3.org/2000/svg" xmlns:xlink="http://www.w3.org/1999/xlink" x="0px" y="0px"
	 width="100%" viewBox="0 0 1200 1200" enable-background="new 0 0 1200 1200" xml:space="preserve">
<path fill="#000000" opacity="1.000000" stroke="none" 
	d="
M1077.000000,1201.000000 
	C718.000000,1201.000000 359.500000,1201.000000 1.000000,1201.000000 
	C1.000000,801.000000 1.000000,401.000000 1.000000,1.000000 
	C401.000000,1.000000 801.000000,1.000000 1201.000000,1.000000 
	C1201.000000,401.000000 1201.000000,801.000000 1201.000000,1201.000000 
	C1159.833374,1201.000000 1118.666626,1201.000000 1077.000000,1201.000000 
M902.432007,567.127686 
	C902.432007,567.127686 902.286621,567.347290 901.597107,567.815613 
	C890.550720,570.744141 882.896179,577.574097 879.985229,588.583679 
	C878.417603,594.512512 877.598755,601.009644 878.222290,607.067139 
	C879.373169,618.248657 884.118713,627.639832 894.973267,633.087830 
	C901.384583,636.305664 908.029541,635.971680 914.756897,635.999573 
	C922.604187,636.032043 929.078247,633.094666 934.665466,626.795715 
	C936.208008,623.118774 932.700073,622.731445 930.253418,621.042236 
	C928.889038,621.508240 927.127502,621.585632 926.227112,622.505798 
	C921.687805,627.144592 915.683350,626.963379 909.588989,627.271362 
	C908.392822,627.236511 907.196716,627.201660 905.284607,627.011169 
	C902.537903,625.637024 899.791199,624.262939 896.764526,622.296997 
	C895.211487,620.514404 893.658447,618.731750 891.993469,616.196533 
	C887.798279,609.385132 888.314148,601.708008 889.288025,594.488403 
	C890.217529,587.597107 893.871521,581.532410 900.654846,578.104675 
	C909.214050,573.779480 917.400940,574.953186 925.205322,579.827454 
	C928.165894,581.676392 930.410828,581.427856 932.578369,578.932190 
	C935.044861,576.092407 933.020752,574.082031 930.964355,572.580872 
	C928.897095,571.071777 926.408569,570.139771 923.670715,568.325806 
	C921.447205,567.939331 919.223755,567.552917 916.071533,567.036743 
	C911.567810,567.093506 907.064087,567.150269 902.432007,567.127686 
M290.921234,635.963196 
	C295.365753,635.742737 299.959686,636.167358 304.226501,635.179443 
	C316.526550,632.331726 322.764038,622.195923 322.960632,610.019714 
	C323.143524,598.691528 322.999573,587.358154 322.999512,576.027039 
	C322.999481,573.437988 322.999481,570.848938 322.999481,568.315796 
	C318.951904,568.315796 315.695648,568.315796 312.169006,568.315796 
	C312.169006,582.419495 312.169006,596.210632 312.036560,610.816467 
	C311.319427,613.863708 310.602295,616.910950 309.270782,620.265564 
	C305.847046,622.565918 302.423340,624.866211 298.397919,627.049133 
	C297.913574,627.325928 297.429199,627.602722 296.223511,627.972168 
	C295.498657,627.938721 294.773773,627.905334 293.762024,627.333008 
	C293.174866,627.277466 292.587677,627.221985 291.266663,627.010315 
	C283.706818,625.007751 279.522095,619.973999 279.020935,612.311707 
	C278.417358,603.083374 278.253204,593.823669 278.024078,584.574463 
	C277.889832,579.153381 277.999634,573.726257 277.999634,568.273926 
	C274.352783,568.273926 271.431519,568.273926 268.029449,568.273926 
	C268.029449,583.798584 267.270325,599.106262 268.286926,614.295227 
	C269.007111,625.054932 276.309448,632.893066 287.321838,635.683533 
	C288.214355,635.733521 289.106842,635.783508 290.921234,635.963196 
M620.999023,574.618286 
	C620.999023,588.479187 620.999023,602.340027 620.999023,617.638550 
	C608.792297,601.822571 597.251648,587.528320 586.546936,572.633362 
	C582.922852,567.590698 579.174805,567.666199 574.272339,568.392700 
	C574.272339,590.636047 574.272339,612.552734 574.272339,634.636414 
	C577.582825,634.636414 580.617737,634.636414 584.228882,634.636414 
	C584.228882,618.449768 584.228882,602.619812 584.228882,585.861023 
	C596.155029,601.244812 607.667725,615.563904 618.495239,630.383606 
	C621.772278,634.868958 624.979492,635.714905 629.727173,634.512268 
	C629.727173,612.348999 629.727173,590.430359 629.727173,568.365662 
	C626.745300,568.365662 624.044434,568.365662 620.999023,568.365662 
	C620.999023,570.370300 620.999023,572.012146 620.999023,574.618286 
M183.999237,576.565186 
	C183.999237,595.956543 183.999237,615.347900 183.999237,634.697388 
	C187.699509,634.697388 190.623306,634.697388 194.117523,634.697388 
	C194.117523,625.347778 194.117523,616.286194 194.117523,607.414856 
	C199.733383,606.154846 203.630890,607.726685 206.518921,612.044434 
	C209.339279,616.260864 212.291840,620.389832 215.225388,624.529541 
	C223.174881,635.747314 224.427444,636.384338 234.774368,634.213379 
	C227.846558,624.835999 221.058807,615.648132 214.458969,606.714661 
	C218.108597,603.848999 222.060059,601.396545 225.197449,598.155945 
	C233.281189,589.806274 229.108536,573.758240 218.183136,569.947754 
	C207.027603,566.057190 195.660095,568.899963 183.999237,567.946960 
	C183.999237,570.987244 183.999237,573.288025 183.999237,576.565186 
M974.610840,568.002258 
	C971.164673,567.435120 970.952393,569.477478 970.963379,572.153015 
	C971.035767,589.810486 971.000183,607.468323 970.999878,625.126099 
	C970.999817,628.248962 970.999878,631.371887 970.999878,634.636597 
	C974.581848,634.636597 977.617493,634.636597 981.102173,634.636597 
	C981.102173,624.358093 981.102173,614.433472 981.102173,604.370850 
	C992.929749,604.370850 1004.298096,604.370850 1016.115234,604.370850 
	C1016.115234,614.659546 1016.115234,624.585754 1016.115234,634.621948 
	C1019.945801,634.621948 1023.314209,634.621948 1026.717529,634.621948 
	C1026.717529,612.328064 1026.717529,590.413147 1026.717529,568.378540 
	C1023.055908,568.378540 1019.687744,568.378540 1015.869995,568.378540 
	C1015.869995,578.340881 1015.869995,587.930054 1015.869995,597.614502 
	C1004.040833,597.614502 992.672119,597.614502 980.858154,597.614502 
	C980.858154,587.641357 980.858154,578.047546 980.858154,568.000549 
	C978.795532,568.000549 977.165405,568.000549 974.610840,568.002258 
M801.999878,624.467896 
	C801.999878,627.887695 801.999878,631.307495 801.999878,634.707397 
	C816.714417,634.707397 830.639160,634.707397 844.611572,634.707397 
	C844.611572,632.363586 844.611572,630.331787 844.611572,627.856567 
	C833.644043,627.856567 823.055908,627.856567 812.393921,627.856567 
	C812.393921,620.023438 812.393921,612.653259 812.393921,604.847046 
	C821.381592,604.847046 829.979553,604.847046 838.596802,604.847046 
	C838.596802,602.361450 838.596802,600.327942 838.596802,597.840088 
	C829.620300,597.840088 821.030823,597.840088 812.405212,597.840088 
	C812.405212,590.000427 812.405212,582.629150 812.405212,574.830566 
	C823.404175,574.830566 834.003113,574.830566 844.597351,574.830566 
	C844.597351,572.349854 844.597351,570.315369 844.597351,568.311035 
	C830.282043,568.311035 816.367920,568.311035 801.999878,568.311035 
	C801.999878,586.904175 801.999878,605.189819 801.999878,624.467896 
M457.684174,575.000366 
	C466.968262,575.000366 476.252350,575.000366 485.624359,575.000366 
	C485.624359,572.400330 485.624359,570.366394 485.624359,568.286743 
	C471.336090,568.286743 457.419434,568.286743 443.366333,568.286743 
	C443.366333,590.613159 443.366333,612.651123 443.366333,634.713989 
	C446.664246,634.713989 449.587830,634.713989 453.133606,634.713989 
	C453.133606,625.059570 453.133606,615.674316 453.133606,605.871094 
	C462.691925,605.871094 471.623688,605.871094 480.618042,605.871094 
	C480.618042,603.386963 480.618042,601.352661 480.618042,598.867004 
	C471.322906,598.867004 462.399384,598.867004 453.017395,598.867004 
	C453.017395,591.458862 452.883392,584.497375 453.181641,577.554443 
	C453.220337,576.654480 455.490936,575.850464 457.684174,575.000366 
M363.999512,574.614380 
	C363.999512,594.561157 363.999512,614.507996 363.999512,634.648438 
	C367.557220,634.648438 370.592926,634.648438 374.079956,634.648438 
	C374.079956,625.048035 374.079956,615.789734 374.079956,605.929382 
	C383.580505,605.929382 392.642181,605.929382 401.743225,605.929382 
	C401.743225,603.380859 401.743225,601.453491 401.743225,598.907471 
	C392.452148,598.907471 383.396515,598.907471 374.274963,598.907471 
	C374.274963,590.696716 374.274963,583.111450 374.274963,574.916504 
	C385.262207,574.916504 395.985870,574.916504 406.734222,574.916504 
	C406.734222,572.372437 406.734222,570.443665 406.734222,568.363037 
	C392.432373,568.363037 378.392365,568.363037 363.999542,568.363037 
	C363.999542,570.365417 363.999542,572.006836 363.999512,574.614380 
M744.999634,623.475281 
	C744.999634,607.734558 744.999634,591.993835 744.999634,575.819092 
	C752.743835,575.819092 759.676453,575.819092 766.586426,575.819092 
	C766.586426,572.992615 766.586426,570.623108 766.586426,568.309265 
	C748.586304,568.309265 730.998840,568.309265 713.408569,568.309265 
	C713.408569,570.999329 713.408569,573.368896 713.408569,576.184326 
	C720.733337,576.184326 727.655945,576.184326 735.182373,576.184326 
	C735.182373,596.016113 735.182373,615.394531 735.182373,634.677979 
	C738.730774,634.677979 741.657837,634.677979 744.999634,634.677979 
	C744.999634,631.063354 744.999634,627.764526 744.999634,623.475281 
M522.198181,568.885315 
	C522.198181,590.808960 522.198181,612.732605 522.198181,634.727417 
	C525.970398,634.727417 529.226807,634.727417 532.636475,634.727417 
	C532.636475,612.409912 532.636475,590.366455 532.636475,568.208923 
	C529.133606,568.208923 525.992126,568.208923 522.198181,568.885315 
M681.996155,629.588684 
	C681.512756,624.522339 678.078247,623.639709 673.913818,624.043457 
	C670.334656,624.390564 668.808105,626.670227 669.029846,630.105530 
	C669.213501,632.950439 669.564331,635.798035 673.420105,635.995850 
	C677.649353,636.212708 681.470764,635.851318 681.996155,629.588684 
z"/>
<path fill="#4F64A9" opacity="1.000000" stroke="none" 
	d="
M620.999023,574.136169 
	C620.999023,572.012146 620.999023,570.370300 620.999023,568.365662 
	C624.044434,568.365662 626.745300,568.365662 629.727173,568.365662 
	C629.727173,590.430359 629.727173,612.348999 629.727173,634.512268 
	C624.979492,635.714905 621.772278,634.868958 618.495239,630.383606 
	C607.667725,615.563904 596.155029,601.244812 584.228882,585.861023 
	C584.228882,602.619812 584.228882,618.449768 584.228882,634.636414 
	C580.617737,634.636414 577.582825,634.636414 574.272339,634.636414 
	C574.272339,612.552734 574.272339,590.636047 574.272339,568.392700 
	C579.174805,567.666199 582.922852,567.590698 586.546936,572.633362 
	C597.251648,587.528320 608.792297,601.822571 620.999023,617.638550 
	C620.999023,602.340027 620.999023,588.479187 620.999023,574.136169 
z"/>
<path fill="#4F64A9" opacity="1.000000" stroke="none" 
	d="
M183.999237,576.077026 
	C183.999237,573.288025 183.999237,570.987244 183.999237,567.946960 
	C195.660095,568.899963 207.027603,566.057190 218.183136,569.947754 
	C229.108536,573.758240 233.281189,589.806274 225.197449,598.155945 
	C222.060059,601.396545 218.108597,603.848999 214.458969,606.714661 
	C221.058807,615.648132 227.846558,624.835999 234.774368,634.213379 
	C224.427444,636.384338 223.174881,635.747314 215.225388,624.529541 
	C212.291840,620.389832 209.339279,616.260864 206.518921,612.044434 
	C203.630890,607.726685 199.733383,606.154846 194.117523,607.414856 
	C194.117523,616.286194 194.117523,625.347778 194.117523,634.697388 
	C190.623306,634.697388 187.699509,634.697388 183.999237,634.697388 
	C183.999237,615.347900 183.999237,595.956543 183.999237,576.077026 
M200.387848,600.999634 
	C203.136139,600.650574 205.914474,600.454346 208.626572,599.921204 
	C214.544678,598.757874 218.805984,593.412964 218.972702,587.194275 
	C219.091202,582.774658 215.339386,577.348572 210.552536,576.376892 
	C205.341492,575.319153 199.947403,575.163269 194.306854,574.580444 
	C194.306854,583.866760 194.306854,592.208923 194.306854,600.999695 
	C196.220978,600.999695 197.844742,600.999695 200.387848,600.999634 
z"/>
<path fill="#5065A8" opacity="1.000000" stroke="none" 
	d="
M975.073120,568.001404 
	C977.165405,568.000549 978.795532,568.000549 980.858154,568.000549 
	C980.858154,578.047546 980.858154,587.641357 980.858154,597.614502 
	C992.672119,597.614502 1004.040833,597.614502 1015.869995,597.614502 
	C1015.869995,587.930054 1015.869995,578.340881 1015.869995,568.378540 
	C1019.687744,568.378540 1023.055908,568.378540 1026.717529,568.378540 
	C1026.717529,590.413147 1026.717529,612.328064 1026.717529,634.621948 
	C1023.314209,634.621948 1019.945801,634.621948 1016.115234,634.621948 
	C1016.115234,624.585754 1016.115234,614.659546 1016.115234,604.370850 
	C1004.298096,604.370850 992.929749,604.370850 981.102173,604.370850 
	C981.102173,614.433472 981.102173,624.358093 981.102173,634.636597 
	C977.617493,634.636597 974.581848,634.636597 970.999878,634.636597 
	C970.999878,631.371887 970.999817,628.248962 970.999878,625.126099 
	C971.000183,607.468323 971.035767,589.810486 970.963379,572.153015 
	C970.952393,569.477478 971.164673,567.435120 975.073120,568.001404 
z"/>
<path fill="#5065A8" opacity="1.000000" stroke="none" 
	d="
M312.169006,610.001770 
	C312.169006,596.210632 312.169006,582.419495 312.169006,568.315796 
	C315.695648,568.315796 318.951904,568.315796 322.999481,568.315796 
	C322.999481,570.848938 322.999481,573.437988 322.999512,576.027039 
	C322.999573,587.358154 323.143524,598.691528 322.960632,610.019714 
	C322.764038,622.195923 316.526550,632.331726 304.226501,635.179443 
	C299.959686,636.167358 295.365753,635.742737 290.303772,635.696045 
	C288.776733,635.320862 287.867188,635.212830 286.957611,635.104858 
	C276.309448,632.893066 269.007111,625.054932 268.286926,614.295227 
	C267.270325,599.106262 268.029449,583.798584 268.029449,568.273926 
	C271.431519,568.273926 274.352783,568.273926 277.999634,568.273926 
	C277.999634,573.726257 277.889832,579.153381 278.024078,584.574463 
	C278.253204,593.823669 278.417358,603.083374 279.020935,612.311707 
	C279.522095,619.973999 283.706818,625.007751 291.753967,627.255127 
	C292.843842,627.623901 293.446381,627.747864 294.048920,627.871887 
	C294.773773,627.905334 295.498657,627.938721 296.777313,627.989380 
	C297.887268,627.726562 298.443451,627.446533 298.999603,627.166565 
	C302.423340,624.866211 305.847046,622.565918 309.896790,619.976318 
	C314.894012,615.457886 315.369965,612.657593 312.169006,610.001770 
z"/>
<path fill="#5065A8" opacity="1.000000" stroke="none" 
	d="
M801.999878,623.971680 
	C801.999878,605.189819 801.999878,586.904175 801.999878,568.311035 
	C816.367920,568.311035 830.282043,568.311035 844.597351,568.311035 
	C844.597351,570.315369 844.597351,572.349854 844.597351,574.830566 
	C834.003113,574.830566 823.404175,574.830566 812.405212,574.830566 
	C812.405212,582.629150 812.405212,590.000427 812.405212,597.840088 
	C821.030823,597.840088 829.620300,597.840088 838.596802,597.840088 
	C838.596802,600.327942 838.596802,602.361450 838.596802,604.847046 
	C829.979553,604.847046 821.381592,604.847046 812.393921,604.847046 
	C812.393921,612.653259 812.393921,620.023438 812.393921,627.856567 
	C823.055908,627.856567 833.644043,627.856567 844.611572,627.856567 
	C844.611572,630.331787 844.611572,632.363586 844.611572,634.707397 
	C830.639160,634.707397 816.714417,634.707397 801.999878,634.707397 
	C801.999878,631.307495 801.999878,627.887695 801.999878,623.971680 
z"/>
<path fill="#5065A8" opacity="1.000000" stroke="none" 
	d="
M897.044495,622.888855 
	C899.791199,624.262939 902.537903,625.637024 905.826721,627.312073 
	C907.575256,627.696228 908.781738,627.779480 909.988159,627.862732 
	C915.683350,626.963379 921.687805,627.144592 926.227112,622.505798 
	C927.127502,621.585632 928.889038,621.508240 930.687744,621.439697 
	C932.118591,623.572876 933.115112,625.308594 934.111572,627.044373 
	C929.078247,633.094666 922.604187,636.032043 914.756897,635.999573 
	C908.029541,635.971680 901.384583,636.305664 894.973267,633.087830 
	C884.118713,627.639832 879.373169,618.248657 878.222290,607.067139 
	C877.598755,601.009644 878.417603,594.512512 879.985229,588.583679 
	C882.896179,577.574097 890.550720,570.744141 901.998657,567.598022 
	C902.400208,567.380493 902.560364,567.207031 902.560364,567.207031 
	C907.064087,567.150269 911.567810,567.093506 916.690979,567.396729 
	C919.575195,568.156189 921.839905,568.555542 924.104675,568.954956 
	C926.408569,570.139771 928.897095,571.071777 930.964355,572.580872 
	C933.020752,574.082031 935.044861,576.092407 932.578369,578.932190 
	C930.410828,581.427856 928.165894,581.676392 925.205322,579.827454 
	C917.400940,574.953186 909.214050,573.779480 900.654846,578.104675 
	C893.871521,581.532410 890.217529,587.597107 889.288025,594.488403 
	C888.314148,601.708008 887.798279,609.385132 891.907776,616.872803 
	C891.222107,621.618286 892.577942,623.774780 897.044495,622.888855 
z"/>
<path fill="#5065A8" opacity="1.000000" stroke="none" 
	d="
M457.205933,575.001221 
	C455.490936,575.850464 453.220337,576.654480 453.181641,577.554443 
	C452.883392,584.497375 453.017395,591.458862 453.017395,598.867004 
	C462.399384,598.867004 471.322906,598.867004 480.618042,598.867004 
	C480.618042,601.352661 480.618042,603.386963 480.618042,605.871094 
	C471.623688,605.871094 462.691925,605.871094 453.133606,605.871094 
	C453.133606,615.674316 453.133606,625.059570 453.133606,634.713989 
	C449.587830,634.713989 446.664246,634.713989 443.366333,634.713989 
	C443.366333,612.651123 443.366333,590.613159 443.366333,568.286743 
	C457.419434,568.286743 471.336090,568.286743 485.624359,568.286743 
	C485.624359,570.366394 485.624359,572.400330 485.624359,575.000366 
	C476.252350,575.000366 466.968262,575.000366 457.205933,575.001221 
z"/>
<path fill="#5065A8" opacity="1.000000" stroke="none" 
	d="
M363.999512,574.131287 
	C363.999542,572.006836 363.999542,570.365417 363.999542,568.363037 
	C378.392365,568.363037 392.432373,568.363037 406.734222,568.363037 
	C406.734222,570.443665 406.734222,572.372437 406.734222,574.916504 
	C395.985870,574.916504 385.262207,574.916504 374.274963,574.916504 
	C374.274963,583.111450 374.274963,590.696716 374.274963,598.907471 
	C383.396515,598.907471 392.452148,598.907471 401.743225,598.907471 
	C401.743225,601.453491 401.743225,603.380859 401.743225,605.929382 
	C392.642181,605.929382 383.580505,605.929382 374.079956,605.929382 
	C374.079956,615.789734 374.079956,625.048035 374.079956,634.648438 
	C370.592926,634.648438 367.557220,634.648438 363.999512,634.648438 
	C363.999512,614.507996 363.999512,594.561157 363.999512,574.131287 
z"/>
<path fill="#5065A8" opacity="1.000000" stroke="none" 
	d="
M744.999634,623.970459 
	C744.999634,627.764526 744.999634,631.063354 744.999634,634.677979 
	C741.657837,634.677979 738.730774,634.677979 735.182373,634.677979 
	C735.182373,615.394531 735.182373,596.016113 735.182373,576.184326 
	C727.655945,576.184326 720.733337,576.184326 713.408569,576.184326 
	C713.408569,573.368896 713.408569,570.999329 713.408569,568.309265 
	C730.998840,568.309265 748.586304,568.309265 766.586426,568.309265 
	C766.586426,570.623108 766.586426,572.992615 766.586426,575.819092 
	C759.676453,575.819092 752.743835,575.819092 744.999634,575.819092 
	C744.999634,591.993835 744.999634,607.734558 744.999634,623.970459 
z"/>
<path fill="#5065A8" opacity="1.000000" stroke="none" 
	d="
M522.524414,568.547119 
	C525.992126,568.208923 529.133606,568.208923 532.636475,568.208923 
	C532.636475,590.366455 532.636475,612.409912 532.636475,634.727417 
	C529.226807,634.727417 525.970398,634.727417 522.198181,634.727417 
	C522.198181,612.732605 522.198181,590.808960 522.524414,568.547119 
z"/>
<path fill="#4F64A9" opacity="1.000000" stroke="none" 
	d="
M681.996216,629.997681 
	C681.470764,635.851318 677.649353,636.212708 673.420105,635.995850 
	C669.564331,635.798035 669.213501,632.950439 669.029846,630.105530 
	C668.808105,626.670227 670.334656,624.390564 673.913818,624.043457 
	C678.078247,623.639709 681.512756,624.522339 681.996216,629.997681 
z"/>
<path fill="#4F64A9" opacity="1.000000" stroke="none" 
	d="
M312.102783,610.409119 
	C315.369965,612.657593 314.894012,615.457886 310.203979,619.822632 
	C310.602295,616.910950 311.319427,613.863708 312.102783,610.409119 
z"/>
<path fill="#4F64A9" opacity="1.000000" stroke="none" 
	d="
M896.904541,622.592896 
	C892.577942,623.774780 891.222107,621.618286 891.963745,617.249084 
	C893.658447,618.731750 895.211487,620.514404 896.904541,622.592896 
z"/>
<path fill="#4F64A9" opacity="1.000000" stroke="none" 
	d="
M923.887695,568.640381 
	C921.839905,568.555542 919.575195,568.156189 917.155334,567.461670 
	C919.223755,567.552917 921.447205,567.939331 923.887695,568.640381 
z"/>
<path fill="#4F64A9" opacity="1.000000" stroke="none" 
	d="
M934.388550,626.920044 
	C933.115112,625.308594 932.118591,623.572876 931.060669,621.502075 
	C932.700073,622.731445 936.208008,623.118774 934.388550,626.920044 
z"/>
<path fill="#4F64A9" opacity="1.000000" stroke="none" 
	d="
M909.788574,627.567017 
	C908.781738,627.779480 907.575256,627.696228 906.184692,627.389893 
	C907.196716,627.201660 908.392822,627.236511 909.788574,627.567017 
z"/>
<path fill="#4F64A9" opacity="1.000000" stroke="none" 
	d="
M287.139709,635.394165 
	C287.867188,635.212830 288.776733,635.320862 289.842834,635.631165 
	C289.106842,635.783508 288.214355,635.733521 287.139709,635.394165 
z"/>
<path fill="#4F64A9" opacity="1.000000" stroke="none" 
	d="
M298.698761,627.107849 
	C298.443451,627.446533 297.887268,627.726562 297.137970,627.942993 
	C297.429199,627.602722 297.913574,627.325928 298.698761,627.107849 
z"/>
<path fill="#4F64A9" opacity="1.000000" stroke="none" 
	d="
M293.905457,627.602417 
	C293.446381,627.747864 292.843842,627.623901 292.120911,627.333191 
	C292.587677,627.221985 293.174866,627.277466 293.905457,627.602417 
z"/>
<path fill="#4F64A9" opacity="1.000000" stroke="none" 
	d="
M902.496216,567.167358 
	C902.560364,567.207031 902.400208,567.380493 902.343384,567.363892 
	C902.286621,567.347290 902.432007,567.127686 902.496216,567.167358 
z"/>
<path fill="#000000" opacity="1.000000" stroke="none" 
	d="
M199.928162,600.999634 
	C197.844742,600.999695 196.220978,600.999695 194.306854,600.999695 
	C194.306854,592.208923 194.306854,583.866760 194.306854,574.580444 
	C199.947403,575.163269 205.341492,575.319153 210.552536,576.376892 
	C215.339386,577.348572 219.091202,582.774658 218.972702,587.194275 
	C218.805984,593.412964 214.544678,598.757874 208.626572,599.921204 
	C205.914474,600.454346 203.136139,600.650574 199.928162,600.999634 
z"/>
</svg>