<svg version="1.1" id="Layer_1" xmlns="http://www.w3.org/2000/svg" xmlns:xlink="http://www.w3.org/1999/xlink" x="0px" y="0px"
	 width="100%" viewBox="0 0 1024 1024" enable-background="new 0 0 1024 1024" xml:space="preserve">
<path fill="#000000" opacity="1.000000" stroke="none" 
	d="
M151.605347,547.273438 
	C149.396744,526.404907 149.066254,505.978058 150.563171,485.491241 
	C153.426819,446.299530 162.516983,408.627991 177.720657,372.421570 
	C198.766739,322.301910 229.672409,279.134979 269.999359,242.783310 
	C309.056610,207.576202 353.857391,182.203140 403.982941,166.394943 
	C431.541779,157.703659 459.825195,152.497406 488.686005,150.661285 
	C563.641052,145.892654 633.590759,162.514420 698.216309,200.680725 
	C734.382629,222.039703 765.809265,249.132904 792.588806,281.622040 
	C828.945557,325.730286 853.559265,375.583435 866.514771,431.197144 
	C871.811340,453.933563 874.339233,477.016693 875.484314,500.357452 
	C878.543457,562.714966 864.922668,621.425476 837.020630,676.848511 
	C810.402771,729.720520 772.627930,773.334595 724.563171,807.967041 
	C688.498596,833.953003 648.983582,852.697937 606.016113,864.039429 
	C582.962280,870.124573 559.506714,873.918152 535.676514,875.388672 
	C467.893097,879.571472 403.720154,866.204102 343.795929,834.404053 
	C271.192444,795.875488 217.611862,738.909241 182.891541,664.339111 
	C168.959457,634.416565 159.506256,603.101013 154.377335,570.502991 
	C153.189743,562.955078 152.531006,555.323914 151.605347,547.273438 
M237.715012,735.792236 
	C261.662140,765.255493 289.485657,790.447632 321.450012,810.926697 
	C373.742035,844.429382 430.993591,863.079285 492.985901,866.526855 
	C528.087158,868.479004 562.951599,865.627625 597.070862,856.912659 
	C677.898254,836.267212 744.375793,793.242920 794.750366,726.647217 
	C847.068909,657.481323 871.270508,579.424744 865.964478,492.431122 
	C863.724731,455.709839 856.485596,420.186218 843.231262,385.933044 
	C820.422241,326.987854 784.370789,277.544586 735.304443,237.740585 
	C696.750732,206.464706 653.442749,184.230316 605.484680,171.230453 
	C566.723267,160.723495 527.305786,157.308838 487.243683,160.070053 
	C465.064392,161.598740 443.267853,165.172363 421.839386,170.863663 
	C373.158691,183.793030 329.314545,206.349625 290.171143,238.018066 
	C255.184006,266.323975 226.318085,299.955933 204.356125,339.210754 
	C173.062469,395.145081 157.062592,455.012970 159.064026,519.477661 
	C159.883789,545.881531 162.670395,571.936340 169.001572,597.556274 
	C181.582993,648.468506 204.388107,694.360413 237.715012,735.792236 
z"/>
<path fill="#000000" opacity="1.000000" stroke="none" 
	d="
M538.035278,319.474670 
	C541.049438,317.243164 543.703064,317.350494 546.761353,318.714569 
	C560.528809,324.855316 571.497314,334.140076 579.737915,346.800476 
	C582.449036,350.965607 582.245972,353.778839 578.605469,357.507416 
	C556.244507,380.409393 529.980347,397.809448 501.951630,412.798035 
	C490.182037,419.091919 477.892883,424.150391 465.269867,428.494202 
	C460.926666,429.988739 458.416412,429.167816 455.676758,425.423096 
	C437.283966,400.282745 439.097870,363.033936 460.050262,339.396057 
	C475.521393,321.942017 495.056885,313.484680 518.187744,312.781525 
	C521.525757,312.680084 524.201538,313.248047 526.370056,316.281677 
	C529.107544,320.111298 533.314270,320.453186 538.035278,319.474670 
M484.314117,405.789490 
	C487.042267,405.128448 488.316254,403.422333 487.466553,400.697937 
	C486.896271,398.869507 485.430084,397.489166 483.400543,397.741669 
	C481.235046,398.011047 479.784698,399.644196 479.582825,401.751587 
	C479.328278,404.409271 481.201019,405.478363 484.314117,405.789490 
z"/>
<path fill="#000000" opacity="1.000000" stroke="none" 
	d="
M584.741455,359.755310 
	C590.556641,353.476990 595.683533,347.110718 599.002380,339.548828 
	C603.515198,329.266602 599.486938,323.175049 588.330933,323.366913 
	C584.851746,323.426727 581.201294,323.511414 577.947327,324.566132 
	C571.565002,326.634766 568.584351,322.504089 564.626648,318.595581 
	C572.434875,314.008331 580.449524,311.269470 588.354431,308.355194 
	C601.330505,303.571350 614.383179,298.941071 628.469116,298.784576 
	C630.620056,298.760651 632.813965,298.897125 634.921387,299.304169 
	C644.660645,301.185333 648.276367,307.108795 645.740234,316.815796 
	C644.112793,323.044708 640.931274,328.516724 637.218018,333.664215 
	C620.056702,357.453857 597.948608,376.202637 574.937378,393.907959 
	C540.498596,420.405762 503.805176,443.317352 464.273071,461.501373 
	C444.725128,470.493103 424.848877,478.603973 403.326294,481.683441 
	C399.515961,482.228668 395.688568,482.443939 391.882141,481.763336 
	C381.382843,479.885986 377.479065,473.558899 380.523682,463.350220 
	C383.454651,453.522522 389.689941,445.714050 396.063354,437.972778 
	C407.125000,424.537323 419.854462,412.808563 433.064178,401.564362 
	C433.660583,401.056763 434.448822,400.774506 435.792816,400.029846 
	C437.227570,407.233398 441.850311,412.928680 437.200806,420.947174 
	C431.385773,430.975800 436.332886,437.968872 447.909668,437.681396 
	C461.474426,437.344635 474.081390,432.879333 486.295715,427.503967 
	C523.275574,411.229767 556.418152,389.286469 584.741455,359.755310 
z"/>
<path fill="#000000" opacity="1.000000" stroke="none" 
	d="
M452.241302,636.336792 
	C450.531464,648.762512 448.989105,660.803101 447.319183,672.825989 
	C446.908813,675.780457 446.107330,678.682800 445.440735,681.598877 
	C444.535583,685.558472 442.206146,687.173035 437.323975,685.824280 
	C439.263580,668.934082 441.202423,652.050781 443.165375,634.957642 
	C437.797821,633.971924 432.992340,634.516052 428.216644,634.506348 
	C425.454437,634.500793 425.206116,636.703064 424.956726,638.706421 
	C423.703400,648.773987 422.581909,658.859009 421.222443,668.911987 
	C420.644196,673.187683 419.667023,677.415161 418.741852,681.636292 
	C418.059418,684.749695 416.286377,687.065918 412.805511,686.138306 
	C409.543274,685.269104 410.916870,682.381714 411.160095,680.254150 
	C412.727905,666.540894 414.326752,652.830505 416.055115,639.136841 
	C416.399048,636.411621 416.201813,634.585938 412.955200,634.214355 
	C410.966431,633.986633 410.201965,632.530701 410.444275,630.584717 
	C410.653503,628.904358 411.470428,627.627991 413.304260,627.784363 
	C416.983856,628.098145 417.499786,625.781738 418.125946,622.915100 
	C420.280029,613.053284 425.998108,607.585266 434.392578,607.344177 
	C436.649231,607.279358 439.912354,606.607361 440.269684,610.243164 
	C440.644806,614.060059 437.815643,614.172058 434.928772,614.343567 
	C429.695374,614.654358 425.628723,620.001099 426.294312,625.193298 
	C426.503418,626.824463 427.271088,627.588135 428.842987,627.626831 
	C430.507599,627.667725 432.173004,627.689514 433.838135,627.693176 
	C442.897339,627.713257 442.897369,627.710449 445.943329,619.258057 
	C449.413452,609.628662 460.640442,603.517029 470.615692,605.808167 
	C472.408264,606.219788 473.756195,606.900696 473.450439,609.123230 
	C473.191498,611.005615 472.377472,612.285889 470.313965,612.291138 
	C467.307343,612.298828 464.337189,612.431458 461.450928,613.441406 
	C458.844360,614.353333 456.608063,615.719971 455.287598,618.209778 
	C453.955353,620.721680 452.322601,623.531433 453.615204,626.232544 
	C454.945374,629.012268 458.107666,627.526245 460.444489,627.636414 
	C464.931549,627.847778 469.437744,627.789001 473.931641,627.672974 
	C477.050934,627.592407 478.653351,628.636230 478.227966,632.019287 
	C476.609528,644.890442 474.976807,657.760620 473.507538,670.649231 
	C473.048950,674.672058 470.510529,674.986206 467.469391,674.610352 
	C463.901947,674.169495 464.685394,671.395508 464.948914,669.198059 
	C466.096802,659.625793 467.294434,650.057922 468.635315,640.511108 
	C469.241974,636.191467 468.326904,633.543640 463.278870,634.415771 
	C459.654602,635.041931 455.646851,632.927917 452.241302,636.336792 
z"/>
<path fill="#000000" opacity="1.000000" stroke="none" 
	d="
M558.437378,441.504272 
	C539.967041,453.656738 520.416565,458.123718 498.803467,452.502869 
	C529.586121,433.841003 559.878479,414.676636 588.379211,392.602722 
	C585.728149,413.456726 575.538635,429.407288 558.437378,441.504272 
z"/>
<path fill="#000000" opacity="1.000000" stroke="none" 
	d="
M334.618042,654.352844 
	C333.526764,652.446838 332.718506,650.780273 331.633179,649.319641 
	C329.732788,646.762207 326.891815,647.153076 324.277130,647.518982 
	C321.747772,647.872864 322.242676,650.249573 321.989258,651.934631 
	C321.049072,658.186218 320.037872,664.436951 319.422852,670.724121 
	C319.008850,674.956116 316.344147,674.757812 313.376862,674.587463 
	C309.886871,674.387085 310.156830,672.264038 310.482758,669.665466 
	C312.905396,650.350708 315.294678,631.030762 317.478577,611.688110 
	C317.865906,608.257568 319.324249,607.019470 322.528015,607.084412 
	C328.186768,607.199219 333.851166,606.820129 339.501434,607.560852 
	C346.826263,608.521057 353.221375,610.714661 355.576447,618.755615 
	C357.919952,626.756897 354.946991,636.128052 348.285492,641.161316 
	C345.934357,642.937744 343.294952,644.332642 340.515137,646.072021 
	C345.454895,655.265625 350.302460,664.287659 355.173889,673.354065 
	C348.612213,676.063660 345.600983,675.088318 342.722290,669.704590 
	C340.051605,664.709778 337.423248,659.692444 334.618042,654.352844 
M344.494171,633.822876 
	C348.317657,626.601379 347.692505,619.587463 342.790833,616.820740 
	C338.166260,614.210449 333.068878,615.236084 328.124481,615.430603 
	C326.750366,615.484741 326.341461,616.745667 326.156982,617.960754 
	C325.093506,624.964172 324.029633,631.967590 323.898468,639.370789 
	C331.431213,639.909790 338.582703,640.767944 344.494171,633.822876 
z"/>
<path fill="#000000" opacity="1.000000" stroke="none" 
	d="
M715.158386,663.889038 
	C714.840637,666.309509 714.360229,668.283630 714.342834,670.261719 
	C714.308716,674.135559 712.096069,674.965759 708.793701,674.851685 
	C705.042419,674.722229 705.186707,672.522034 705.546448,669.718262 
	C706.624878,661.313660 707.573547,652.890747 708.434875,644.460876 
	C708.801514,640.871887 709.785095,636.593750 705.744873,634.620239 
	C701.658081,632.623962 698.157654,634.867554 695.029236,637.805969 
	C687.953796,644.451599 687.313904,653.299561 686.342041,662.078369 
	C686.031128,664.887085 685.442200,667.681274 685.350952,670.494141 
	C685.217834,674.596802 682.620728,674.857361 679.540039,674.720459 
	C675.854004,674.556580 676.444641,671.979065 676.713623,669.681702 
	C679.070984,649.547791 681.487610,629.420837 683.818604,609.283875 
	C684.315796,604.989014 687.377014,605.625549 690.154541,605.764221 
	C693.488281,605.930664 692.949585,608.231079 692.676270,610.483887 
	C691.676392,618.724182 690.761230,626.974792 689.722473,636.020447 
	C692.921204,632.341980 695.866882,629.351013 699.766663,627.572693 
	C708.889893,623.412598 716.667236,628.095337 717.323547,638.120605 
	C717.751404,644.654968 716.359131,651.039185 715.828735,657.493958 
	C715.665466,659.481201 715.415344,661.461182 715.158386,663.889038 
z"/>
<path fill="#000000" opacity="1.000000" stroke="none" 
	d="
M389.747742,285.550110 
	C388.863342,276.978241 392.010712,270.769775 399.143524,266.901764 
	C405.167511,263.635071 411.293121,263.973785 417.049774,267.845337 
	C423.379639,272.102448 426.495361,280.042664 424.642365,286.945770 
	C422.736359,294.046204 416.310699,299.726837 409.555847,300.283142 
	C400.953247,300.991547 394.407593,297.277008 391.076080,289.738281 
	C390.543121,288.532227 390.212067,287.237000 389.747742,285.550110 
z"/>
<path fill="#000000" opacity="1.000000" stroke="none" 
	d="
M374.542816,667.481201 
	C382.910767,667.427551 390.455292,659.561951 391.684204,649.995911 
	C392.446808,644.059998 393.304230,638.122131 393.695679,632.157349 
	C393.979919,627.826355 395.855377,626.204468 400.053925,626.778442 
	C404.443024,627.378418 402.919647,630.321533 402.612488,632.844177 
	C401.165222,644.731812 399.719604,656.619629 398.306946,668.511414 
	C397.958588,671.443787 398.431641,674.992859 393.804138,674.636780 
	C389.412567,674.298828 389.826782,670.974976 389.902161,667.933472 
	C389.914337,667.441833 389.903870,666.949707 389.903870,665.803162 
	C387.247986,668.366882 385.185333,670.931396 382.369324,672.590637 
	C377.688599,675.348633 372.745422,676.798279 367.708893,673.990784 
	C362.979462,671.354431 361.452881,666.576172 361.844604,661.563599 
	C362.660156,651.127319 363.935425,640.726440 365.057220,630.314941 
	C365.465424,626.526489 368.256897,626.656860 371.025452,626.824524 
	C374.594116,627.040710 374.172607,629.538086 373.918457,631.916565 
	C372.946594,641.012207 371.835968,650.095703 371.057159,659.207703 
	C370.798889,662.229492 370.303894,665.742493 374.542816,667.481201 
z"/>
<path fill="#000000" opacity="1.000000" stroke="none" 
	d="
M514.831421,669.019043 
	C515.850464,659.489502 517.134460,650.429871 517.733826,641.325256 
	C518.183594,634.493164 513.689087,631.914307 507.711456,635.326111 
	C501.700012,638.757202 498.472443,644.436768 497.215454,650.997864 
	C495.999390,657.345520 495.387146,663.821777 494.770355,670.266479 
	C494.382172,674.322632 492.042145,675.178589 488.627228,674.764160 
	C484.719055,674.289856 485.669342,671.308655 485.942871,669.001160 
	C487.408600,656.635254 489.016449,644.286255 490.564697,631.930115 
	C490.871033,629.485474 490.587646,626.595947 494.398285,626.838196 
	C498.073517,627.071777 498.452698,629.629517 498.319244,632.527954 
	C498.281342,633.350403 498.313477,634.176025 498.313477,635.000122 
	C498.765259,635.437256 499.217041,635.874451 499.668793,636.311584 
	C500.593597,634.889954 501.324188,633.281006 502.480347,632.082642 
	C505.683502,628.762512 509.603577,626.569946 514.226868,626.027100 
	C521.838989,625.133423 527.826599,632.038208 527.028320,641.393921 
	C526.209961,650.984558 524.642273,660.509033 523.637817,670.087158 
	C523.263855,673.653015 521.717651,675.045105 518.201965,674.798889 
	C514.498413,674.539612 514.622253,672.078979 514.831421,669.019043 
z"/>
<path fill="#000000" opacity="1.000000" stroke="none" 
	d="
M583.600220,615.289490 
	C580.740845,615.556641 580.483337,617.338013 580.253906,619.254700 
	C578.240845,636.071167 576.070251,652.870178 574.245361,669.706787 
	C573.788330,673.923523 571.834595,674.992065 568.063660,674.825867 
	C563.768188,674.636536 564.479065,671.761902 564.790039,669.159180 
	C566.621216,653.830994 568.424622,638.498535 570.420593,623.191406 
	C571.402893,615.658264 571.194885,615.223816 563.643433,615.201782 
	C561.315125,615.194946 558.984619,615.248962 556.659058,615.165466 
	C554.544800,615.089600 551.995789,615.437988 552.174561,612.060730 
	C552.330505,609.112915 553.246948,606.953491 556.881104,607.063721 
	C561.532837,607.204895 566.193115,607.050903 570.849670,607.050354 
	C579.331360,607.049255 587.813660,607.013794 596.294189,607.116699 
	C598.346802,607.141602 601.005798,606.880615 600.765991,610.267944 
	C600.560303,613.172913 599.674866,615.399597 596.005981,615.242676 
	C592.022766,615.072388 588.025208,615.240234 583.600220,615.289490 
z"/>
<path fill="#000000" opacity="1.000000" stroke="none" 
	d="
M601.718018,665.332092 
	C607.433105,669.150391 612.733704,668.165405 617.937988,665.061951 
	C619.077698,664.382324 620.086792,663.487366 621.204163,662.766052 
	C622.809204,661.729797 624.304749,661.789490 625.656128,663.302185 
	C627.108887,664.928345 626.486572,666.177246 625.253723,667.638855 
	C619.601501,674.340271 608.728271,677.300415 600.644836,674.226379 
	C593.512207,671.513977 589.551270,664.350586 589.810730,654.632996 
	C590.191528,640.371399 598.702209,629.000000 610.772095,626.353577 
	C614.375183,625.563660 617.735779,626.005249 621.015137,627.376892 
	C625.159851,629.110535 627.825073,632.147217 628.227600,636.753174 
	C628.623596,641.285156 626.842102,644.863770 623.060242,647.421204 
	C617.798584,650.979248 611.702881,652.095520 605.640747,653.130310 
	C597.674927,654.490112 596.771423,656.047485 600.320923,663.425415 
	C600.605225,664.016418 601.063782,664.523621 601.718018,665.332092 
M603.772949,638.292664 
	C602.167969,641.083740 600.053711,643.686157 600.136414,647.556396 
	C606.272034,647.036072 611.940979,646.149353 617.024170,643.157288 
	C619.279541,641.829773 620.749512,639.786011 619.981384,636.911865 
	C619.199402,633.985657 616.889648,633.301819 614.234436,633.152588 
	C610.086853,632.919495 606.869202,634.674988 603.772949,638.292664 
z"/>
<path fill="#000000" opacity="1.000000" stroke="none" 
	d="
M649.538086,637.454956 
	C644.284790,643.273621 642.824707,649.928406 643.186707,657.177002 
	C643.632263,666.098755 650.198547,670.177979 658.429199,666.564697 
	C659.484680,666.101318 660.461548,665.435852 661.424316,664.788818 
	C663.541992,663.365601 665.656372,660.590759 668.111267,663.997437 
	C670.322449,667.065918 667.190918,668.506287 665.508362,669.997253 
	C659.078186,675.695374 651.543152,677.284790 643.697632,673.877014 
	C635.749573,670.424805 633.804932,663.047119 633.883789,655.173157 
	C634.027588,640.817749 642.890198,628.748657 654.779968,626.297729 
	C660.196960,625.181091 665.019043,626.504883 669.168945,630.125366 
	C670.760620,631.514038 671.920288,633.085754 670.158813,635.251831 
	C668.643555,637.115051 667.054138,637.498047 664.976318,636.135132 
	C659.675049,632.657898 654.612854,633.307678 649.538086,637.454956 
z"/>
<path fill="#000000" opacity="1.000000" stroke="none" 
	d="
M619.714966,475.185333 
	C614.407837,466.529083 616.041199,458.648987 623.700195,454.503387 
	C630.593567,450.772217 638.535767,453.380676 642.203796,460.580383 
	C645.029114,466.125854 643.391663,473.094269 638.318848,477.113251 
	C632.553162,481.681183 626.500549,481.140991 619.714966,475.185333 
z"/>
<path fill="#000000" opacity="1.000000" stroke="none" 
	d="
M557.652588,298.144196 
	C556.529358,295.829224 555.925354,293.812225 556.263916,291.565399 
	C557.056580,286.304993 560.871155,282.306458 565.551331,281.924713 
	C570.328430,281.535034 574.614197,284.943665 575.920166,290.171448 
	C577.148010,295.086121 574.892700,300.459930 570.732239,302.533203 
	C566.221741,304.780945 561.622375,303.338470 557.652588,298.144196 
z"/>
<path fill="#000000" opacity="1.000000" stroke="none" 
	d="
M534.125488,669.029175 
	C534.777832,665.348267 536.584839,663.008972 540.058411,662.931091 
	C542.985596,662.865356 545.064941,664.661194 545.929077,667.483948 
	C546.751343,670.169922 545.783386,672.418945 543.603821,674.084290 
	C539.868286,676.938416 536.048401,675.038391 534.125488,669.029175 
z"/>
</svg>